<svg width="33" height="16" viewBox="0 0 33 16" fill="none" xmlns="http://www.w3.org/2000/svg">
<path d="M0.446777 12V10.7988L1.59668 10.5791V2.76416L0.446777 2.54443V1.33594H4.73877V2.54443L3.58887 2.76416V5.97217H8.09326V2.76416L6.94336 2.54443V1.33594H8.09326H10.0854H11.2354V2.54443L10.0854 2.76416V10.5791L11.2354 10.7988V12H6.94336V10.7988L8.09326 10.5791V7.51025H3.58887V10.5791L4.73877 10.7988V12H0.446777ZM15.9229 12.1538C15.1709 12.1538 14.5142 11.9878 13.9526 11.6558C13.396 11.3188 12.9639 10.8574 12.6562 10.2715C12.3486 9.68066 12.1948 9.00684 12.1948 8.25V7.94971C12.1948 7.17334 12.3413 6.48242 12.6343 5.87695C12.9321 5.2666 13.3472 4.79053 13.8794 4.44873C14.4116 4.10205 15.0269 3.92871 15.7251 3.92871C16.4429 3.92871 17.0459 4.07275 17.5342 4.36084C18.0225 4.64404 18.3911 5.05176 18.6401 5.58398C18.8892 6.11621 19.0137 6.75586 19.0137 7.50293V8.60889H14.2603L14.2456 8.65283C14.2651 9.03369 14.3506 9.37305 14.502 9.6709C14.6533 9.96387 14.8657 10.1958 15.1392 10.3667C15.4126 10.5376 15.7446 10.623 16.1353 10.623C16.5503 10.623 16.9287 10.5693 17.2705 10.4619C17.6172 10.3545 17.9468 10.1958 18.2593 9.98584L18.8306 11.2236C18.5132 11.4873 18.1104 11.7095 17.6221 11.8901C17.1338 12.0659 16.5674 12.1538 15.9229 12.1538ZM14.2822 7.25391H17.1387V7.06348C17.1387 6.73145 17.0898 6.44336 16.9922 6.19922C16.8945 5.9502 16.7432 5.75732 16.5381 5.62061C16.3379 5.48389 16.0767 5.41553 15.7544 5.41553C15.4614 5.41553 15.21 5.49609 15 5.65723C14.79 5.81348 14.624 6.02832 14.502 6.30176C14.3799 6.57031 14.2993 6.87549 14.2603 7.21729L14.2822 7.25391ZM19.9219 12V10.7988L20.9912 10.5791V2.00244L19.8413 1.78271V0.574219H22.9834V10.5791L24.0527 10.7988V12H19.9219ZM24.7339 15.0469V13.8384L25.7886 13.6187V5.50342L24.6313 5.28369V4.0752H27.5977L27.7075 5.00537C27.9468 4.65869 28.2373 4.39258 28.5791 4.20703C28.9209 4.02148 29.3262 3.92871 29.7949 3.92871C30.4346 3.92871 30.9814 4.10449 31.4355 4.45605C31.8945 4.80273 32.2461 5.29102 32.4902 5.9209C32.7344 6.55078 32.8564 7.2832 32.8564 8.11816V8.27197C32.8564 9.04834 32.7344 9.72949 32.4902 10.3154C32.2461 10.8965 31.8945 11.3481 31.4355 11.6704C30.9814 11.9927 30.4321 12.1538 29.7876 12.1538C29.3481 12.1538 28.9624 12.0757 28.6304 11.9194C28.2983 11.7632 28.0127 11.5337 27.7734 11.231V13.6187L28.8574 13.8384V15.0469H24.7339ZM29.187 10.623C29.7632 10.623 30.1855 10.4106 30.4541 9.98584C30.7227 9.56104 30.8569 8.98975 30.8569 8.27197V8.11816C30.8569 7.5957 30.7959 7.13916 30.6738 6.74854C30.5566 6.35303 30.3735 6.04541 30.1245 5.82568C29.8755 5.60107 29.5581 5.48877 29.1724 5.48877C28.855 5.48877 28.5767 5.56201 28.3374 5.7085C28.103 5.8501 27.915 6.05029 27.7734 6.30908V9.86133C27.915 10.1055 28.103 10.2935 28.3374 10.4253C28.5767 10.5571 28.8599 10.623 29.187 10.623Z" fill="black"/>
</svg>
