<svg width="87" height="11" viewBox="0 0 87 11" fill="none" xmlns="http://www.w3.org/2000/svg">
<path d="M0.51416 10V9.2002L1.54883 9.02246V1.7417L0.51416 1.56396V0.757812H7.35693V2.97949H6.354L6.21436 1.72266H2.79932V4.73145H6.20801V5.71533H2.79932V9.06055H6.41748L6.55713 7.78467H7.55371V10H0.51416ZM8.75977 10V9.2002L9.79443 9.02246V4.11572L8.75977 3.93799V3.13184H10.918L11.0005 4.02686C11.2205 3.70101 11.5041 3.44922 11.8511 3.27148C12.1981 3.09375 12.6001 3.00488 13.0571 3.00488C13.5142 3.00488 13.9056 3.11068 14.2314 3.32227C14.5615 3.53385 14.8091 3.85124 14.9741 4.27441C15.1899 3.88509 15.4756 3.57617 15.8311 3.34766C16.1865 3.11914 16.6012 3.00488 17.0752 3.00488C17.7777 3.00488 18.332 3.24609 18.7383 3.72852C19.1445 4.20671 19.3477 4.92822 19.3477 5.89307V9.02246L20.3823 9.2002V10H17.0562V9.2002L18.0908 9.02246V5.88037C18.0908 5.20329 17.9744 4.7251 17.7417 4.4458C17.509 4.16227 17.1641 4.02051 16.707 4.02051C16.2712 4.02051 15.9199 4.17497 15.6533 4.48389C15.391 4.78857 15.2386 5.17367 15.1963 5.63916V9.02246L16.231 9.2002V10H12.9111V9.2002L13.9458 9.02246V5.88037C13.9458 5.23714 13.8252 4.76742 13.584 4.47119C13.347 4.17074 13.0021 4.02051 12.5493 4.02051C12.1685 4.02051 11.8553 4.0988 11.6099 4.25537C11.3644 4.41195 11.1761 4.632 11.0449 4.91553V9.02246L12.0796 9.2002V10H8.75977ZM23.5371 10.1333C22.8219 10.1333 22.2782 9.9598 21.9058 9.61279C21.5334 9.26156 21.3472 8.76855 21.3472 8.13379C21.3472 7.69792 21.4657 7.31917 21.7026 6.99756C21.9438 6.67171 22.2909 6.41992 22.7437 6.24219C23.1965 6.06022 23.7381 5.96924 24.3687 5.96924H25.5938V5.29639C25.5938 4.88167 25.4668 4.56006 25.2129 4.33154C24.9632 4.10303 24.6099 3.98877 24.1528 3.98877C23.8651 3.98877 23.6154 4.02474 23.4038 4.09668C23.1922 4.16439 22.9997 4.2596 22.8262 4.38232L22.6929 5.34082H21.728V3.7666C22.0369 3.51693 22.3966 3.32861 22.8071 3.20166C23.2176 3.07048 23.6725 3.00488 24.1719 3.00488C25.0055 3.00488 25.6593 3.20378 26.1333 3.60156C26.6073 3.99935 26.8442 4.56852 26.8442 5.30908V8.61621C26.8442 8.70508 26.8442 8.79183 26.8442 8.87646C26.8485 8.9611 26.8548 9.04574 26.8633 9.13037L27.5298 9.2002V10H25.7334C25.6953 9.8138 25.6657 9.64665 25.6445 9.49854C25.6234 9.35042 25.6086 9.20231 25.6001 9.0542C25.3589 9.36312 25.0563 9.62126 24.6924 9.82861C24.3327 10.0317 23.9476 10.1333 23.5371 10.1333ZM23.7212 9.08594C24.1359 9.08594 24.5146 8.98649 24.8574 8.7876C25.2002 8.5887 25.4456 8.34961 25.5938 8.07031V6.82617H24.3242C23.7487 6.82617 23.3171 6.9637 23.0293 7.23877C22.7415 7.51383 22.5977 7.82064 22.5977 8.15918C22.5977 8.45964 22.6908 8.69027 22.877 8.85107C23.0632 9.00765 23.3446 9.08594 23.7212 9.08594ZM28.4565 10V9.2002L29.4912 9.02246V4.11572L28.4565 3.93799V3.13184H30.7417V9.02246L31.7764 9.2002V10H28.4565ZM29.4277 1.43701V0.0976562H30.7417V1.43701H29.4277ZM32.5762 10V9.2002L33.6108 9.02246V1.08154L32.5762 0.903809V0.0976562H34.8613V9.02246L35.896 9.2002V10H32.5762ZM42.25 10.1333C41.5348 10.1333 40.991 9.9598 40.6187 9.61279C40.2463 9.26156 40.0601 8.76855 40.0601 8.13379C40.0601 7.69792 40.1785 7.31917 40.4155 6.99756C40.6567 6.67171 41.0037 6.41992 41.4565 6.24219C41.9093 6.06022 42.451 5.96924 43.0815 5.96924H44.3066V5.29639C44.3066 4.88167 44.1797 4.56006 43.9258 4.33154C43.6761 4.10303 43.3228 3.98877 42.8657 3.98877C42.578 3.98877 42.3283 4.02474 42.1167 4.09668C41.9051 4.16439 41.7126 4.2596 41.5391 4.38232L41.4058 5.34082H40.4409V3.7666C40.7498 3.51693 41.1095 3.32861 41.52 3.20166C41.9305 3.07048 42.3854 3.00488 42.8848 3.00488C43.7184 3.00488 44.3722 3.20378 44.8462 3.60156C45.3201 3.99935 45.5571 4.56852 45.5571 5.30908V8.61621C45.5571 8.70508 45.5571 8.79183 45.5571 8.87646C45.5614 8.9611 45.5677 9.04574 45.5762 9.13037L46.2427 9.2002V10H44.4463C44.4082 9.8138 44.3786 9.64665 44.3574 9.49854C44.3363 9.35042 44.3215 9.20231 44.313 9.0542C44.0718 9.36312 43.7692 9.62126 43.4053 9.82861C43.0456 10.0317 42.6605 10.1333 42.25 10.1333ZM42.4341 9.08594C42.8488 9.08594 43.2275 8.98649 43.5703 8.7876C43.9131 8.5887 44.1585 8.34961 44.3066 8.07031V6.82617H43.0371C42.4616 6.82617 42.0299 6.9637 41.7422 7.23877C41.4544 7.51383 41.3105 7.82064 41.3105 8.15918C41.3105 8.45964 41.4036 8.69027 41.5898 8.85107C41.776 9.00765 42.0575 9.08594 42.4341 9.08594ZM49.9116 10.1333C49.353 10.1333 48.8727 9.99577 48.4707 9.7207C48.0729 9.44141 47.7682 9.0542 47.5566 8.55908C47.3451 8.06396 47.2393 7.48633 47.2393 6.82617V6.69287C47.2393 5.95654 47.3451 5.3112 47.5566 4.75684C47.7682 4.20247 48.075 3.77295 48.4771 3.46826C48.8791 3.15934 49.3615 3.00488 49.9243 3.00488C50.3306 3.00488 50.6882 3.08105 50.9971 3.2334C51.3102 3.38151 51.5768 3.59733 51.7969 3.88086V1.08154L50.7622 0.903809V0.0976562H51.7969H53.0474V9.02246L54.082 9.2002V10H51.9619L51.8604 9.18115C51.6361 9.4943 51.361 9.73128 51.0352 9.89209C50.7135 10.0529 50.339 10.1333 49.9116 10.1333ZM50.229 9.11768C50.6014 9.11768 50.9146 9.03304 51.1685 8.86377C51.4224 8.6945 51.6318 8.4554 51.7969 8.14648V4.95996C51.6361 4.6722 51.4266 4.44368 51.1685 4.27441C50.9103 4.10514 50.6014 4.02051 50.2417 4.02051C49.8439 4.02051 49.516 4.13477 49.2578 4.36328C48.9997 4.58757 48.8071 4.90072 48.6802 5.30273C48.5532 5.70052 48.4897 6.1639 48.4897 6.69287V6.82617C48.4897 7.51595 48.6315 8.07031 48.915 8.48926C49.1986 8.9082 49.6366 9.11768 50.229 9.11768ZM57.6431 10.1333C57.0845 10.1333 56.6042 9.99577 56.2021 9.7207C55.8044 9.44141 55.4997 9.0542 55.2881 8.55908C55.0765 8.06396 54.9707 7.48633 54.9707 6.82617V6.69287C54.9707 5.95654 55.0765 5.3112 55.2881 4.75684C55.4997 4.20247 55.8065 3.77295 56.2085 3.46826C56.6105 3.15934 57.0929 3.00488 57.6558 3.00488C58.062 3.00488 58.4196 3.08105 58.7285 3.2334C59.0417 3.38151 59.3083 3.59733 59.5283 3.88086V1.08154L58.4937 0.903809V0.0976562H59.5283H60.7788V9.02246L61.8135 9.2002V10H59.6934L59.5918 9.18115C59.3675 9.4943 59.0924 9.73128 58.7666 9.89209C58.445 10.0529 58.0705 10.1333 57.6431 10.1333ZM57.9604 9.11768C58.3328 9.11768 58.646 9.03304 58.8999 8.86377C59.1538 8.6945 59.3633 8.4554 59.5283 8.14648V4.95996C59.3675 4.6722 59.158 4.44368 58.8999 4.27441C58.6418 4.10514 58.3328 4.02051 57.9731 4.02051C57.5754 4.02051 57.2474 4.13477 56.9893 4.36328C56.7311 4.58757 56.5386 4.90072 56.4116 5.30273C56.2847 5.70052 56.2212 6.1639 56.2212 6.69287V6.82617C56.2212 7.51595 56.363 8.07031 56.6465 8.48926C56.93 8.9082 57.368 9.11768 57.9604 9.11768ZM62.6641 10V9.2002L63.6987 9.02246V4.11572L62.6641 3.93799V3.13184H64.8159L64.9238 4.00781L64.9365 4.12842C65.1312 3.77718 65.3703 3.50212 65.6538 3.30322C65.9416 3.10433 66.2695 3.00488 66.6377 3.00488C66.7689 3.00488 66.9022 3.01758 67.0376 3.04297C67.1772 3.06413 67.2767 3.08529 67.3359 3.10645L67.1709 4.26807L66.3013 4.21729C65.9712 4.19613 65.694 4.2723 65.4697 4.4458C65.2454 4.61507 65.0719 4.84359 64.9492 5.13135V9.02246L65.9839 9.2002V10H62.6641ZM71.1001 10.1333C70.4653 10.1333 69.9131 9.98942 69.4434 9.70166C68.9736 9.40967 68.6097 9.00553 68.3516 8.48926C68.0977 7.97298 67.9707 7.3763 67.9707 6.69922V6.41992C67.9707 5.76823 68.104 5.18636 68.3706 4.67432C68.6414 4.15804 68.999 3.75179 69.4434 3.45557C69.8919 3.15511 70.3807 3.00488 70.9097 3.00488C71.5275 3.00488 72.0438 3.13184 72.4585 3.38574C72.8774 3.63965 73.1927 3.99723 73.4043 4.4585C73.6159 4.91553 73.7217 5.45508 73.7217 6.07715V6.85791H69.2656L69.2466 6.88965C69.255 7.32975 69.3312 7.72119 69.4751 8.06396C69.6232 8.40251 69.8348 8.66911 70.1099 8.86377C70.3849 9.05843 70.715 9.15576 71.1001 9.15576C71.5233 9.15576 71.8936 9.09652 72.2109 8.97803C72.5326 8.85531 72.8097 8.68815 73.0425 8.47656L73.5312 9.28906C73.2858 9.52604 72.96 9.72705 72.5537 9.89209C72.1517 10.0529 71.6672 10.1333 71.1001 10.1333ZM69.3037 5.88037H72.4712V5.71533C72.4712 5.38525 72.4119 5.09115 72.2935 4.83301C72.1792 4.57064 72.0057 4.3654 71.7729 4.21729C71.5444 4.06494 71.2567 3.98877 70.9097 3.98877C70.6304 3.98877 70.3765 4.07129 70.1479 4.23633C69.9194 4.39714 69.7311 4.61719 69.583 4.89648C69.4349 5.17578 69.3376 5.49316 69.291 5.84863L69.3037 5.88037ZM77.5176 10.1333C77.0563 10.1333 76.6247 10.0868 76.2227 9.99365C75.8206 9.90055 75.3932 9.75667 74.9404 9.56201L74.9277 7.93066H75.8735L76.1084 8.91455C76.3454 9.01188 76.5739 9.08382 76.7939 9.13037C77.0182 9.17269 77.2594 9.19385 77.5176 9.19385C78.0254 9.19385 78.3893 9.09652 78.6094 8.90186C78.8294 8.70719 78.9395 8.46598 78.9395 8.17822C78.9395 7.90739 78.8273 7.67887 78.603 7.49268C78.383 7.30225 77.981 7.14144 77.397 7.01025C76.5675 6.81982 75.9561 6.56592 75.5625 6.24854C75.1732 5.92692 74.9785 5.49951 74.9785 4.96631C74.9785 4.59391 75.0864 4.26172 75.3022 3.96973C75.5181 3.6735 75.8185 3.43864 76.2036 3.26514C76.5887 3.09163 77.0373 3.00488 77.5493 3.00488C78.0698 3.00488 78.5142 3.06413 78.8823 3.18262C79.2547 3.30111 79.5785 3.4598 79.8535 3.65869L79.917 5.22656H78.9775L78.7744 4.3125C78.6263 4.20247 78.4507 4.11784 78.2476 4.05859C78.0444 3.99935 77.8117 3.96973 77.5493 3.96973C77.16 3.96973 76.8426 4.06071 76.5972 4.24268C76.356 4.42464 76.2354 4.65316 76.2354 4.92822C76.2354 5.08903 76.2692 5.22868 76.3369 5.34717C76.4089 5.46566 76.5443 5.57357 76.7432 5.6709C76.9421 5.764 77.234 5.8571 77.6191 5.9502C78.5755 6.17448 79.242 6.46012 79.6187 6.80713C79.9995 7.15413 80.1899 7.58154 80.1899 8.08936C80.1899 8.66911 79.9741 9.15576 79.5425 9.54932C79.1151 9.93864 78.4401 10.1333 77.5176 10.1333ZM84.0049 10.1333C83.5436 10.1333 83.112 10.0868 82.71 9.99365C82.3079 9.90055 81.8805 9.75667 81.4277 9.56201L81.415 7.93066H82.3608L82.5957 8.91455C82.8327 9.01188 83.0612 9.08382 83.2812 9.13037C83.5055 9.17269 83.7467 9.19385 84.0049 9.19385C84.5127 9.19385 84.8766 9.09652 85.0967 8.90186C85.3167 8.70719 85.4268 8.46598 85.4268 8.17822C85.4268 7.90739 85.3146 7.67887 85.0903 7.49268C84.8703 7.30225 84.4683 7.14144 83.8843 7.01025C83.0549 6.81982 82.4434 6.56592 82.0498 6.24854C81.6605 5.92692 81.4658 5.49951 81.4658 4.96631C81.4658 4.59391 81.5737 4.26172 81.7896 3.96973C82.0054 3.6735 82.3058 3.43864 82.6909 3.26514C83.076 3.09163 83.5246 3.00488 84.0366 3.00488C84.5571 3.00488 85.0015 3.06413 85.3696 3.18262C85.742 3.30111 86.0658 3.4598 86.3408 3.65869L86.4043 5.22656H85.4648L85.2617 4.3125C85.1136 4.20247 84.938 4.11784 84.7349 4.05859C84.5317 3.99935 84.299 3.96973 84.0366 3.96973C83.6473 3.96973 83.3299 4.06071 83.0845 4.24268C82.8433 4.42464 82.7227 4.65316 82.7227 4.92822C82.7227 5.08903 82.7565 5.22868 82.8242 5.34717C82.8962 5.46566 83.0316 5.57357 83.2305 5.6709C83.4294 5.764 83.7214 5.8571 84.1064 5.9502C85.0628 6.17448 85.7293 6.46012 86.106 6.80713C86.4868 7.15413 86.6772 7.58154 86.6772 8.08936C86.6772 8.66911 86.4614 9.15576 86.0298 9.54932C85.6024 9.93864 84.9274 10.1333 84.0049 10.1333Z" fill="#404040"/>
</svg>
