<svg width="61" height="12" viewBox="0 0 61 12" fill="none" xmlns="http://www.w3.org/2000/svg">
<path d="M6.03174 11.1538C4.94775 11.1538 4.02734 10.9365 3.27051 10.502C2.51855 10.0674 1.94238 9.46436 1.54199 8.69287C1.14648 7.9165 0.94873 7.02051 0.94873 6.00488V5.58008C0.94873 4.51562 1.14404 3.58057 1.53467 2.7749C1.93018 1.96436 2.49658 1.32959 3.23389 0.870605C3.97607 0.411621 4.85986 0.182129 5.88525 0.182129C6.63232 0.182129 7.35498 0.289551 8.05322 0.504395C8.75635 0.719238 9.37158 1.05127 9.89893 1.50049V3.9248H8.19971L7.85547 2.5332C7.6748 2.36719 7.42822 2.23047 7.11572 2.12305C6.80322 2.01562 6.44678 1.96191 6.04639 1.96191C5.45557 1.96191 4.95264 2.11572 4.5376 2.42334C4.12744 2.72607 3.8125 3.14844 3.59277 3.69043C3.37793 4.22754 3.27051 4.85254 3.27051 5.56543V6.00488C3.27051 6.68848 3.38037 7.28418 3.6001 7.79199C3.81982 8.29492 4.13965 8.68555 4.55957 8.96387C4.97949 9.24219 5.49707 9.38135 6.1123 9.38135C6.4541 9.38135 6.77881 9.34717 7.08643 9.27881C7.39893 9.21045 7.65039 9.12988 7.84082 9.03711V7.43311L6.47119 7.30127V5.67529H10.1846V10.0405C9.66699 10.3921 9.05908 10.6655 8.36084 10.8608C7.66748 11.0562 6.89111 11.1538 6.03174 11.1538ZM11.144 11V9.61572L12.272 9.38867V1.95459L11.144 1.72754V0.335938H19.5376V3.30957H17.7578L17.6772 2.1377H14.6157V4.58398H18.124V6.39307H14.6157V9.19824H17.8311L17.9116 7.98242H19.6768V11H11.144ZM20.7241 11V9.61572L21.8374 9.38867V1.95459L20.7241 1.72754V0.335938H21.8374H24.2251L28.6929 7.4624L28.7368 7.45508V1.95459L27.3525 1.72754V0.335938H30.8242H31.9448V1.72754L30.8242 1.95459V11H28.5317L23.9688 3.9834H23.9248V9.38867L25.3164 9.61572V11H20.7241ZM32.5015 11V9.61572L33.6294 9.38867V1.95459L32.5015 1.72754V0.328613H37.6504C38.4805 0.328613 39.1958 0.460449 39.7964 0.724121C40.4019 0.98291 40.8657 1.35645 41.188 1.84473C41.5151 2.32812 41.6787 2.9043 41.6787 3.57324C41.6787 4.19824 41.5151 4.76953 41.188 5.28711C40.8657 5.7998 40.4165 6.20752 39.8403 6.51025C39.269 6.81299 38.6123 6.96436 37.8701 6.96436L35.9731 6.94971V9.38867L37.0938 9.61572V11H32.5015ZM39.313 11L37.687 6.60547L39.7671 5.99756L41.1953 9.38867L42.1548 9.61572V11H39.313ZM35.9731 5.14795H37.6431C38.2046 5.14795 38.6294 5.02588 38.9175 4.78174C39.2056 4.53271 39.3496 4.17383 39.3496 3.70508C39.3496 3.22656 39.2031 2.8457 38.9102 2.5625C38.6221 2.27441 38.2021 2.13037 37.6504 2.13037H35.9731V5.14795ZM42.8726 11V9.61572L44.0005 9.38867V1.95459L42.8726 1.72754V0.335938H51.2661V3.30957H49.4863L49.4058 2.1377H46.3442V4.58398H49.8525V6.39307H46.3442V9.19824H49.5596L49.6401 7.98242H51.4053V11H42.8726ZM56.957 11.1538C56.1318 11.1538 55.3896 11.0684 54.7305 10.8975C54.0713 10.7266 53.4194 10.4189 52.7749 9.97461V7.30127H54.584L54.811 8.77344C54.9966 8.9541 55.2847 9.10303 55.6753 9.22021C56.0659 9.3374 56.4932 9.396 56.957 9.396C57.3135 9.396 57.6138 9.34961 57.8579 9.25684C58.1021 9.15918 58.2876 9.02246 58.4146 8.84668C58.5415 8.66602 58.605 8.45361 58.605 8.20947C58.605 7.9751 58.5464 7.76758 58.4292 7.58691C58.3169 7.40137 58.1289 7.23047 57.8652 7.07422C57.6016 6.91797 57.2451 6.76416 56.7959 6.61279C55.917 6.34424 55.1919 6.06104 54.6206 5.76318C54.0542 5.46045 53.6294 5.104 53.3462 4.69385C53.0679 4.27881 52.9287 3.771 52.9287 3.17041C52.9287 2.58936 53.0923 2.0791 53.4194 1.63965C53.7515 1.19531 54.2056 0.846191 54.7817 0.592285C55.3579 0.338379 56.022 0.206543 56.7739 0.196777C57.6187 0.177246 58.3657 0.267578 59.0151 0.467773C59.6646 0.667969 60.231 0.956055 60.7144 1.33203V3.81494H58.9712L58.6782 2.37207C58.5024 2.26953 58.2583 2.1792 57.9458 2.10107C57.6382 2.02295 57.2964 1.98389 56.9204 1.98389C56.5981 1.98389 56.3125 2.03027 56.0635 2.12305C55.8193 2.21094 55.624 2.34521 55.4775 2.52588C55.3359 2.70166 55.2651 2.91895 55.2651 3.17773C55.2651 3.3877 55.3262 3.57568 55.4482 3.7417C55.5703 3.90771 55.7803 4.06885 56.0781 4.2251C56.376 4.37646 56.7886 4.54492 57.3159 4.73047C58.5073 5.07227 59.4106 5.51172 60.0259 6.04883C60.646 6.58594 60.9561 7.30127 60.9561 8.19482C60.9561 8.81494 60.7876 9.34717 60.4507 9.7915C60.1187 10.231 59.6523 10.5679 59.0518 10.8022C58.4512 11.0366 57.7529 11.1538 56.957 11.1538Z" fill="#404040"/>
</svg>
