<svg width="220" height="34" viewBox="0 0 220 34" fill="none" xmlns="http://www.w3.org/2000/svg">
<g style="mix-blend-mode:color-burn">
<path d="M3.02009 12.518C2.89876 12.4713 2.78209 12.4107 2.67009 12.336C2.56743 12.2613 2.50676 12.1587 2.48809 12.028C2.47876 11.8973 2.51609 11.7433 2.60009 11.566C2.69343 11.3793 2.78209 11.244 2.86609 11.16C2.95009 11.0667 3.09009 10.9127 3.28609 10.698C3.49143 10.4833 3.65476 10.2873 3.77609 10.11C3.90676 9.92333 4.02809 9.74133 4.14009 9.564C4.25209 9.38667 4.31276 9.18133 4.32209 8.948C4.34076 8.70533 4.26143 8.52333 4.08409 8.402C3.90676 8.27133 3.73876 8.16867 3.58009 8.094C3.52409 8.07533 3.37943 8.01467 3.14609 7.912C2.91276 7.8 2.65143 7.688 2.36209 7.576C2.21276 7.51067 2.06343 7.41267 1.91409 7.282C1.77409 7.15133 1.69476 6.97867 1.67609 6.764C1.64809 6.47467 1.69943 6.23667 1.83009 6.05C1.97009 5.86333 2.14743 5.72333 2.36209 5.63C2.39943 5.61133 2.49743 5.574 2.65609 5.518C2.82409 5.462 3.01543 5.40133 3.23009 5.336C3.44476 5.26133 3.64543 5.18667 3.83209 5.112C4.02809 5.028 4.17276 4.958 4.26609 4.902C4.39676 4.818 4.52276 4.72467 4.64409 4.622C4.77476 4.51 4.86809 4.37 4.92409 4.202C4.98009 4.034 4.97543 3.82867 4.91009 3.586C4.87276 3.43667 4.74209 3.334 4.51809 3.278C4.30343 3.222 4.10276 3.18933 3.91609 3.18C3.82276 3.17067 3.65943 3.17067 3.42609 3.18C3.20209 3.18 2.89876 3.21733 2.51609 3.292C2.35743 3.32 2.14743 3.306 1.88609 3.25C1.63409 3.194 1.38209 3.082 1.13009 2.914C0.887427 2.746 0.696094 2.51267 0.556094 2.214C0.845427 2.02733 1.10209 1.85933 1.32609 1.71C1.55009 1.55133 1.78343 1.42067 2.02609 1.318C2.26876 1.206 2.55343 1.12667 2.88009 1.08C3.65476 0.967999 4.32676 0.981999 4.89609 1.122C5.47476 1.25267 5.95076 1.45333 6.32409 1.724C6.68809 1.976 6.94476 2.25133 7.09409 2.55C7.24343 2.84867 7.32276 3.14733 7.33209 3.446C7.36009 3.94067 7.29009 4.37467 7.12209 4.748C6.96343 5.12133 6.73476 5.44333 6.43609 5.714C6.38009 5.76067 6.30543 5.83067 6.21209 5.924C6.11876 6.01733 6.03476 6.106 5.96009 6.19C5.89476 6.26467 5.85276 6.33467 5.83409 6.4C5.82476 6.46533 5.82476 6.54 5.83409 6.624C5.85276 6.78267 5.91809 6.918 6.03009 7.03C6.14209 7.13267 6.26809 7.24 6.40809 7.352C6.54809 7.464 6.66943 7.604 6.77209 7.772C6.87476 7.94 6.91676 8.164 6.89809 8.444C6.88876 8.836 6.81409 9.22333 6.67409 9.606C6.53409 9.98867 6.35676 10.3527 6.14209 10.698C5.93676 11.034 5.72209 11.342 5.49809 11.622C5.28343 11.8927 5.08276 12.112 4.89609 12.28C4.77476 12.392 4.54609 12.4947 4.21009 12.588C3.88343 12.6907 3.48676 12.6673 3.02009 12.518ZM23.2759 2.214C23.2946 2.37267 23.3039 2.64333 23.3039 3.026C23.3132 3.39933 23.3179 3.84733 23.3179 4.37C23.3179 4.89267 23.3179 5.44333 23.3179 6.022C23.3179 6.60067 23.3132 7.17467 23.3039 7.744C23.3039 8.31333 23.2992 8.83133 23.2899 9.298C23.2899 9.76467 23.2899 10.1473 23.2899 10.446C23.2899 10.7353 23.2946 10.8987 23.3039 10.936C23.3226 11.0107 23.3086 11.132 23.2619 11.3C23.2152 11.4587 23.1406 11.6127 23.0379 11.762C22.9352 11.902 22.8046 11.986 22.6459 12.014C22.4966 12.0513 22.2866 12.0513 22.0159 12.014C21.7546 11.986 21.4886 11.916 21.2179 11.804C20.9566 11.6827 20.7466 11.51 20.5879 11.286C20.4946 11.1553 20.3499 10.9687 20.1539 10.726C19.9672 10.474 19.7572 10.2033 19.5239 9.914C19.2999 9.61533 19.0759 9.33067 18.8519 9.06C18.6372 8.78 18.4552 8.542 18.3059 8.346C18.1566 8.14067 18.0632 8.01467 18.0259 7.968C17.9419 7.83733 17.8019 7.70667 17.6059 7.576C17.4192 7.436 17.2699 7.38467 17.1579 7.422C17.0459 7.45933 16.9619 7.576 16.9059 7.772C16.8499 7.95867 16.8126 8.15933 16.7939 8.374C16.7752 8.514 16.7659 8.72867 16.7659 9.018C16.7659 9.298 16.7659 9.58733 16.7659 9.886C16.7752 10.1847 16.7752 10.4273 16.7659 10.614C16.7566 10.9407 16.8592 11.2533 17.0739 11.552C16.9992 11.5987 16.8499 11.6733 16.6259 11.776C16.4019 11.8693 16.1639 11.9533 15.9119 12.028C15.6599 12.1027 15.4452 12.1353 15.2679 12.126C14.9692 12.1073 14.7032 11.9533 14.4699 11.664C14.2459 11.3747 14.1292 11.0153 14.1199 10.586C14.1199 10.502 14.1152 10.2687 14.1059 9.886C14.1059 9.494 14.1012 9.00867 14.0919 8.43C14.0919 7.85133 14.0919 7.226 14.0919 6.554C14.0919 5.882 14.0872 5.21933 14.0779 4.566C14.0779 3.90333 14.0732 3.30133 14.0639 2.76C14.0639 2.20933 14.0639 1.77067 14.0639 1.444C14.0639 1.11733 14.0639 0.954 14.0639 0.954C14.6332 0.935333 15.1139 0.977333 15.5059 1.08C15.8979 1.18267 16.2246 1.36933 16.4859 1.64C16.5979 1.74267 16.7612 1.92467 16.9759 2.186C17.1906 2.44733 17.4239 2.746 17.6759 3.082C17.9372 3.40867 18.1892 3.73533 18.4319 4.062C18.6839 4.38867 18.9032 4.678 19.0899 4.93C19.2766 5.17267 19.3979 5.33133 19.4539 5.406C19.6032 5.59267 19.7526 5.742 19.9019 5.854C20.0606 5.95667 20.1912 5.98933 20.2939 5.952C20.5179 5.87733 20.6299 5.56467 20.6299 5.014L20.6019 0.954C20.7046 0.935333 20.8819 0.930666 21.1339 0.94C21.3952 0.949333 21.6706 0.991333 21.9599 1.066C22.2772 1.14067 22.5666 1.26667 22.8279 1.444C23.0892 1.62133 23.2386 1.878 23.2759 2.214ZM26.0089 3.67C25.6915 3.67933 25.4069 3.59067 25.1549 3.404C24.9122 3.21733 24.7255 2.98867 24.5949 2.718C24.4735 2.438 24.4269 2.172 24.4549 1.92C24.5015 1.53733 24.6742 1.26667 24.9729 1.108C25.2715 0.949333 25.5842 0.865333 25.9109 0.855999C26.3775 0.837333 26.7415 0.958666 27.0029 1.22C27.2642 1.48133 27.3949 1.78 27.3949 2.116C27.3949 2.34 27.3435 2.56867 27.2409 2.802C27.1475 3.03533 26.9982 3.236 26.7929 3.404C26.5875 3.56267 26.3262 3.65133 26.0089 3.67ZM27.4929 10.586C27.5022 10.754 27.5535 10.8987 27.6469 11.02C27.7495 11.132 27.8709 11.2393 28.0109 11.342C27.9455 11.426 27.8615 11.5147 27.7589 11.608C27.6562 11.7013 27.5022 11.79 27.2969 11.874C27.1009 11.9487 26.8162 12.0093 26.4429 12.056C26.3215 12.0653 26.1675 12.0513 25.9809 12.014C25.7942 11.986 25.6075 11.8973 25.4209 11.748C25.2435 11.5893 25.0989 11.342 24.9869 11.006C24.8749 10.6607 24.8282 10.1893 24.8469 9.592C24.8562 9.48933 24.8562 9.28867 24.8469 8.99C24.8469 8.69133 24.8422 8.33667 24.8329 7.926C24.8329 7.51533 24.8282 7.09067 24.8189 6.652C24.8189 6.21333 24.8142 5.80733 24.8049 5.434C24.8049 5.05133 24.8002 4.74333 24.7909 4.51C24.7909 4.26733 24.7909 4.146 24.7909 4.146C24.8749 4.13667 25.0149 4.12733 25.2109 4.118C25.4162 4.09933 25.6402 4.09933 25.8829 4.118C26.1255 4.13667 26.3589 4.18333 26.5829 4.258C26.8162 4.32333 27.0122 4.43067 27.1709 4.58C27.3389 4.72933 27.4369 4.93 27.4649 5.182C27.5115 5.53667 27.5302 6.01267 27.5209 6.61C27.5115 7.198 27.4975 7.842 27.4789 8.542C27.4602 9.23267 27.4649 9.914 27.4929 10.586ZM36.7463 3.88C36.765 4.30933 36.7696 4.72467 36.7603 5.126C36.7603 5.518 36.7603 5.812 36.7603 6.008C36.7603 6.11067 36.7603 6.35333 36.7603 6.736C36.7696 7.11867 36.7743 7.58067 36.7743 8.122C36.7836 8.66333 36.7836 9.22333 36.7743 9.802C36.765 10.3807 36.7416 10.9173 36.7043 11.412C36.667 11.9533 36.5503 12.4293 36.3543 12.84C36.1676 13.2507 35.8923 13.554 35.5283 13.75C35.1643 13.946 34.6976 14.002 34.1283 13.918C33.699 13.8527 33.3723 13.722 33.1483 13.526C32.9336 13.33 32.7936 13.1013 32.7283 12.84C32.6723 12.588 32.6723 12.3267 32.7283 12.056C32.7936 11.7947 32.887 11.5613 33.0083 11.356C33.0923 11.4587 33.2043 11.5707 33.3443 11.692C33.4936 11.804 33.6523 11.8927 33.8203 11.958C33.9976 12.014 34.1656 12.0233 34.3243 11.986C34.427 11.958 34.5063 11.9067 34.5623 11.832C34.6183 11.748 34.637 11.65 34.6183 11.538C34.5996 11.426 34.4643 11.3 34.2123 11.16C33.9696 11.0107 33.6523 10.9453 33.2603 10.964C33.111 10.9733 32.9943 10.9827 32.9103 10.992C32.8263 11.0013 32.7283 11.006 32.6163 11.006C31.9723 11.006 31.3796 10.8753 30.8383 10.614C30.297 10.3527 29.8676 9.95133 29.5503 9.41C29.233 8.86867 29.093 8.178 29.1303 7.338C29.1583 6.79667 29.289 6.31133 29.5223 5.882C29.7556 5.44333 30.0543 5.07467 30.4183 4.776C30.7916 4.468 31.1836 4.23933 31.5943 4.09C32.0143 3.93133 32.4203 3.866 32.8123 3.894C32.859 3.894 32.9523 3.908 33.0923 3.936C33.2323 3.964 33.3723 3.992 33.5123 4.02C33.6523 4.03867 33.7456 4.05267 33.7923 4.062C34.119 4.118 34.483 4.12733 34.8843 4.09C35.295 4.04333 35.645 3.992 35.9343 3.936C36.121 3.908 36.303 3.894 36.4803 3.894C36.6576 3.88467 36.7463 3.88 36.7463 3.88ZM32.5883 6.33C32.215 6.36733 31.935 6.50733 31.7483 6.75C31.571 6.99267 31.5243 7.296 31.6083 7.66C31.6456 7.828 31.7343 7.996 31.8743 8.164C32.0236 8.32267 32.201 8.44867 32.4063 8.542C32.6116 8.63533 32.817 8.67267 33.0223 8.654C33.2276 8.63533 33.4096 8.60267 33.5683 8.556C33.727 8.5 33.853 8.388 33.9463 8.22C34.0396 8.052 34.0863 7.786 34.0863 7.422C34.0863 7.058 34.0116 6.79667 33.8623 6.638C33.7223 6.47 33.5356 6.372 33.3023 6.344C33.0783 6.30667 32.8403 6.302 32.5883 6.33ZM45.4817 10.222C45.491 10.39 45.519 10.5673 45.5657 10.754C45.6217 10.9313 45.7523 11.062 45.9577 11.146C45.8363 11.3047 45.6217 11.482 45.3137 11.678C45.0057 11.8647 44.6743 11.986 44.3197 12.042C43.993 12.0887 43.7177 12.0513 43.4937 11.93C43.279 11.7993 43.1157 11.6127 43.0037 11.37C42.901 11.1273 42.845 10.866 42.8357 10.586C42.8357 10.5113 42.8403 10.3573 42.8497 10.124C42.859 9.88133 42.8637 9.606 42.8637 9.298C42.8637 8.99 42.859 8.696 42.8497 8.416C42.8497 8.136 42.8357 7.91667 42.8077 7.758C42.7517 7.45 42.6397 7.27733 42.4717 7.24C42.313 7.19333 42.131 7.23067 41.9257 7.352C41.599 7.53867 41.3283 7.87 41.1137 8.346C40.9083 8.81267 40.801 9.41 40.7917 10.138C40.7823 10.4273 40.8197 10.6373 40.9037 10.768C40.9877 10.8893 41.0297 10.95 41.0297 10.95C41.0297 10.95 40.983 11.0293 40.8897 11.188C40.7963 11.3467 40.6283 11.5193 40.3857 11.706C40.143 11.8833 39.7883 12.0093 39.3217 12.084C39.0603 12.1213 38.8457 12.0747 38.6777 11.944C38.5097 11.804 38.3883 11.608 38.3137 11.356C38.239 11.104 38.197 10.838 38.1877 10.558L38.1457 2.424C38.1363 2.04133 38.0943 1.70533 38.0197 1.416C37.945 1.11733 37.9077 0.967999 37.9077 0.967999C38.141 0.94 38.4117 0.930666 38.7197 0.94C39.037 0.949333 39.345 0.996 39.6437 1.08C39.9517 1.15467 40.213 1.28533 40.4277 1.472C40.6423 1.65867 40.7683 1.91067 40.8057 2.228C40.815 2.29333 40.8243 2.41933 40.8337 2.606C40.8523 2.78333 40.8617 2.96533 40.8617 3.152C40.8523 3.41333 40.8897 3.63267 40.9737 3.81C41.0577 3.98733 41.1697 4.12267 41.3097 4.216C41.4683 4.30933 41.669 4.342 41.9117 4.314C42.1543 4.27667 42.369 4.22533 42.5557 4.16C42.7423 4.08533 42.8963 4.02933 43.0177 3.992C43.1483 3.95467 43.2837 3.92667 43.4237 3.908C43.5823 3.88933 43.769 3.89867 43.9837 3.936C44.1983 3.964 44.4083 4.034 44.6137 4.146C44.8283 4.258 45.0103 4.41667 45.1597 4.622C45.3183 4.82733 45.4163 5.08867 45.4537 5.406C45.519 5.94733 45.533 6.61 45.4957 7.394C45.4677 8.16867 45.463 9.11133 45.4817 10.222ZM52.4709 4.23C52.5643 4.32333 52.6343 4.496 52.6809 4.748C52.7369 4.99067 52.7509 5.26133 52.7229 5.56C52.7043 5.84933 52.6343 6.11533 52.5129 6.358C52.4009 6.59133 52.2283 6.75 51.9949 6.834C51.6309 6.96467 51.3649 7.198 51.1969 7.534C51.0289 7.87 50.9309 8.29467 50.9029 8.808V9.998C50.9216 10.1473 50.9823 10.2687 51.0849 10.362C51.1969 10.4553 51.3043 10.5207 51.4069 10.558C51.5189 10.5953 51.5749 10.614 51.5749 10.614C51.5749 10.614 51.5563 10.6793 51.5189 10.81C51.4909 10.9407 51.4349 11.0947 51.3509 11.272C51.2669 11.4493 51.1456 11.622 50.9869 11.79C50.8283 11.9487 50.6229 12.0607 50.3709 12.126C50.2403 12.154 50.0629 12.1587 49.8389 12.14C49.6243 12.1307 49.4049 12.0887 49.1809 12.014C48.9569 11.9393 48.7703 11.8367 48.6209 11.706C48.5369 11.6313 48.4669 11.552 48.4109 11.468C48.3549 11.384 48.3129 11.258 48.2849 11.09C48.2663 10.922 48.2569 10.684 48.2569 10.376V8.878C48.2476 8.33667 48.1309 7.88867 47.9069 7.534C47.6829 7.17 47.3889 6.85733 47.0249 6.596C46.8569 6.47467 46.7356 6.27867 46.6609 6.008C46.5956 5.728 46.5536 5.434 46.5349 5.126C46.5163 4.818 46.5116 4.55667 46.5209 4.342C46.5676 4.35133 46.6936 4.37 46.8989 4.398C47.1043 4.426 47.2816 4.44 47.4309 4.44C47.7296 4.43067 47.9349 4.314 48.0469 4.09C48.1589 3.866 48.2149 3.586 48.2149 3.25L48.2009 2.004C48.2849 1.99467 48.4249 1.98533 48.6209 1.976C48.8263 1.95733 49.0503 1.95733 49.2929 1.976C49.5356 1.99467 49.7689 2.04133 49.9929 2.116C50.2263 2.18133 50.4223 2.28867 50.5809 2.438C50.7489 2.58733 50.8469 2.788 50.8749 3.04C50.8749 3.068 50.8749 3.10533 50.8749 3.152C50.8843 3.18933 50.8889 3.236 50.8889 3.292H50.9029C50.9029 3.41333 50.9169 3.558 50.9449 3.726C50.9823 3.894 51.0336 4.034 51.0989 4.146C51.1643 4.23933 51.2669 4.30933 51.4069 4.356C51.5469 4.39333 51.6823 4.41667 51.8129 4.426C51.9529 4.426 52.0556 4.41667 52.1209 4.398C52.2236 4.37 52.2983 4.34667 52.3449 4.328C52.3916 4.3 52.4336 4.26733 52.4709 4.23ZM57.0929 3.866C57.7836 3.866 58.3716 3.964 58.8569 4.16C59.3516 4.356 59.7296 4.59867 59.9909 4.888C60.2522 5.17733 60.3782 5.462 60.3689 5.742C60.3689 5.89133 60.3036 6.05933 60.1729 6.246C60.0422 6.43267 59.8696 6.59133 59.6549 6.722C59.4496 6.84333 59.2209 6.89 58.9689 6.862C59.0342 6.694 58.9922 6.53533 58.8429 6.386C58.6936 6.23667 58.4789 6.11533 58.1989 6.022C57.9189 5.91933 57.6156 5.86333 57.2889 5.854C56.9156 5.83533 56.6636 5.87733 56.5329 5.98C56.4022 6.07333 56.3276 6.176 56.3089 6.288C56.2809 6.40933 56.3369 6.51667 56.4769 6.61C56.6169 6.694 56.7989 6.77333 57.0229 6.848C57.2562 6.91333 57.4989 6.974 57.7509 7.03C58.0122 7.07667 58.2502 7.11867 58.4649 7.156C58.6889 7.19333 58.8616 7.23067 58.9829 7.268C59.5429 7.436 59.9536 7.65533 60.2149 7.926C60.4762 8.18733 60.6442 8.46733 60.7189 8.766C60.8029 9.06467 60.8356 9.35867 60.8169 9.648C60.7982 10.1147 60.6769 10.5067 60.4529 10.824C60.2382 11.132 59.9676 11.3793 59.6409 11.566C59.3236 11.7527 58.9876 11.8927 58.6329 11.986C58.2876 12.07 57.9609 12.126 57.6529 12.154C57.3542 12.182 57.1256 12.196 56.9669 12.196C56.4816 12.1867 56.0242 12.1353 55.5949 12.042C55.1749 11.958 54.8109 11.846 54.5029 11.706C54.2042 11.566 53.9896 11.4167 53.8589 11.258C53.7656 11.146 53.6769 10.9873 53.5929 10.782C53.5089 10.5767 53.4576 10.3573 53.4389 10.124C53.4296 9.88133 53.4809 9.65267 53.5929 9.438C53.7049 9.214 53.9102 9.032 54.2089 8.892C54.2649 9.07867 54.4142 9.24667 54.6569 9.396C54.9089 9.54533 55.2076 9.66667 55.5529 9.76C55.9076 9.85333 56.2576 9.91867 56.6029 9.956C56.9389 9.984 57.2562 9.97933 57.5549 9.942C57.8536 9.90467 58.0169 9.79733 58.0449 9.62C58.0636 9.52667 58.0169 9.43333 57.9049 9.34C57.7929 9.24667 57.5876 9.16733 57.2889 9.102C56.9716 9.02733 56.6916 8.97133 56.4489 8.934C56.2156 8.88733 55.9822 8.836 55.7489 8.78C55.3102 8.668 54.9276 8.49067 54.6009 8.248C54.2742 8.00533 54.0269 7.716 53.8589 7.38C53.7002 7.03467 53.6442 6.67067 53.6909 6.288C53.7656 5.73733 53.9662 5.28467 54.2929 4.93C54.6289 4.57533 55.0442 4.30933 55.5389 4.132C56.0336 3.95467 56.5516 3.866 57.0929 3.866ZM75.3043 7.73C75.3883 8.514 75.3276 9.186 75.1223 9.746C74.9169 10.306 74.6136 10.768 74.2123 11.132C73.8203 11.496 73.3769 11.7667 72.8823 11.944C72.3969 12.112 71.9116 12.196 71.4263 12.196C70.9503 12.196 70.4649 12.112 69.9703 11.944C69.4849 11.7667 69.0463 11.496 68.6543 11.132C68.2716 10.768 67.9729 10.306 67.7583 9.746C67.5529 9.186 67.4923 8.514 67.5763 7.73C67.6603 7.01133 67.8749 6.38133 68.2203 5.84C68.5749 5.29867 69.0229 4.874 69.5643 4.566C70.1149 4.24867 70.7169 4.07133 71.3703 4.034C71.4076 4.02467 71.4449 3.99667 71.4823 3.95C71.5289 3.894 71.6036 3.84733 71.7063 3.81C71.8183 3.76333 71.9863 3.74933 72.2103 3.768C72.7423 3.91733 73.2276 4.174 73.6663 4.538C74.1049 4.902 74.4689 5.35467 74.7583 5.896C75.0569 6.43733 75.2389 7.04867 75.3043 7.73ZM71.3003 9.956C71.5989 9.956 71.8556 9.886 72.0703 9.746C72.2849 9.606 72.4576 9.42867 72.5883 9.214C72.7189 8.99 72.8123 8.75667 72.8683 8.514C72.9336 8.27133 72.9663 8.052 72.9663 7.856C72.9663 7.45467 72.9009 7.142 72.7703 6.918C72.6396 6.694 72.3409 6.49333 71.8743 6.316C71.7436 6.26 71.6549 6.18533 71.6083 6.092C71.5616 5.99867 71.4916 5.94733 71.3983 5.938C71.0903 5.90067 70.8289 5.98467 70.6143 6.19C70.3996 6.39533 70.2363 6.67067 70.1243 7.016C70.0123 7.36133 69.9563 7.73467 69.9563 8.136C69.9563 8.53733 70.0309 8.87333 70.1803 9.144C70.3389 9.41467 70.5209 9.62 70.7263 9.76C70.9409 9.89067 71.1323 9.956 71.3003 9.956ZM80.9701 4.482C81.1475 4.46333 81.3201 4.43533 81.4881 4.398C81.6561 4.35133 81.7728 4.29533 81.8381 4.23C81.9315 4.32333 82.0015 4.496 82.0481 4.748C82.1041 4.99067 82.1181 5.25667 82.0901 5.546C82.0715 5.83533 82.0015 6.10133 81.8801 6.344C81.7681 6.58667 81.5955 6.75 81.3621 6.834C81.2408 6.87133 81.1335 6.918 81.0401 6.974C80.9468 7.02067 80.8721 7.10467 80.8161 7.226C80.7228 7.422 80.6435 7.66933 80.5781 7.968C80.5128 8.26667 80.4848 8.60267 80.4941 8.976C80.4941 8.976 80.4941 9.06467 80.4941 9.242C80.5035 9.41 80.5081 9.62 80.5081 9.872C80.5081 10.1147 80.4988 10.3527 80.4801 10.586C80.4708 10.8193 80.4475 11.0013 80.4101 11.132C80.2608 11.58 79.9575 11.9253 79.5001 12.168C79.0428 12.4107 78.3568 12.4713 77.4421 12.35C77.5168 12.2193 77.5775 12.0047 77.6241 11.706C77.6708 11.4073 77.7081 11.0807 77.7361 10.726C77.7641 10.3713 77.7735 10.054 77.7641 9.774C77.7641 9.718 77.7595 9.606 77.7501 9.438C77.7408 9.27 77.7315 9.06 77.7221 8.808C77.6661 8.22933 77.5121 7.72533 77.2601 7.296C77.1948 7.19333 77.0735 7.072 76.8961 6.932C76.7281 6.792 76.5788 6.68 76.4481 6.596C76.2801 6.49333 76.1541 6.302 76.0701 6.022C75.9861 5.742 75.9301 5.448 75.9021 5.14C75.8835 4.82267 75.8788 4.55667 75.8881 4.342C75.9161 4.35133 75.9861 4.36533 76.0981 4.384C76.2101 4.40267 76.3315 4.41667 76.4621 4.426C76.5928 4.43533 76.6955 4.44 76.7701 4.44C76.9941 4.42133 77.1761 4.33267 77.3161 4.174C77.4561 4.01533 77.5261 3.77267 77.5261 3.446C77.5261 3.07267 77.5821 2.704 77.6941 2.34C77.8155 1.976 78.0068 1.66333 78.2681 1.402C78.5388 1.13133 78.8935 0.954 79.3321 0.87C79.6308 0.813999 79.9481 0.771999 80.2841 0.744C80.6295 0.716 80.9561 0.697333 81.2641 0.688C81.5721 0.678666 81.8195 0.674 82.0061 0.674C82.2021 0.674 82.3001 0.674 82.3001 0.674C82.3001 0.674 82.3001 0.772 82.3001 0.967999C82.3001 1.15467 82.2768 1.37867 82.2301 1.64C82.1928 1.90133 82.1135 2.14867 81.9921 2.382C81.8801 2.606 81.7075 2.75533 81.4741 2.83C81.1288 2.942 80.8488 3.124 80.6341 3.376C80.4288 3.628 80.3308 3.852 80.3401 4.048C80.3401 4.25333 80.4008 4.384 80.5221 4.44C80.6435 4.48667 80.7928 4.50067 80.9701 4.482ZM95.6488 0.87C96.3395 0.972666 96.8855 1.15933 97.2868 1.43C97.6975 1.69133 98.0008 1.99467 98.1968 2.34C98.3928 2.68533 98.5188 3.026 98.5748 3.362C98.6308 3.68867 98.6588 3.96867 98.6588 4.202C98.6588 4.50067 98.6075 4.846 98.5048 5.238C98.4021 5.62067 98.2295 5.99867 97.9868 6.372C97.7535 6.736 97.4408 7.05333 97.0488 7.324C96.6568 7.58533 96.1668 7.744 95.5788 7.8C95.4761 7.80933 95.3455 7.81867 95.1868 7.828C95.0281 7.83733 94.8835 7.84667 94.7528 7.856C94.6315 7.856 94.5568 7.856 94.5288 7.856C94.1741 7.87467 93.8475 7.97733 93.5488 8.164C93.2595 8.35067 93.0261 8.59333 92.8488 8.892C92.6808 9.18133 92.5921 9.508 92.5828 9.872V10.39C92.5828 10.6327 92.6155 10.8567 92.6808 11.062C92.7461 11.258 92.7975 11.3933 92.8348 11.468C92.6108 11.6733 92.4148 11.818 92.2468 11.902C92.0788 11.986 91.8688 12.0467 91.6168 12.084C91.4115 12.112 91.1828 12.0933 90.9308 12.028C90.6881 11.9627 90.4688 11.8413 90.2728 11.664C90.0768 11.4773 89.9508 11.2207 89.8948 10.894C89.8855 10.838 89.8808 10.6607 89.8808 10.362C89.8808 10.054 89.8808 9.676 89.8808 9.228C89.8901 8.77067 89.8948 8.27133 89.8948 7.73C89.9041 7.18867 89.9088 6.64733 89.9088 6.106C89.9088 5.56467 89.9088 5.06067 89.9088 4.594C89.8995 4.09 89.8761 3.66533 89.8388 3.32C89.8108 2.97467 89.7408 2.75533 89.6288 2.662C89.4328 2.494 89.2788 2.23267 89.1668 1.878C89.0641 1.52333 89.0175 1.18733 89.0268 0.87C89.0641 0.879333 89.1668 0.893333 89.3348 0.911999C89.5028 0.921333 89.6801 0.935333 89.8668 0.954C89.9601 0.954 90.1141 0.954 90.3288 0.954C90.5435 0.944666 90.7768 0.930666 91.0288 0.911999C91.2901 0.893333 91.5421 0.879333 91.7848 0.87C92.0275 0.851333 92.2235 0.837333 92.3728 0.827999C92.5781 0.809333 92.8488 0.790666 93.1848 0.771999C93.5301 0.753333 93.9175 0.748666 94.3468 0.758C94.7761 0.767333 95.2101 0.804666 95.6488 0.87ZM93.9828 5.238C94.1135 5.24733 94.2768 5.238 94.4728 5.21C94.6781 5.17267 94.8835 5.11667 95.0888 5.042C95.3035 4.96733 95.4808 4.86467 95.6208 4.734C95.7608 4.594 95.8308 4.426 95.8308 4.23C95.8308 3.95933 95.7281 3.74933 95.5228 3.6C95.3268 3.45067 95.0841 3.348 94.7948 3.292C94.5148 3.236 94.2441 3.21267 93.9828 3.222C93.6001 3.23133 93.2735 3.33867 93.0028 3.544C92.7321 3.74 92.5968 3.97333 92.5968 4.244C92.6061 4.42133 92.6761 4.58467 92.8068 4.734C92.9468 4.874 93.1195 4.99067 93.3248 5.084C93.5395 5.17733 93.7588 5.22867 93.9828 5.238ZM104.267 3.894C104.454 3.84733 104.626 3.894 104.785 4.034C104.944 4.174 105.084 4.36533 105.205 4.608C105.336 4.84133 105.443 5.084 105.527 5.336C105.611 5.57867 105.676 5.784 105.723 5.952C105.77 6.12 105.793 6.204 105.793 6.204C105.793 6.204 105.681 6.22733 105.457 6.274C105.242 6.31133 104.972 6.39067 104.645 6.512C104.328 6.624 104.01 6.79667 103.693 7.03C103.506 7.17 103.329 7.338 103.161 7.534C102.993 7.73 102.848 7.982 102.727 8.29C102.606 8.58867 102.517 8.98533 102.461 9.48C102.433 9.732 102.428 9.99333 102.447 10.264C102.466 10.5347 102.475 10.7633 102.475 10.95C102.484 11.118 102.508 11.2393 102.545 11.314C102.592 11.3793 102.629 11.4353 102.657 11.482C102.536 11.594 102.312 11.72 101.985 11.86C101.668 11.9907 101.318 12.056 100.935 12.056C100.562 12.056 100.286 11.9347 100.109 11.692C99.9316 11.4493 99.8429 11.1133 99.8429 10.684C99.8429 10.5813 99.8382 10.3573 99.8289 10.012C99.8289 9.65733 99.8242 9.23267 99.8149 8.738C99.8149 8.24333 99.8102 7.73 99.8009 7.198C99.8009 6.666 99.7962 6.17133 99.7869 5.714C99.7869 5.24733 99.7822 4.86933 99.7729 4.58C99.7729 4.29067 99.7729 4.146 99.7729 4.146C99.8662 4.12733 100.025 4.11333 100.249 4.104C100.482 4.09467 100.734 4.104 101.005 4.132C101.276 4.16 101.528 4.22533 101.761 4.328C101.873 4.37467 102.022 4.42133 102.209 4.468C102.405 4.50533 102.592 4.524 102.769 4.524C102.956 4.524 103.091 4.496 103.175 4.44C103.352 4.30933 103.53 4.19733 103.707 4.104C103.894 4.01067 104.08 3.94067 104.267 3.894ZM113.268 8.486C113.502 8.64467 113.651 8.87333 113.716 9.172C113.791 9.46133 113.782 9.77867 113.688 10.124C113.604 10.4693 113.432 10.8007 113.17 11.118C112.909 11.426 112.554 11.6827 112.106 11.888C111.668 12.0933 111.136 12.2007 110.51 12.21C109.988 12.2193 109.474 12.154 108.97 12.014C108.476 11.874 108.023 11.6593 107.612 11.37C107.211 11.0807 106.884 10.7073 106.632 10.25C106.38 9.79267 106.24 9.24667 106.212 8.612C106.203 8.48133 106.203 8.346 106.212 8.206C106.222 8.066 106.231 7.92133 106.24 7.772C106.24 7.73467 106.24 7.69733 106.24 7.66C106.25 7.62267 106.259 7.58533 106.268 7.548C106.362 6.988 106.553 6.47467 106.842 6.008C107.141 5.54133 107.505 5.14467 107.934 4.818C108.364 4.49133 108.821 4.25333 109.306 4.104C109.801 3.94533 110.286 3.88933 110.762 3.936C111.5 4.01067 112.069 4.20667 112.47 4.524C112.881 4.84133 113.147 5.23333 113.268 5.7C113.399 6.15733 113.404 6.652 113.282 7.184C113.217 7.44533 113.068 7.70667 112.834 7.968C112.61 8.22 112.33 8.44867 111.994 8.654C111.658 8.85 111.299 9.004 110.916 9.116C110.543 9.21867 110.179 9.26067 109.824 9.242C109.647 9.23267 109.554 9.28867 109.544 9.41C109.535 9.522 109.586 9.648 109.698 9.788C109.81 9.91867 109.96 10.0073 110.146 10.054C110.585 10.1473 110.996 10.152 111.378 10.068C111.77 9.97467 112.069 9.84867 112.274 9.69C112.442 9.55933 112.62 9.38667 112.806 9.172C112.993 8.948 113.147 8.71933 113.268 8.486ZM110.202 7.072C110.417 7.05333 110.604 6.988 110.762 6.876C110.93 6.75467 111.014 6.62867 111.014 6.498C111.024 6.31133 110.977 6.162 110.874 6.05C110.781 5.92867 110.618 5.87267 110.384 5.882C110.123 5.89133 109.871 5.92867 109.628 5.994C109.386 6.05933 109.241 6.19467 109.194 6.4C109.166 6.54 109.208 6.66133 109.32 6.764C109.432 6.86667 109.572 6.946 109.74 7.002C109.908 7.04867 110.062 7.072 110.202 7.072ZM125.072 10.222C125.081 10.334 125.109 10.474 125.156 10.642C125.212 10.8007 125.263 10.9453 125.31 11.076C125.366 11.2067 125.394 11.272 125.394 11.272C125.347 11.328 125.249 11.4307 125.1 11.58C124.951 11.7293 124.759 11.8647 124.526 11.986C124.302 12.098 124.045 12.1307 123.756 12.084C123.243 11.9907 122.893 11.776 122.706 11.44C122.529 11.104 122.435 10.7213 122.426 10.292C122.426 10.2173 122.431 10.0727 122.44 9.858C122.449 9.64333 122.454 9.40533 122.454 9.144C122.463 8.87333 122.463 8.62133 122.454 8.388C122.454 8.14533 122.435 7.968 122.398 7.856C122.342 7.64133 122.258 7.51067 122.146 7.464C122.034 7.41733 121.917 7.42667 121.796 7.492C121.675 7.548 121.572 7.64133 121.488 7.772C121.404 7.90267 121.362 8.04267 121.362 8.192C121.353 8.42533 121.348 8.626 121.348 8.794C121.348 8.962 121.353 9.18133 121.362 9.452C121.362 9.51733 121.371 9.63867 121.39 9.816C121.409 9.99333 121.432 10.194 121.46 10.418C121.488 10.642 121.516 10.8613 121.544 11.076C121.581 11.2813 121.619 11.4493 121.656 11.58C121.423 11.748 121.147 11.888 120.83 12C120.522 12.112 120.125 12.112 119.64 12C119.388 11.944 119.201 11.8273 119.08 11.65C118.959 11.4727 118.875 11.2673 118.828 11.034C118.791 10.7913 118.772 10.544 118.772 10.292C118.772 10.04 118.772 9.80667 118.772 9.592C118.772 9.48933 118.777 9.326 118.786 9.102C118.805 8.878 118.814 8.64467 118.814 8.402C118.814 8.15 118.791 7.94933 118.744 7.8C118.707 7.67867 118.646 7.604 118.562 7.576C118.487 7.53867 118.422 7.52467 118.366 7.534C118.217 7.54333 118.086 7.58533 117.974 7.66C117.871 7.73467 117.801 7.88867 117.764 8.122C117.745 8.234 117.731 8.42067 117.722 8.682C117.722 8.934 117.722 9.20467 117.722 9.494C117.722 9.774 117.722 10.0213 117.722 10.236C117.731 10.4507 117.741 10.5767 117.75 10.614C117.778 10.7447 117.834 10.8427 117.918 10.908C118.002 10.964 118.044 10.992 118.044 10.992C118.044 10.992 117.993 11.0527 117.89 11.174C117.797 11.286 117.666 11.4167 117.498 11.566C117.33 11.7153 117.134 11.846 116.91 11.958C116.686 12.0607 116.443 12.098 116.182 12.07C115.93 12.0513 115.692 11.9207 115.468 11.678C115.253 11.4353 115.141 11.0993 115.132 10.67L115.09 5.294C115.081 4.958 115.043 4.68267 114.978 4.468C114.922 4.25333 114.894 4.146 114.894 4.146C114.987 4.12733 115.155 4.11333 115.398 4.104C115.641 4.09467 115.911 4.104 116.21 4.132C116.509 4.15067 116.779 4.216 117.022 4.328C117.171 4.39333 117.339 4.42133 117.526 4.412C117.722 4.39333 117.89 4.342 118.03 4.258C118.189 4.174 118.347 4.09933 118.506 4.034C118.674 3.96867 118.842 3.92667 119.01 3.908C119.206 3.88933 119.444 3.908 119.724 3.964C120.004 4.02 120.293 4.12267 120.592 4.272C120.779 4.36533 120.998 4.43067 121.25 4.468C121.502 4.50533 121.675 4.49133 121.768 4.426C121.955 4.29533 122.151 4.18333 122.356 4.09C122.571 3.99667 122.785 3.936 123 3.908C123.159 3.88933 123.345 3.89867 123.56 3.936C123.784 3.964 123.999 4.034 124.204 4.146C124.419 4.258 124.601 4.41667 124.75 4.622C124.909 4.82733 125.007 5.08867 125.044 5.406C125.072 5.67667 125.086 6.03133 125.086 6.47C125.095 6.89933 125.095 7.35667 125.086 7.842C125.077 8.318 125.067 8.77067 125.058 9.2C125.058 9.62 125.063 9.96067 125.072 10.222ZM128.083 3.67C127.766 3.67933 127.481 3.59067 127.229 3.404C126.986 3.21733 126.8 2.98867 126.669 2.718C126.548 2.438 126.501 2.172 126.529 1.92C126.576 1.53733 126.748 1.26667 127.047 1.108C127.346 0.949333 127.658 0.865333 127.985 0.855999C128.452 0.837333 128.816 0.958666 129.077 1.22C129.338 1.48133 129.469 1.78 129.469 2.116C129.469 2.34 129.418 2.56867 129.315 2.802C129.222 3.03533 129.072 3.236 128.867 3.404C128.662 3.56267 128.4 3.65133 128.083 3.67ZM129.567 10.586C129.576 10.754 129.628 10.8987 129.721 11.02C129.824 11.132 129.945 11.2393 130.085 11.342C130.02 11.426 129.936 11.5147 129.833 11.608C129.73 11.7013 129.576 11.79 129.371 11.874C129.175 11.9487 128.89 12.0093 128.517 12.056C128.396 12.0653 128.242 12.0513 128.055 12.014C127.868 11.986 127.682 11.8973 127.495 11.748C127.318 11.5893 127.173 11.342 127.061 11.006C126.949 10.6607 126.902 10.1893 126.921 9.592C126.93 9.48933 126.93 9.28867 126.921 8.99C126.921 8.69133 126.916 8.33667 126.907 7.926C126.907 7.51533 126.902 7.09067 126.893 6.652C126.893 6.21333 126.888 5.80733 126.879 5.434C126.879 5.05133 126.874 4.74333 126.865 4.51C126.865 4.26733 126.865 4.146 126.865 4.146C126.949 4.13667 127.089 4.12733 127.285 4.118C127.49 4.09933 127.714 4.09933 127.957 4.118C128.2 4.13667 128.433 4.18333 128.657 4.258C128.89 4.32333 129.086 4.43067 129.245 4.58C129.413 4.72933 129.511 4.93 129.539 5.182C129.586 5.53667 129.604 6.01267 129.595 6.61C129.586 7.198 129.572 7.842 129.553 8.542C129.534 9.23267 129.539 9.914 129.567 10.586ZM138.261 8.486C138.494 8.64467 138.643 8.87333 138.709 9.172C138.783 9.46133 138.774 9.77867 138.681 10.124C138.597 10.4693 138.424 10.8007 138.163 11.118C137.901 11.426 137.547 11.6827 137.099 11.888C136.66 12.0933 136.128 12.2007 135.503 12.21C134.98 12.2193 134.467 12.154 133.963 12.014C133.468 11.874 133.015 11.6593 132.605 11.37C132.203 11.0807 131.877 10.7073 131.625 10.25C131.373 9.79267 131.233 9.24667 131.205 8.612C131.195 8.48133 131.195 8.346 131.205 8.206C131.214 8.066 131.223 7.92133 131.233 7.772C131.233 7.73467 131.233 7.69733 131.233 7.66C131.242 7.62267 131.251 7.58533 131.261 7.548C131.354 6.988 131.545 6.47467 131.835 6.008C132.133 5.54133 132.497 5.14467 132.927 4.818C133.356 4.49133 133.813 4.25333 134.299 4.104C134.793 3.94533 135.279 3.88933 135.755 3.936C136.492 4.01067 137.061 4.20667 137.463 4.524C137.873 4.84133 138.139 5.23333 138.261 5.7C138.391 6.15733 138.396 6.652 138.275 7.184C138.209 7.44533 138.06 7.70667 137.827 7.968C137.603 8.22 137.323 8.44867 136.987 8.654C136.651 8.85 136.291 9.004 135.909 9.116C135.535 9.21867 135.171 9.26067 134.817 9.242C134.639 9.23267 134.546 9.28867 134.537 9.41C134.527 9.522 134.579 9.648 134.691 9.788C134.803 9.91867 134.952 10.0073 135.139 10.054C135.577 10.1473 135.988 10.152 136.371 10.068C136.763 9.97467 137.061 9.84867 137.267 9.69C137.435 9.55933 137.612 9.38667 137.799 9.172C137.985 8.948 138.139 8.71933 138.261 8.486ZM135.195 7.072C135.409 7.05333 135.596 6.988 135.755 6.876C135.923 6.75467 136.007 6.62867 136.007 6.498C136.016 6.31133 135.969 6.162 135.867 6.05C135.773 5.92867 135.61 5.87267 135.377 5.882C135.115 5.89133 134.863 5.92867 134.621 5.994C134.378 6.05933 134.233 6.19467 134.187 6.4C134.159 6.54 134.201 6.66133 134.313 6.764C134.425 6.86667 134.565 6.946 134.733 7.002C134.901 7.04867 135.055 7.072 135.195 7.072ZM144.38 3.894C144.567 3.84733 144.74 3.894 144.898 4.034C145.057 4.174 145.197 4.36533 145.318 4.608C145.449 4.84133 145.556 5.084 145.64 5.336C145.724 5.57867 145.79 5.784 145.836 5.952C145.883 6.12 145.906 6.204 145.906 6.204C145.906 6.204 145.794 6.22733 145.57 6.274C145.356 6.31133 145.085 6.39067 144.758 6.512C144.441 6.624 144.124 6.79667 143.806 7.03C143.62 7.17 143.442 7.338 143.274 7.534C143.106 7.73 142.962 7.982 142.84 8.29C142.719 8.58867 142.63 8.98533 142.574 9.48C142.546 9.732 142.542 9.99333 142.56 10.264C142.579 10.5347 142.588 10.7633 142.588 10.95C142.598 11.118 142.621 11.2393 142.658 11.314C142.705 11.3793 142.742 11.4353 142.77 11.482C142.649 11.594 142.425 11.72 142.098 11.86C141.781 11.9907 141.431 12.056 141.048 12.056C140.675 12.056 140.4 11.9347 140.222 11.692C140.045 11.4493 139.956 11.1133 139.956 10.684C139.956 10.5813 139.952 10.3573 139.942 10.012C139.942 9.65733 139.938 9.23267 139.928 8.738C139.928 8.24333 139.924 7.73 139.914 7.198C139.914 6.666 139.91 6.17133 139.9 5.714C139.9 5.24733 139.896 4.86933 139.886 4.58C139.886 4.29067 139.886 4.146 139.886 4.146C139.98 4.12733 140.138 4.11333 140.362 4.104C140.596 4.09467 140.848 4.104 141.118 4.132C141.389 4.16 141.641 4.22533 141.874 4.328C141.986 4.37467 142.136 4.42133 142.322 4.468C142.518 4.50533 142.705 4.524 142.882 4.524C143.069 4.524 143.204 4.496 143.288 4.44C143.466 4.30933 143.643 4.19733 143.82 4.104C144.007 4.01067 144.194 3.94067 144.38 3.894ZM153.382 8.486C153.615 8.64467 153.764 8.87333 153.83 9.172C153.904 9.46133 153.895 9.77867 153.802 10.124C153.718 10.4693 153.545 10.8007 153.284 11.118C153.022 11.426 152.668 11.6827 152.22 11.888C151.781 12.0933 151.249 12.2007 150.624 12.21C150.101 12.2193 149.588 12.154 149.084 12.014C148.589 11.874 148.136 11.6593 147.726 11.37C147.324 11.0807 146.998 10.7073 146.746 10.25C146.494 9.79267 146.354 9.24667 146.326 8.612C146.316 8.48133 146.316 8.346 146.326 8.206C146.335 8.066 146.344 7.92133 146.354 7.772C146.354 7.73467 146.354 7.69733 146.354 7.66C146.363 7.62267 146.372 7.58533 146.382 7.548C146.475 6.988 146.666 6.47467 146.956 6.008C147.254 5.54133 147.618 5.14467 148.048 4.818C148.477 4.49133 148.934 4.25333 149.42 4.104C149.914 3.94533 150.4 3.88933 150.876 3.936C151.613 4.01067 152.182 4.20667 152.584 4.524C152.994 4.84133 153.26 5.23333 153.382 5.7C153.512 6.15733 153.517 6.652 153.396 7.184C153.33 7.44533 153.181 7.70667 152.948 7.968C152.724 8.22 152.444 8.44867 152.108 8.654C151.772 8.85 151.412 9.004 151.03 9.116C150.656 9.21867 150.292 9.26067 149.938 9.242C149.76 9.23267 149.667 9.28867 149.658 9.41C149.648 9.522 149.7 9.648 149.812 9.788C149.924 9.91867 150.073 10.0073 150.26 10.054C150.698 10.1473 151.109 10.152 151.492 10.068C151.884 9.97467 152.182 9.84867 152.388 9.69C152.556 9.55933 152.733 9.38667 152.92 9.172C153.106 8.948 153.26 8.71933 153.382 8.486ZM150.316 7.072C150.53 7.05333 150.717 6.988 150.876 6.876C151.044 6.75467 151.128 6.62867 151.128 6.498C151.137 6.31133 151.09 6.162 150.988 6.05C150.894 5.92867 150.731 5.87267 150.498 5.882C150.236 5.89133 149.984 5.92867 149.742 5.994C149.499 6.05933 149.354 6.19467 149.308 6.4C149.28 6.54 149.322 6.66133 149.434 6.764C149.546 6.86667 149.686 6.946 149.854 7.002C150.022 7.04867 150.176 7.072 150.316 7.072ZM169.265 9.368C169.377 9.63867 169.535 9.9 169.741 10.152C169.946 10.3947 170.123 10.5767 170.273 10.698C170.049 11.1647 169.773 11.5053 169.447 11.72C169.176 11.8973 168.887 12 168.579 12.028C168.411 12.0467 168.219 12.0327 168.005 11.986C167.79 11.9393 167.566 11.8087 167.333 11.594C167.109 11.37 166.885 11.0153 166.661 10.53C166.595 10.3713 166.451 10.2593 166.227 10.194C166.003 10.1287 165.765 10.0913 165.513 10.082C165.261 10.0633 165.055 10.054 164.897 10.054C164.738 10.054 164.542 10.0587 164.309 10.068C164.085 10.0773 163.879 10.1147 163.693 10.18C163.506 10.2453 163.394 10.362 163.357 10.53C163.319 10.6793 163.315 10.8333 163.343 10.992C163.371 11.1507 163.431 11.2533 163.525 11.3C163.366 11.4493 163.207 11.58 163.049 11.692C162.899 11.804 162.745 11.8927 162.587 11.958C162.391 12.042 162.185 12.084 161.971 12.084C161.765 12.084 161.532 12.0373 161.271 11.944C161.149 11.8973 161.023 11.8133 160.893 11.692C160.762 11.5707 160.673 11.4027 160.627 11.188C160.58 10.9733 160.617 10.7027 160.739 10.376C160.748 10.348 160.795 10.1987 160.879 9.928C160.963 9.65733 161.07 9.30267 161.201 8.864C161.341 8.416 161.49 7.92133 161.649 7.38C161.817 6.83867 161.985 6.28333 162.153 5.714C162.33 5.13533 162.498 4.58 162.657 4.048C162.825 3.516 162.974 3.03533 163.105 2.606C163.235 2.17667 163.338 1.836 163.413 1.584C163.487 1.332 163.525 1.206 163.525 1.206C163.609 1.15933 163.763 1.10333 163.987 1.038C164.22 0.963333 164.467 0.921333 164.729 0.911999C165.018 0.893333 165.298 0.930666 165.569 1.024C165.849 1.11733 166.063 1.304 166.213 1.584C166.278 1.696 166.376 1.91067 166.507 2.228C166.637 2.54533 166.791 2.928 166.969 3.376C167.146 3.824 167.333 4.30467 167.529 4.818C167.725 5.322 167.916 5.826 168.103 6.33C168.299 6.82467 168.476 7.28667 168.635 7.716C168.793 8.14533 168.929 8.50933 169.041 8.808C169.153 9.09733 169.227 9.284 169.265 9.368ZM164.855 7.562C165.097 7.54333 165.237 7.47333 165.275 7.352C165.321 7.23067 165.349 7.09067 165.359 6.932C165.359 6.82933 165.34 6.70333 165.303 6.554C165.275 6.40467 165.228 6.274 165.163 6.162C165.107 6.04067 165.032 5.98 164.939 5.98C164.808 5.98 164.663 6.07333 164.505 6.26C164.355 6.43733 164.271 6.61933 164.253 6.806C164.225 6.98333 164.239 7.156 164.295 7.324C164.36 7.492 164.547 7.57133 164.855 7.562ZM175.88 3.894C176.067 3.84733 176.24 3.894 176.398 4.034C176.557 4.174 176.697 4.36533 176.818 4.608C176.949 4.84133 177.056 5.084 177.14 5.336C177.224 5.57867 177.29 5.784 177.336 5.952C177.383 6.12 177.406 6.204 177.406 6.204C177.406 6.204 177.294 6.22733 177.07 6.274C176.856 6.31133 176.585 6.39067 176.258 6.512C175.941 6.624 175.624 6.79667 175.306 7.03C175.12 7.17 174.942 7.338 174.774 7.534C174.606 7.73 174.462 7.982 174.34 8.29C174.219 8.58867 174.13 8.98533 174.074 9.48C174.046 9.732 174.042 9.99333 174.06 10.264C174.079 10.5347 174.088 10.7633 174.088 10.95C174.098 11.118 174.121 11.2393 174.158 11.314C174.205 11.3793 174.242 11.4353 174.27 11.482C174.149 11.594 173.925 11.72 173.598 11.86C173.281 11.9907 172.931 12.056 172.548 12.056C172.175 12.056 171.9 11.9347 171.722 11.692C171.545 11.4493 171.456 11.1133 171.456 10.684C171.456 10.5813 171.452 10.3573 171.442 10.012C171.442 9.65733 171.438 9.23267 171.428 8.738C171.428 8.24333 171.424 7.73 171.414 7.198C171.414 6.666 171.41 6.17133 171.4 5.714C171.4 5.24733 171.396 4.86933 171.386 4.58C171.386 4.29067 171.386 4.146 171.386 4.146C171.48 4.12733 171.638 4.11333 171.862 4.104C172.096 4.09467 172.348 4.104 172.618 4.132C172.889 4.16 173.141 4.22533 173.374 4.328C173.486 4.37467 173.636 4.42133 173.822 4.468C174.018 4.50533 174.205 4.524 174.382 4.524C174.569 4.524 174.704 4.496 174.788 4.44C174.966 4.30933 175.143 4.19733 175.32 4.104C175.507 4.01067 175.694 3.94067 175.88 3.894ZM184.199 4.23C184.293 4.32333 184.363 4.496 184.409 4.748C184.465 4.99067 184.479 5.26133 184.451 5.56C184.433 5.84933 184.363 6.11533 184.241 6.358C184.129 6.59133 183.957 6.75 183.723 6.834C183.359 6.96467 183.093 7.198 182.925 7.534C182.757 7.87 182.659 8.29467 182.631 8.808V9.998C182.65 10.1473 182.711 10.2687 182.813 10.362C182.925 10.4553 183.033 10.5207 183.135 10.558C183.247 10.5953 183.303 10.614 183.303 10.614C183.303 10.614 183.285 10.6793 183.247 10.81C183.219 10.9407 183.163 11.0947 183.079 11.272C182.995 11.4493 182.874 11.622 182.715 11.79C182.557 11.9487 182.351 12.0607 182.099 12.126C181.969 12.154 181.791 12.1587 181.567 12.14C181.353 12.1307 181.133 12.0887 180.909 12.014C180.685 11.9393 180.499 11.8367 180.349 11.706C180.265 11.6313 180.195 11.552 180.139 11.468C180.083 11.384 180.041 11.258 180.013 11.09C179.995 10.922 179.985 10.684 179.985 10.376V8.878C179.976 8.33667 179.859 7.88867 179.635 7.534C179.411 7.17 179.117 6.85733 178.753 6.596C178.585 6.47467 178.464 6.27867 178.389 6.008C178.324 5.728 178.282 5.434 178.263 5.126C178.245 4.818 178.24 4.55667 178.249 4.342C178.296 4.35133 178.422 4.37 178.627 4.398C178.833 4.426 179.01 4.44 179.159 4.44C179.458 4.43067 179.663 4.314 179.775 4.09C179.887 3.866 179.943 3.586 179.943 3.25L179.929 2.004C180.013 1.99467 180.153 1.98533 180.349 1.976C180.555 1.95733 180.779 1.95733 181.021 1.976C181.264 1.99467 181.497 2.04133 181.721 2.116C181.955 2.18133 182.151 2.28867 182.309 2.438C182.477 2.58733 182.575 2.788 182.603 3.04C182.603 3.068 182.603 3.10533 182.603 3.152C182.613 3.18933 182.617 3.236 182.617 3.292H182.631C182.631 3.41333 182.645 3.558 182.673 3.726C182.711 3.894 182.762 4.034 182.827 4.146C182.893 4.23933 182.995 4.30933 183.135 4.356C183.275 4.39333 183.411 4.41667 183.541 4.426C183.681 4.426 183.784 4.41667 183.849 4.398C183.952 4.37 184.027 4.34667 184.073 4.328C184.12 4.3 184.162 4.26733 184.199 4.23ZM187.159 3.67C186.842 3.67933 186.557 3.59067 186.305 3.404C186.063 3.21733 185.876 2.98867 185.745 2.718C185.624 2.438 185.577 2.172 185.605 1.92C185.652 1.53733 185.825 1.26667 186.123 1.108C186.422 0.949333 186.735 0.865333 187.061 0.855999C187.528 0.837333 187.892 0.958666 188.153 1.22C188.415 1.48133 188.545 1.78 188.545 2.116C188.545 2.34 188.494 2.56867 188.391 2.802C188.298 3.03533 188.149 3.236 187.943 3.404C187.738 3.56267 187.477 3.65133 187.159 3.67ZM188.643 10.586C188.653 10.754 188.704 10.8987 188.797 11.02C188.9 11.132 189.021 11.2393 189.161 11.342C189.096 11.426 189.012 11.5147 188.909 11.608C188.807 11.7013 188.653 11.79 188.447 11.874C188.251 11.9487 187.967 12.0093 187.593 12.056C187.472 12.0653 187.318 12.0513 187.131 12.014C186.945 11.986 186.758 11.8973 186.571 11.748C186.394 11.5893 186.249 11.342 186.137 11.006C186.025 10.6607 185.979 10.1893 185.997 9.592C186.007 9.48933 186.007 9.28867 185.997 8.99C185.997 8.69133 185.993 8.33667 185.983 7.926C185.983 7.51533 185.979 7.09067 185.969 6.652C185.969 6.21333 185.965 5.80733 185.955 5.434C185.955 5.05133 185.951 4.74333 185.941 4.51C185.941 4.26733 185.941 4.146 185.941 4.146C186.025 4.13667 186.165 4.12733 186.361 4.118C186.567 4.09933 186.791 4.09933 187.033 4.118C187.276 4.13667 187.509 4.18333 187.733 4.258C187.967 4.32333 188.163 4.43067 188.321 4.58C188.489 4.72933 188.587 4.93 188.615 5.182C188.662 5.53667 188.681 6.01267 188.671 6.61C188.662 7.198 188.648 7.842 188.629 8.542C188.611 9.23267 188.615 9.914 188.643 10.586ZM193.935 3.866C194.625 3.866 195.213 3.964 195.699 4.16C196.193 4.356 196.571 4.59867 196.833 4.888C197.094 5.17733 197.22 5.462 197.211 5.742C197.211 5.89133 197.145 6.05933 197.015 6.246C196.884 6.43267 196.711 6.59133 196.497 6.722C196.291 6.84333 196.063 6.89 195.811 6.862C195.876 6.694 195.834 6.53533 195.685 6.386C195.535 6.23667 195.321 6.11533 195.041 6.022C194.761 5.91933 194.457 5.86333 194.131 5.854C193.757 5.83533 193.505 5.87733 193.375 5.98C193.244 6.07333 193.169 6.176 193.151 6.288C193.123 6.40933 193.179 6.51667 193.319 6.61C193.459 6.694 193.641 6.77333 193.865 6.848C194.098 6.91333 194.341 6.974 194.593 7.03C194.854 7.07667 195.092 7.11867 195.307 7.156C195.531 7.19333 195.703 7.23067 195.825 7.268C196.385 7.436 196.795 7.65533 197.057 7.926C197.318 8.18733 197.486 8.46733 197.561 8.766C197.645 9.06467 197.677 9.35867 197.659 9.648C197.64 10.1147 197.519 10.5067 197.295 10.824C197.08 11.132 196.809 11.3793 196.483 11.566C196.165 11.7527 195.829 11.8927 195.475 11.986C195.129 12.07 194.803 12.126 194.495 12.154C194.196 12.182 193.967 12.196 193.809 12.196C193.323 12.1867 192.866 12.1353 192.437 12.042C192.017 11.958 191.653 11.846 191.345 11.706C191.046 11.566 190.831 11.4167 190.701 11.258C190.607 11.146 190.519 10.9873 190.435 10.782C190.351 10.5767 190.299 10.3573 190.281 10.124C190.271 9.88133 190.323 9.65267 190.435 9.438C190.547 9.214 190.752 9.032 191.051 8.892C191.107 9.07867 191.256 9.24667 191.499 9.396C191.751 9.54533 192.049 9.66667 192.395 9.76C192.749 9.85333 193.099 9.91867 193.445 9.956C193.781 9.984 194.098 9.97933 194.397 9.942C194.695 9.90467 194.859 9.79733 194.887 9.62C194.905 9.52667 194.859 9.43333 194.747 9.34C194.635 9.24667 194.429 9.16733 194.131 9.102C193.813 9.02733 193.533 8.97133 193.291 8.934C193.057 8.88733 192.824 8.836 192.591 8.78C192.152 8.668 191.769 8.49067 191.443 8.248C191.116 8.00533 190.869 7.716 190.701 7.38C190.542 7.03467 190.486 6.67067 190.533 6.288C190.607 5.73733 190.808 5.28467 191.135 4.93C191.471 4.57533 191.886 4.30933 192.381 4.132C192.875 3.95467 193.393 3.866 193.935 3.866ZM204.037 4.23C204.131 4.32333 204.201 4.496 204.247 4.748C204.303 4.99067 204.317 5.26133 204.289 5.56C204.271 5.84933 204.201 6.11533 204.079 6.358C203.967 6.59133 203.795 6.75 203.561 6.834C203.197 6.96467 202.931 7.198 202.763 7.534C202.595 7.87 202.497 8.29467 202.469 8.808V9.998C202.488 10.1473 202.549 10.2687 202.651 10.362C202.763 10.4553 202.871 10.5207 202.973 10.558C203.085 10.5953 203.141 10.614 203.141 10.614C203.141 10.614 203.123 10.6793 203.085 10.81C203.057 10.9407 203.001 11.0947 202.917 11.272C202.833 11.4493 202.712 11.622 202.553 11.79C202.395 11.9487 202.189 12.0607 201.937 12.126C201.807 12.154 201.629 12.1587 201.405 12.14C201.191 12.1307 200.971 12.0887 200.747 12.014C200.523 11.9393 200.337 11.8367 200.187 11.706C200.103 11.6313 200.033 11.552 199.977 11.468C199.921 11.384 199.879 11.258 199.851 11.09C199.833 10.922 199.823 10.684 199.823 10.376V8.878C199.814 8.33667 199.697 7.88867 199.473 7.534C199.249 7.17 198.955 6.85733 198.591 6.596C198.423 6.47467 198.302 6.27867 198.227 6.008C198.162 5.728 198.12 5.434 198.101 5.126C198.083 4.818 198.078 4.55667 198.087 4.342C198.134 4.35133 198.26 4.37 198.465 4.398C198.671 4.426 198.848 4.44 198.997 4.44C199.296 4.43067 199.501 4.314 199.613 4.09C199.725 3.866 199.781 3.586 199.781 3.25L199.767 2.004C199.851 1.99467 199.991 1.98533 200.187 1.976C200.393 1.95733 200.617 1.95733 200.859 1.976C201.102 1.99467 201.335 2.04133 201.559 2.116C201.793 2.18133 201.989 2.28867 202.147 2.438C202.315 2.58733 202.413 2.788 202.441 3.04C202.441 3.068 202.441 3.10533 202.441 3.152C202.451 3.18933 202.455 3.236 202.455 3.292H202.469C202.469 3.41333 202.483 3.558 202.511 3.726C202.549 3.894 202.6 4.034 202.665 4.146C202.731 4.23933 202.833 4.30933 202.973 4.356C203.113 4.39333 203.249 4.41667 203.379 4.426C203.519 4.426 203.622 4.41667 203.687 4.398C203.79 4.37 203.865 4.34667 203.911 4.328C203.958 4.3 204 4.26733 204.037 4.23ZM209.923 3.894C210.11 3.84733 210.282 3.894 210.441 4.034C210.6 4.174 210.74 4.36533 210.861 4.608C210.992 4.84133 211.099 5.084 211.183 5.336C211.267 5.57867 211.332 5.784 211.379 5.952C211.426 6.12 211.449 6.204 211.449 6.204C211.449 6.204 211.337 6.22733 211.113 6.274C210.898 6.31133 210.628 6.39067 210.301 6.512C209.984 6.624 209.666 6.79667 209.349 7.03C209.162 7.17 208.985 7.338 208.817 7.534C208.649 7.73 208.504 7.982 208.383 8.29C208.262 8.58867 208.173 8.98533 208.117 9.48C208.089 9.732 208.084 9.99333 208.103 10.264C208.122 10.5347 208.131 10.7633 208.131 10.95C208.14 11.118 208.164 11.2393 208.201 11.314C208.248 11.3793 208.285 11.4353 208.313 11.482C208.192 11.594 207.968 11.72 207.641 11.86C207.324 11.9907 206.974 12.056 206.591 12.056C206.218 12.056 205.942 11.9347 205.765 11.692C205.588 11.4493 205.499 11.1133 205.499 10.684C205.499 10.5813 205.494 10.3573 205.485 10.012C205.485 9.65733 205.48 9.23267 205.471 8.738C205.471 8.24333 205.466 7.73 205.457 7.198C205.457 6.666 205.452 6.17133 205.443 5.714C205.443 5.24733 205.438 4.86933 205.429 4.58C205.429 4.29067 205.429 4.146 205.429 4.146C205.522 4.12733 205.681 4.11333 205.905 4.104C206.138 4.09467 206.39 4.104 206.661 4.132C206.932 4.16 207.184 4.22533 207.417 4.328C207.529 4.37467 207.678 4.42133 207.865 4.468C208.061 4.50533 208.248 4.524 208.425 4.524C208.612 4.524 208.747 4.496 208.831 4.44C209.008 4.30933 209.186 4.19733 209.363 4.104C209.55 4.01067 209.736 3.94067 209.923 3.894ZM217.508 3.964C218.152 4.048 218.619 4.23467 218.908 4.524C219.207 4.81333 219.375 5.154 219.412 5.546C219.459 5.938 219.417 6.33933 219.286 6.75C219.211 6.98333 219.099 7.282 218.95 7.646C218.81 8.00067 218.661 8.36467 218.502 8.738C218.353 9.11133 218.213 9.44733 218.082 9.746C217.951 10.0353 217.863 10.2407 217.816 10.362C217.667 10.7073 217.489 11.076 217.284 11.468C217.079 11.8507 216.85 12.21 216.598 12.546C216.355 12.882 216.099 13.1573 215.828 13.372C215.567 13.5867 215.31 13.694 215.058 13.694C214.722 13.694 214.447 13.61 214.232 13.442C214.027 13.274 213.873 13.064 213.77 12.812C213.667 12.5693 213.602 12.3313 213.574 12.098C213.817 12.1633 214.041 12.1587 214.246 12.084C214.451 12.0187 214.629 11.9207 214.778 11.79C214.918 11.6593 215.002 11.51 215.03 11.342C215.067 11.174 215.077 11.0247 215.058 10.894C215.011 10.3713 214.867 9.80667 214.624 9.2L212.566 4.104C212.706 4.08533 212.888 4.062 213.112 4.034C213.345 3.99667 213.588 3.992 213.84 4.02C214.101 4.03867 214.344 4.10867 214.568 4.23C214.801 4.342 214.993 4.53333 215.142 4.804C215.198 4.89733 215.263 5.042 215.338 5.238C215.422 5.42467 215.506 5.62533 215.59 5.84C215.683 6.04533 215.758 6.22267 215.814 6.372C215.917 6.596 216.024 6.778 216.136 6.918C216.257 7.04867 216.379 7.11867 216.5 7.128C216.603 7.13733 216.705 7.1 216.808 7.016C216.911 6.92267 216.995 6.806 217.06 6.666C217.116 6.53533 217.181 6.33933 217.256 6.078C217.331 5.81667 217.391 5.59733 217.438 5.42C217.522 5.09333 217.564 4.81333 217.564 4.58C217.573 4.34667 217.555 4.14133 217.508 3.964ZM10.4648 29.466C10.4741 29.6713 10.4881 29.9233 10.5068 30.222C10.5348 30.5207 10.5954 30.81 10.6888 31.09C10.7821 31.37 10.9314 31.594 11.1368 31.762C10.9034 31.9207 10.6654 32.0327 10.4228 32.098C10.1801 32.1727 9.94209 32.1913 9.70876 32.154C9.64342 32.1353 9.57342 32.112 9.49876 32.084C9.42409 32.0653 9.32143 32.0373 9.19076 32C8.97609 31.9347 8.72409 31.9207 8.43476 31.958C8.14542 31.9953 7.84209 32.042 7.52476 32.098C7.21676 32.1633 6.91342 32.196 6.61476 32.196C6.12942 32.196 5.64409 32.112 5.15876 31.944C4.67342 31.7667 4.23476 31.496 3.84276 31.132C3.45076 30.768 3.15209 30.306 2.94676 29.746C2.74142 29.186 2.68076 28.514 2.76476 27.73C2.82076 27.1887 2.97476 26.694 3.22676 26.246C3.47876 25.7887 3.78676 25.3967 4.15076 25.07C4.52409 24.734 4.91609 24.4773 5.32676 24.3C5.74676 24.1133 6.15276 24.0247 6.54476 24.034C6.84342 24.0433 7.07209 24.0527 7.23076 24.062C7.39876 24.0713 7.61342 24.0947 7.87476 24.132C8.03342 24.1507 8.23409 24.1273 8.47676 24.062C8.71942 23.9967 8.96209 23.9267 9.20476 23.852C9.45676 23.768 9.67143 23.726 9.84876 23.726C10.1194 23.7167 10.3108 23.726 10.4228 23.754C10.5348 23.7727 10.6281 23.7913 10.7028 23.81C10.6468 23.978 10.6001 24.23 10.5628 24.566C10.5254 24.902 10.4974 25.2847 10.4788 25.714C10.4694 26.134 10.4601 26.5727 10.4508 27.03C10.4414 27.4873 10.4368 27.926 10.4368 28.346C10.4461 28.766 10.4554 29.1393 10.4648 29.466ZM5.20076 28.178C5.21942 28.6447 5.30342 29.0087 5.45276 29.27C5.61142 29.522 5.79809 29.6993 6.01276 29.802C6.23676 29.9047 6.45142 29.956 6.65676 29.956C7.06742 29.9653 7.37076 29.8067 7.56676 29.48C7.76276 29.1533 7.85609 28.7007 7.84676 28.122C7.84676 27.9633 7.82809 27.7767 7.79076 27.562C7.76276 27.3473 7.70676 27.1373 7.62276 26.932C7.54809 26.7267 7.44076 26.554 7.30076 26.414C7.17009 26.274 6.99742 26.204 6.78276 26.204C6.35342 26.204 5.97542 26.3627 5.64876 26.68C5.33142 26.9973 5.18209 27.4967 5.20076 28.178ZM19.8824 30.222C19.8917 30.6327 19.9524 30.922 20.0644 31.09C20.1857 31.2487 20.2464 31.328 20.2464 31.328C20.2464 31.328 20.1624 31.3887 19.9944 31.51C19.8357 31.622 19.6211 31.7387 19.3504 31.86C19.0797 31.9813 18.7764 32.042 18.4404 32.042C17.9457 32.042 17.6237 31.9067 17.4744 31.636C17.325 31.3653 17.2457 31.0153 17.2364 30.586C17.2364 30.5113 17.241 30.348 17.2504 30.096C17.2597 29.844 17.2644 29.5593 17.2644 29.242C17.2737 28.9153 17.2737 28.6167 17.2644 28.346C17.255 28.066 17.2364 27.87 17.2084 27.758C17.1057 27.3847 16.905 27.2213 16.6064 27.268C16.373 27.296 16.1537 27.4313 15.9484 27.674C15.743 27.9073 15.575 28.1873 15.4444 28.514C15.3137 28.8407 15.2484 29.1487 15.2484 29.438C15.2484 29.5873 15.239 29.7367 15.2204 29.886C15.211 30.026 15.2017 30.1567 15.1924 30.278C15.183 30.362 15.1924 30.4647 15.2204 30.586C15.2577 30.7073 15.323 30.8053 15.4164 30.88C15.351 30.992 15.2204 31.1367 15.0244 31.314C14.8377 31.4913 14.6324 31.6547 14.4084 31.804C14.1937 31.944 14.007 32.0233 13.8484 32.042C13.699 32.0513 13.5217 32.0047 13.3164 31.902C13.1204 31.7993 12.9477 31.6453 12.7984 31.44C12.6584 31.2347 12.5837 30.9873 12.5744 30.698C12.5744 30.6233 12.5744 30.4507 12.5744 30.18C12.5837 29.9093 12.5884 29.5827 12.5884 29.2C12.5977 28.8173 12.6024 28.4113 12.6024 27.982C12.6117 27.5527 12.6164 27.1373 12.6164 26.736C12.6164 26.3347 12.6164 25.9893 12.6164 25.7C12.6164 25.448 12.5837 25.2053 12.5184 24.972C12.4624 24.7293 12.4017 24.5333 12.3364 24.384C12.2804 24.2253 12.2524 24.146 12.2524 24.146C12.3364 24.1273 12.481 24.1133 12.6864 24.104C12.901 24.0947 13.139 24.0993 13.4004 24.118C13.6617 24.1367 13.9184 24.1787 14.1704 24.244C14.4317 24.3093 14.651 24.412 14.8284 24.552C15.015 24.692 15.2017 24.7807 15.3884 24.818C15.5844 24.846 15.7384 24.8273 15.8504 24.762C16.177 24.5473 16.5084 24.3607 16.8444 24.202C17.1804 24.0433 17.507 23.9453 17.8244 23.908C17.983 23.8893 18.1697 23.8987 18.3844 23.936C18.599 23.964 18.809 24.034 19.0144 24.146C19.229 24.258 19.411 24.4167 19.5604 24.622C19.7191 24.8273 19.8171 25.0887 19.8544 25.406C19.9197 25.9473 19.9384 26.61 19.9104 27.394C19.8824 28.1687 19.8731 29.1113 19.8824 30.222ZM29.1135 30.264C29.2722 30.4507 29.5055 30.5813 29.8135 30.656C29.7669 30.852 29.7062 31.062 29.6315 31.286C29.5662 31.51 29.4589 31.706 29.3095 31.874C29.1695 32.042 28.9642 32.1493 28.6935 32.196C28.5722 32.224 28.4182 32.2147 28.2315 32.168C28.0449 32.1213 27.8209 32.0653 27.5595 32C27.3915 31.9533 27.1769 31.944 26.9155 31.972C26.6542 31.9907 26.4069 32.0187 26.1735 32.056C25.9495 32.0933 25.8002 32.1213 25.7255 32.14C25.6229 32.168 25.5202 32.182 25.4175 32.182C25.3149 32.1913 25.2122 32.196 25.1095 32.196C24.6242 32.196 24.1435 32.112 23.6675 31.944C23.2009 31.7667 22.7809 31.496 22.4075 31.132C22.0342 30.768 21.7495 30.306 21.5535 29.746C21.3669 29.186 21.3155 28.514 21.3995 27.73C21.4555 27.1887 21.6002 26.6847 21.8335 26.218C22.0762 25.7513 22.3749 25.3453 22.7295 25C23.0842 24.6453 23.4622 24.3747 23.8635 24.188C24.2742 23.992 24.6755 23.894 25.0675 23.894C25.1515 23.894 25.2309 23.894 25.3055 23.894C25.3895 23.894 25.4689 23.8893 25.5435 23.88C25.7115 23.852 25.8749 23.7587 26.0335 23.6C26.1922 23.4413 26.2995 23.2453 26.3555 23.012C26.3835 22.8813 26.4022 22.7273 26.4115 22.55C26.4209 22.3727 26.4255 22.2653 26.4255 22.228C26.4535 22.0133 26.5329 21.8313 26.6635 21.682C26.7942 21.5233 26.9482 21.3973 27.1255 21.304C27.3682 21.1733 27.6342 21.08 27.9235 21.024C28.2129 20.968 28.4789 20.94 28.7215 20.94C28.9735 20.9307 29.1602 20.94 29.2815 20.968C29.2722 21.024 29.2535 21.2247 29.2255 21.57C29.1975 21.9153 29.1649 22.3493 29.1275 22.872C29.0902 23.3947 29.0529 23.9687 29.0155 24.594C28.9782 25.21 28.9455 25.8307 28.9175 26.456C28.8989 27.0813 28.8895 27.6647 28.8895 28.206C28.8895 28.7473 28.9082 29.2 28.9455 29.564C28.9829 29.928 29.0389 30.1613 29.1135 30.264ZM23.9055 28.192C23.8775 28.556 23.9195 28.8593 24.0315 29.102C24.1529 29.3353 24.3022 29.5127 24.4795 29.634C24.6662 29.746 24.8482 29.8067 25.0255 29.816C25.3615 29.8253 25.6182 29.7413 25.7955 29.564C25.9822 29.3773 26.1082 29.1347 26.1735 28.836C26.2389 28.528 26.2715 28.2013 26.2715 27.856C26.2715 27.3333 26.1689 26.9553 25.9635 26.722C25.7582 26.4887 25.4362 26.386 24.9975 26.414C24.7175 26.4327 24.4749 26.568 24.2695 26.82C24.0735 27.072 23.9522 27.5293 23.9055 28.192ZM45.7176 30.656C45.727 30.824 45.7503 30.9967 45.7876 31.174C45.8343 31.3513 45.8903 31.51 45.9556 31.65C45.9183 31.6873 45.8203 31.7527 45.6616 31.846C45.503 31.9393 45.3116 32.0233 45.0876 32.098C44.8636 32.1727 44.6256 32.2007 44.3736 32.182C44.0096 32.154 43.7063 32.0047 43.4636 31.734C43.2303 31.454 43.1136 31.0993 43.1136 30.67C43.1043 30.5767 43.0996 30.4787 43.0996 30.376C43.0996 30.2733 43.0996 30.1427 43.0996 29.984C43.109 29.5733 43.025 29.2187 42.8476 28.92C42.6703 28.612 42.4323 28.3787 42.1336 28.22C41.835 28.052 41.5083 27.968 41.1536 27.968C40.6403 27.968 40.197 28.122 39.8236 28.43C39.4596 28.738 39.259 29.186 39.2216 29.774C39.2216 29.858 39.2263 30.0167 39.2356 30.25C39.2543 30.4833 39.2776 30.7167 39.3056 30.95C39.3336 31.1833 39.3616 31.3513 39.3896 31.454C39.287 31.566 39.133 31.6827 38.9276 31.804C38.7223 31.916 38.5076 32.0047 38.2836 32.07C38.0596 32.1353 37.8636 32.154 37.6956 32.126C37.4436 32.0793 37.201 31.9113 36.9676 31.622C36.7343 31.3327 36.613 30.9733 36.6036 30.544C36.6036 30.46 36.599 30.2267 36.5896 29.844C36.5896 29.452 36.585 28.9667 36.5756 28.388C36.5756 27.8093 36.571 27.1887 36.5616 26.526C36.5616 25.854 36.557 25.1913 36.5476 24.538C36.5476 23.8847 36.543 23.2873 36.5336 22.746C36.5336 22.2047 36.5336 21.7707 36.5336 21.444C36.5336 21.1173 36.5336 20.954 36.5336 20.954C36.6363 20.9353 36.8136 20.9307 37.0656 20.94C37.327 20.9493 37.6023 20.9913 37.8916 21.066C38.209 21.1407 38.4983 21.2667 38.7596 21.444C39.021 21.6213 39.1703 21.878 39.2076 22.214C39.2263 22.3727 39.2403 22.5453 39.2496 22.732C39.259 22.9187 39.2636 23.082 39.2636 23.222C39.2636 23.3527 39.2636 23.418 39.2636 23.418C39.2636 23.782 39.3476 24.1227 39.5156 24.44C39.6836 24.748 39.9123 24.9907 40.2016 25.168C40.5003 25.3453 40.8223 25.4293 41.1676 25.42C41.6623 25.4013 42.045 25.2427 42.3156 24.944C42.5863 24.6453 42.787 24.2113 42.9176 23.642C42.955 23.4833 42.983 23.2593 43.0016 22.97C43.0203 22.6713 43.0296 22.368 43.0296 22.06C43.039 21.752 43.0436 21.4907 43.0436 21.276C43.0436 21.0613 43.0436 20.954 43.0436 20.954C43.1463 20.9353 43.3143 20.9307 43.5476 20.94C43.781 20.9493 44.0283 20.982 44.2896 21.038C44.6163 21.1033 44.9243 21.2293 45.2136 21.416C45.5123 21.5933 45.6803 21.8593 45.7176 22.214C45.7363 22.3913 45.7503 22.676 45.7596 23.068C45.769 23.46 45.769 23.9173 45.7596 24.44C45.7596 24.9533 45.755 25.504 45.7456 26.092C45.7363 26.6707 45.727 27.2493 45.7176 27.828C45.7083 28.3973 45.7036 28.9293 45.7036 29.424C45.7036 29.9093 45.7083 30.32 45.7176 30.656ZM52.0166 23.964C52.6606 24.048 53.1273 24.2347 53.4166 24.524C53.7153 24.8133 53.8833 25.154 53.9206 25.546C53.9673 25.938 53.9253 26.3393 53.7946 26.75C53.72 26.9833 53.608 27.282 53.4586 27.646C53.3186 28.0007 53.1693 28.3647 53.0106 28.738C52.8613 29.1113 52.7213 29.4473 52.5906 29.746C52.46 30.0353 52.3713 30.2407 52.3246 30.362C52.1753 30.7073 51.998 31.076 51.7926 31.468C51.5873 31.8507 51.3586 32.21 51.1066 32.546C50.864 32.882 50.6073 33.1573 50.3366 33.372C50.0753 33.5867 49.8186 33.694 49.5666 33.694C49.2306 33.694 48.9553 33.61 48.7406 33.442C48.5353 33.274 48.3813 33.064 48.2786 32.812C48.176 32.5693 48.1106 32.3313 48.0826 32.098C48.3253 32.1633 48.5493 32.1587 48.7546 32.084C48.96 32.0187 49.1373 31.9207 49.2866 31.79C49.4266 31.6593 49.5106 31.51 49.5386 31.342C49.576 31.174 49.5853 31.0247 49.5666 30.894C49.52 30.3713 49.3753 29.8067 49.1326 29.2L47.0746 24.104C47.2146 24.0853 47.3966 24.062 47.6206 24.034C47.854 23.9967 48.0966 23.992 48.3486 24.02C48.61 24.0387 48.8526 24.1087 49.0766 24.23C49.31 24.342 49.5013 24.5333 49.6506 24.804C49.7066 24.8973 49.772 25.042 49.8466 25.238C49.9306 25.4247 50.0146 25.6253 50.0986 25.84C50.192 26.0453 50.2666 26.2227 50.3226 26.372C50.4253 26.596 50.5326 26.778 50.6446 26.918C50.766 27.0487 50.8873 27.1187 51.0086 27.128C51.1113 27.1373 51.214 27.1 51.3166 27.016C51.4193 26.9227 51.5033 26.806 51.5686 26.666C51.6246 26.5353 51.69 26.3393 51.7646 26.078C51.8393 25.8167 51.9 25.5973 51.9466 25.42C52.0306 25.0933 52.0726 24.8133 52.0726 24.58C52.082 24.3467 52.0633 24.1413 52.0166 23.964ZM58.8807 23.908C59.7114 23.8427 60.4114 23.9827 60.9807 24.328C61.55 24.664 61.984 25.1353 62.2827 25.742C62.5814 26.3393 62.7354 27.002 62.7447 27.73C62.7634 28.402 62.6654 28.9993 62.4507 29.522C62.236 30.0353 61.942 30.474 61.5687 30.838C61.1954 31.1927 60.7754 31.4633 60.3087 31.65C59.8514 31.8367 59.38 31.93 58.8947 31.93C58.792 31.93 58.6567 31.944 58.4887 31.972C58.33 31.9907 58.1994 32.042 58.0967 32.126C58.0314 32.1913 57.9847 32.2613 57.9567 32.336C57.938 32.4107 57.9334 32.4993 57.9427 32.602C57.9614 32.77 57.9987 32.8867 58.0547 32.952C58.12 33.0267 58.176 33.106 58.2227 33.19C58.12 33.302 57.9754 33.4233 57.7887 33.554C57.602 33.6847 57.3734 33.7873 57.1027 33.862C56.8414 33.9367 56.5287 33.946 56.1647 33.89C55.9407 33.8527 55.7447 33.708 55.5767 33.456C55.4087 33.204 55.32 32.8633 55.3107 32.434L55.2687 25.924C55.2687 25.4013 55.236 24.9767 55.1707 24.65C55.1054 24.314 55.0727 24.146 55.0727 24.146C55.194 24.1087 55.3854 24.076 55.6467 24.048C55.9174 24.02 56.1974 24.0387 56.4867 24.104C56.5987 24.132 56.7387 24.1647 56.9067 24.202C57.084 24.23 57.2754 24.23 57.4807 24.202C57.7514 24.174 58.022 24.1227 58.2927 24.048C58.5634 23.964 58.7594 23.9173 58.8807 23.908ZM59.1467 29.732C59.4454 29.732 59.7254 29.578 59.9867 29.27C60.248 28.9527 60.3787 28.5093 60.3787 27.94C60.3787 27.5573 60.3134 27.2353 60.1827 26.974C60.0614 26.7033 59.9074 26.5027 59.7207 26.372C59.534 26.232 59.352 26.162 59.1747 26.162C58.9974 26.162 58.8154 26.176 58.6287 26.204C58.4514 26.232 58.2927 26.3393 58.1527 26.526C58.022 26.7127 57.938 27.044 57.9007 27.52C57.854 28.136 57.8914 28.6027 58.0127 28.92C58.1434 29.2373 58.316 29.452 58.5307 29.564C58.7454 29.676 58.9507 29.732 59.1467 29.732ZM71.4937 30.222C71.503 30.6327 71.5637 30.922 71.6757 31.09C71.797 31.2487 71.8577 31.328 71.8577 31.328C71.8577 31.328 71.7737 31.3887 71.6057 31.51C71.447 31.622 71.2324 31.7387 70.9617 31.86C70.691 31.9813 70.3877 32.042 70.0517 32.042C69.557 32.042 69.235 31.9067 69.0857 31.636C68.9364 31.3653 68.857 31.0153 68.8477 30.586C68.8477 30.5113 68.8524 30.348 68.8617 30.096C68.871 29.844 68.8757 29.5593 68.8757 29.242C68.885 28.9153 68.885 28.6167 68.8757 28.346C68.8664 28.066 68.8477 27.87 68.8197 27.758C68.717 27.3847 68.5164 27.2213 68.2177 27.268C67.9844 27.296 67.765 27.4313 67.5597 27.674C67.3544 27.9073 67.1864 28.1873 67.0557 28.514C66.925 28.8407 66.8597 29.1487 66.8597 29.438C66.8597 29.5873 66.8504 29.7367 66.8317 29.886C66.8224 30.026 66.813 30.1567 66.8037 30.278C66.7944 30.362 66.8037 30.4647 66.8317 30.586C66.869 30.7073 66.9344 30.8053 67.0277 30.88C66.9624 30.992 66.8317 31.1367 66.6357 31.314C66.449 31.4913 66.2437 31.6547 66.0197 31.804C65.805 31.944 65.6184 32.0233 65.4597 32.042C65.3104 32.0513 65.133 32.0047 64.9277 31.902C64.7317 31.7993 64.559 31.6453 64.4097 31.44C64.2697 31.2347 64.195 30.9873 64.1857 30.698C64.1857 30.6233 64.1857 30.4507 64.1857 30.18C64.195 29.9093 64.1997 29.5827 64.1997 29.2C64.209 28.8173 64.2137 28.4113 64.2137 27.982C64.223 27.5527 64.2277 27.1373 64.2277 26.736C64.2277 26.3347 64.2277 25.9893 64.2277 25.7C64.2277 25.448 64.195 25.2053 64.1297 24.972C64.0737 24.7293 64.013 24.5333 63.9477 24.384C63.8917 24.2253 63.8637 24.146 63.8637 24.146C63.9477 24.1273 64.0924 24.1133 64.2977 24.104C64.5124 24.0947 64.7504 24.0993 65.0117 24.118C65.273 24.1367 65.5297 24.1787 65.7817 24.244C66.043 24.3093 66.2624 24.412 66.4397 24.552C66.6264 24.692 66.813 24.7807 66.9997 24.818C67.1957 24.846 67.3497 24.8273 67.4617 24.762C67.7884 24.5473 68.1197 24.3607 68.4557 24.202C68.7917 24.0433 69.1184 23.9453 69.4357 23.908C69.5944 23.8893 69.781 23.8987 69.9957 23.936C70.2104 23.964 70.4204 24.034 70.6257 24.146C70.8404 24.258 71.0224 24.4167 71.1717 24.622C71.3304 24.8273 71.4284 25.0887 71.4657 25.406C71.531 25.9473 71.5497 26.61 71.5217 27.394C71.4937 28.1687 71.4844 29.1113 71.4937 30.222ZM80.7389 27.73C80.8229 28.514 80.7622 29.186 80.5569 29.746C80.3515 30.306 80.0482 30.768 79.6469 31.132C79.2549 31.496 78.8115 31.7667 78.3169 31.944C77.8315 32.112 77.3462 32.196 76.8609 32.196C76.3849 32.196 75.8995 32.112 75.4049 31.944C74.9195 31.7667 74.4809 31.496 74.0889 31.132C73.7062 30.768 73.4075 30.306 73.1929 29.746C72.9875 29.186 72.9269 28.514 73.0109 27.73C73.0949 27.0113 73.3095 26.3813 73.6549 25.84C74.0095 25.2987 74.4575 24.874 74.9989 24.566C75.5495 24.2487 76.1515 24.0713 76.8049 24.034C76.8422 24.0247 76.8795 23.9967 76.9169 23.95C76.9635 23.894 77.0382 23.8473 77.1409 23.81C77.2529 23.7633 77.4209 23.7493 77.6449 23.768C78.1769 23.9173 78.6622 24.174 79.1009 24.538C79.5395 24.902 79.9035 25.3547 80.1929 25.896C80.4915 26.4373 80.6735 27.0487 80.7389 27.73ZM76.7349 29.956C77.0335 29.956 77.2902 29.886 77.5049 29.746C77.7195 29.606 77.8922 29.4287 78.0229 29.214C78.1535 28.99 78.2469 28.7567 78.3029 28.514C78.3682 28.2713 78.4009 28.052 78.4009 27.856C78.4009 27.4547 78.3355 27.142 78.2049 26.918C78.0742 26.694 77.7755 26.4933 77.3089 26.316C77.1782 26.26 77.0895 26.1853 77.0429 26.092C76.9962 25.9987 76.9262 25.9473 76.8329 25.938C76.5249 25.9007 76.2635 25.9847 76.0489 26.19C75.8342 26.3953 75.6709 26.6707 75.5589 27.016C75.4469 27.3613 75.3909 27.7347 75.3909 28.136C75.3909 28.5373 75.4655 28.8733 75.6149 29.144C75.7735 29.4147 75.9555 29.62 76.1609 29.76C76.3755 29.8907 76.5669 29.956 76.7349 29.956ZM87.8332 24.23C87.9266 24.3233 87.9966 24.496 88.0432 24.748C88.0992 24.9907 88.1132 25.2613 88.0852 25.56C88.0666 25.8493 87.9966 26.1153 87.8752 26.358C87.7632 26.5913 87.5906 26.75 87.3572 26.834C86.9932 26.9647 86.7272 27.198 86.5592 27.534C86.3912 27.87 86.2932 28.2947 86.2652 28.808V29.998C86.2839 30.1473 86.3446 30.2687 86.4472 30.362C86.5592 30.4553 86.6666 30.5207 86.7692 30.558C86.8812 30.5953 86.9372 30.614 86.9372 30.614C86.9372 30.614 86.9186 30.6793 86.8812 30.81C86.8532 30.9407 86.7972 31.0947 86.7132 31.272C86.6292 31.4493 86.5079 31.622 86.3492 31.79C86.1906 31.9487 85.9852 32.0607 85.7332 32.126C85.6026 32.154 85.4252 32.1587 85.2012 32.14C84.9866 32.1307 84.7672 32.0887 84.5432 32.014C84.3192 31.9393 84.1326 31.8367 83.9832 31.706C83.8992 31.6313 83.8292 31.552 83.7732 31.468C83.7172 31.384 83.6752 31.258 83.6472 31.09C83.6286 30.922 83.6192 30.684 83.6192 30.376V28.878C83.6099 28.3367 83.4932 27.8887 83.2692 27.534C83.0452 27.17 82.7512 26.8573 82.3872 26.596C82.2192 26.4747 82.0979 26.2787 82.0232 26.008C81.9579 25.728 81.9159 25.434 81.8972 25.126C81.8786 24.818 81.8739 24.5567 81.8832 24.342C81.9299 24.3513 82.0559 24.37 82.2612 24.398C82.4666 24.426 82.6439 24.44 82.7932 24.44C83.0919 24.4307 83.2972 24.314 83.4092 24.09C83.5212 23.866 83.5772 23.586 83.5772 23.25L83.5632 22.004C83.6472 21.9947 83.7872 21.9853 83.9832 21.976C84.1886 21.9573 84.4126 21.9573 84.6552 21.976C84.8979 21.9947 85.1312 22.0413 85.3552 22.116C85.5886 22.1813 85.7846 22.2887 85.9432 22.438C86.1112 22.5873 86.2092 22.788 86.2372 23.04C86.2372 23.068 86.2372 23.1053 86.2372 23.152C86.2466 23.1893 86.2512 23.236 86.2512 23.292H86.2652C86.2652 23.4133 86.2792 23.558 86.3072 23.726C86.3446 23.894 86.3959 24.034 86.4612 24.146C86.5266 24.2393 86.6292 24.3093 86.7692 24.356C86.9092 24.3933 87.0446 24.4167 87.1752 24.426C87.3152 24.426 87.4179 24.4167 87.4832 24.398C87.5859 24.37 87.6606 24.3467 87.7072 24.328C87.7539 24.3 87.7959 24.2673 87.8332 24.23ZM90.793 23.67C90.4757 23.6793 90.191 23.5907 89.939 23.404C89.6964 23.2173 89.5097 22.9887 89.379 22.718C89.2577 22.438 89.211 22.172 89.239 21.92C89.2857 21.5373 89.4584 21.2667 89.757 21.108C90.0557 20.9493 90.3684 20.8653 90.695 20.856C91.1617 20.8373 91.5257 20.9587 91.787 21.22C92.0484 21.4813 92.179 21.78 92.179 22.116C92.179 22.34 92.1277 22.5687 92.025 22.802C91.9317 23.0353 91.7824 23.236 91.577 23.404C91.3717 23.5627 91.1104 23.6513 90.793 23.67ZM92.277 30.586C92.2864 30.754 92.3377 30.8987 92.431 31.02C92.5337 31.132 92.655 31.2393 92.795 31.342C92.7297 31.426 92.6457 31.5147 92.543 31.608C92.4404 31.7013 92.2864 31.79 92.081 31.874C91.885 31.9487 91.6004 32.0093 91.227 32.056C91.1057 32.0653 90.9517 32.0513 90.765 32.014C90.5784 31.986 90.3917 31.8973 90.205 31.748C90.0277 31.5893 89.883 31.342 89.771 31.006C89.659 30.6607 89.6124 30.1893 89.631 29.592C89.6404 29.4893 89.6404 29.2887 89.631 28.99C89.631 28.6913 89.6264 28.3367 89.617 27.926C89.617 27.5153 89.6124 27.0907 89.603 26.652C89.603 26.2133 89.5984 25.8073 89.589 25.434C89.589 25.0513 89.5844 24.7433 89.575 24.51C89.575 24.2673 89.575 24.146 89.575 24.146C89.659 24.1367 89.799 24.1273 89.995 24.118C90.2004 24.0993 90.4244 24.0993 90.667 24.118C90.9097 24.1367 91.143 24.1833 91.367 24.258C91.6004 24.3233 91.7964 24.4307 91.955 24.58C92.123 24.7293 92.221 24.93 92.249 25.182C92.2957 25.5367 92.3144 26.0127 92.305 26.61C92.2957 27.198 92.2817 27.842 92.263 28.542C92.2444 29.2327 92.249 29.914 92.277 30.586ZM100.207 25.952C100.17 26.148 100.086 26.33 99.9551 26.498C99.8244 26.666 99.6704 26.806 99.4931 26.918C99.3251 27.0207 99.1617 27.0767 99.0031 27.086C98.8444 27.0953 98.7137 27.0393 98.6111 26.918C98.7884 26.7967 98.8304 26.68 98.7371 26.568C98.6531 26.456 98.5084 26.3673 98.3031 26.302C98.0977 26.2367 97.8971 26.218 97.7011 26.246C97.2157 26.3207 96.8564 26.5307 96.6231 26.876C96.3897 27.212 96.2404 27.5993 96.1751 28.038C96.1284 28.4113 96.1657 28.7473 96.2871 29.046C96.4177 29.3353 96.5951 29.5687 96.8191 29.746C97.0524 29.914 97.3044 30.0027 97.5751 30.012C98.1817 30.0213 98.6857 29.9327 99.0871 29.746C99.4884 29.5593 99.8011 29.3447 100.025 29.102C100.258 28.85 100.417 28.6447 100.501 28.486C100.725 28.6447 100.856 28.8733 100.893 29.172C100.93 29.4707 100.884 29.7927 100.753 30.138C100.622 30.4833 100.417 30.8147 100.137 31.132C99.8571 31.4493 99.5164 31.7107 99.1151 31.916C98.7137 32.112 98.2564 32.21 97.7431 32.21C97.4724 32.21 97.1504 32.1773 96.7771 32.112C96.4037 32.0467 96.0211 31.9253 95.6291 31.748C95.2464 31.5707 94.8917 31.314 94.5651 30.978C94.2477 30.642 94.0004 30.208 93.8231 29.676C93.6551 29.144 93.6037 28.4907 93.6691 27.716C93.7157 27.1187 93.8744 26.5913 94.1451 26.134C94.4251 25.6673 94.7657 25.2753 95.1671 24.958C95.5684 24.6313 95.9884 24.384 96.4271 24.216C96.8751 24.0387 97.2997 23.9453 97.7011 23.936C98.1024 23.9267 98.4664 23.9873 98.7931 24.118C99.1197 24.2487 99.3951 24.4213 99.6191 24.636C99.8431 24.8413 100.006 25.0607 100.109 25.294C100.212 25.5273 100.244 25.7467 100.207 25.952ZM116.069 23.6C115.957 23.9453 115.785 24.1973 115.551 24.356C115.318 24.5147 115.075 24.58 114.823 24.552C114.571 24.5147 114.357 24.3887 114.179 24.174C114.338 24.0527 114.385 23.922 114.319 23.782C114.263 23.6327 114.119 23.5113 113.885 23.418C113.652 23.3153 113.353 23.278 112.989 23.306C112.616 23.3247 112.238 23.446 111.855 23.67C111.482 23.894 111.169 24.216 110.917 24.636C110.665 25.056 110.525 25.5787 110.497 26.204C110.469 26.848 110.535 27.3707 110.693 27.772C110.852 28.1733 111.048 28.4813 111.281 28.696C111.524 28.9013 111.767 29.0507 112.009 29.144C112.252 29.228 112.448 29.284 112.597 29.312C112.793 29.3493 113.017 29.3773 113.269 29.396C113.531 29.4053 113.792 29.3867 114.053 29.34C114.315 29.2933 114.539 29.214 114.725 29.102C114.893 28.9993 115.103 28.864 115.355 28.696C115.607 28.5187 115.85 28.3227 116.083 28.108C116.317 27.8933 116.489 27.674 116.601 27.45C116.919 27.6647 117.115 27.968 117.189 28.36C117.273 28.752 117.241 29.172 117.091 29.62C116.942 30.068 116.681 30.4927 116.307 30.894C115.943 31.286 115.467 31.608 114.879 31.86C114.291 32.1027 113.596 32.2147 112.793 32.196C112.42 32.1867 111.991 32.1167 111.505 31.986C111.029 31.8553 110.549 31.65 110.063 31.37C109.578 31.0807 109.135 30.7027 108.733 30.236C108.341 29.76 108.043 29.172 107.837 28.472C107.632 27.772 107.576 26.946 107.669 25.994C107.753 25.0887 107.977 24.3093 108.341 23.656C108.715 23.0027 109.167 22.4707 109.699 22.06C110.241 21.64 110.81 21.3273 111.407 21.122C112.014 20.9073 112.593 20.7953 113.143 20.786C113.694 20.7673 114.17 20.8513 114.571 21.038C114.982 21.2247 115.313 21.4673 115.565 21.766C115.817 22.0553 115.985 22.368 116.069 22.704C116.163 23.0307 116.163 23.3293 116.069 23.6ZM122.84 23.894C123.027 23.8473 123.199 23.894 123.358 24.034C123.517 24.174 123.657 24.3653 123.778 24.608C123.909 24.8413 124.016 25.084 124.1 25.336C124.184 25.5787 124.249 25.784 124.296 25.952C124.343 26.12 124.366 26.204 124.366 26.204C124.366 26.204 124.254 26.2273 124.03 26.274C123.815 26.3113 123.545 26.3907 123.218 26.512C122.901 26.624 122.583 26.7967 122.266 27.03C122.079 27.17 121.902 27.338 121.734 27.534C121.566 27.73 121.421 27.982 121.3 28.29C121.179 28.5887 121.09 28.9853 121.034 29.48C121.006 29.732 121.001 29.9933 121.02 30.264C121.039 30.5347 121.048 30.7633 121.048 30.95C121.057 31.118 121.081 31.2393 121.118 31.314C121.165 31.3793 121.202 31.4353 121.23 31.482C121.109 31.594 120.885 31.72 120.558 31.86C120.241 31.9907 119.891 32.056 119.508 32.056C119.135 32.056 118.859 31.9347 118.682 31.692C118.505 31.4493 118.416 31.1133 118.416 30.684C118.416 30.5813 118.411 30.3573 118.402 30.012C118.402 29.6573 118.397 29.2327 118.388 28.738C118.388 28.2433 118.383 27.73 118.374 27.198C118.374 26.666 118.369 26.1713 118.36 25.714C118.36 25.2473 118.355 24.8693 118.346 24.58C118.346 24.2907 118.346 24.146 118.346 24.146C118.439 24.1273 118.598 24.1133 118.822 24.104C119.055 24.0947 119.307 24.104 119.578 24.132C119.849 24.16 120.101 24.2253 120.334 24.328C120.446 24.3747 120.595 24.4213 120.782 24.468C120.978 24.5053 121.165 24.524 121.342 24.524C121.529 24.524 121.664 24.496 121.748 24.44C121.925 24.3093 122.103 24.1973 122.28 24.104C122.467 24.0107 122.653 23.9407 122.84 23.894ZM132.65 29.466C132.66 29.6713 132.674 29.9233 132.692 30.222C132.72 30.5207 132.781 30.81 132.874 31.09C132.968 31.37 133.117 31.594 133.322 31.762C133.089 31.9207 132.851 32.0327 132.608 32.098C132.366 32.1727 132.128 32.1913 131.894 32.154C131.829 32.1353 131.759 32.112 131.684 32.084C131.61 32.0653 131.507 32.0373 131.376 32C131.162 31.9347 130.91 31.9207 130.62 31.958C130.331 31.9953 130.028 32.042 129.71 32.098C129.402 32.1633 129.099 32.196 128.8 32.196C128.315 32.196 127.83 32.112 127.344 31.944C126.859 31.7667 126.42 31.496 126.028 31.132C125.636 30.768 125.338 30.306 125.132 29.746C124.927 29.186 124.866 28.514 124.95 27.73C125.006 27.1887 125.16 26.694 125.412 26.246C125.664 25.7887 125.972 25.3967 126.336 25.07C126.71 24.734 127.102 24.4773 127.512 24.3C127.932 24.1133 128.338 24.0247 128.73 24.034C129.029 24.0433 129.258 24.0527 129.416 24.062C129.584 24.0713 129.799 24.0947 130.06 24.132C130.219 24.1507 130.42 24.1273 130.662 24.062C130.905 23.9967 131.148 23.9267 131.39 23.852C131.642 23.768 131.857 23.726 132.034 23.726C132.305 23.7167 132.496 23.726 132.608 23.754C132.72 23.7727 132.814 23.7913 132.888 23.81C132.832 23.978 132.786 24.23 132.748 24.566C132.711 24.902 132.683 25.2847 132.664 25.714C132.655 26.134 132.646 26.5727 132.636 27.03C132.627 27.4873 132.622 27.926 132.622 28.346C132.632 28.766 132.641 29.1393 132.65 29.466ZM127.386 28.178C127.405 28.6447 127.489 29.0087 127.638 29.27C127.797 29.522 127.984 29.6993 128.198 29.802C128.422 29.9047 128.637 29.956 128.842 29.956C129.253 29.9653 129.556 29.8067 129.752 29.48C129.948 29.1533 130.042 28.7007 130.032 28.122C130.032 27.9633 130.014 27.7767 129.976 27.562C129.948 27.3473 129.892 27.1373 129.808 26.932C129.734 26.7267 129.626 26.554 129.486 26.414C129.356 26.274 129.183 26.204 128.968 26.204C128.539 26.204 128.161 26.3627 127.834 26.68C127.517 26.9973 127.368 27.4967 127.386 28.178ZM139.096 24.482C139.273 24.4633 139.446 24.4353 139.614 24.398C139.782 24.3513 139.899 24.2953 139.964 24.23C140.057 24.3233 140.127 24.496 140.174 24.748C140.23 24.9907 140.244 25.2567 140.216 25.546C140.197 25.8353 140.127 26.1013 140.006 26.344C139.894 26.5867 139.721 26.75 139.488 26.834C139.367 26.8713 139.259 26.918 139.166 26.974C139.073 27.0207 138.998 27.1047 138.942 27.226C138.849 27.422 138.769 27.6693 138.704 27.968C138.639 28.2667 138.611 28.6027 138.62 28.976C138.62 28.976 138.62 29.0647 138.62 29.242C138.629 29.41 138.634 29.62 138.634 29.872C138.634 30.1147 138.625 30.3527 138.606 30.586C138.597 30.8193 138.573 31.0013 138.536 31.132C138.387 31.58 138.083 31.9253 137.626 32.168C137.169 32.4107 136.483 32.4713 135.568 32.35C135.643 32.2193 135.703 32.0047 135.75 31.706C135.797 31.4073 135.834 31.0807 135.862 30.726C135.89 30.3713 135.899 30.054 135.89 29.774C135.89 29.718 135.885 29.606 135.876 29.438C135.867 29.27 135.857 29.06 135.848 28.808C135.792 28.2293 135.638 27.7253 135.386 27.296C135.321 27.1933 135.199 27.072 135.022 26.932C134.854 26.792 134.705 26.68 134.574 26.596C134.406 26.4933 134.28 26.302 134.196 26.022C134.112 25.742 134.056 25.448 134.028 25.14C134.009 24.8227 134.005 24.5567 134.014 24.342C134.042 24.3513 134.112 24.3653 134.224 24.384C134.336 24.4027 134.457 24.4167 134.588 24.426C134.719 24.4353 134.821 24.44 134.896 24.44C135.12 24.4213 135.302 24.3327 135.442 24.174C135.582 24.0153 135.652 23.7727 135.652 23.446C135.652 23.0727 135.708 22.704 135.82 22.34C135.941 21.976 136.133 21.6633 136.394 21.402C136.665 21.1313 137.019 20.954 137.458 20.87C137.757 20.814 138.074 20.772 138.41 20.744C138.755 20.716 139.082 20.6973 139.39 20.688C139.698 20.6787 139.945 20.674 140.132 20.674C140.328 20.674 140.426 20.674 140.426 20.674C140.426 20.674 140.426 20.772 140.426 20.968C140.426 21.1547 140.403 21.3787 140.356 21.64C140.319 21.9013 140.239 22.1487 140.118 22.382C140.006 22.606 139.833 22.7553 139.6 22.83C139.255 22.942 138.975 23.124 138.76 23.376C138.555 23.628 138.457 23.852 138.466 24.048C138.466 24.2533 138.527 24.384 138.648 24.44C138.769 24.4867 138.919 24.5007 139.096 24.482ZM147.497 24.23C147.591 24.3233 147.661 24.496 147.707 24.748C147.763 24.9907 147.777 25.2613 147.749 25.56C147.731 25.8493 147.661 26.1153 147.539 26.358C147.427 26.5913 147.255 26.75 147.021 26.834C146.657 26.9647 146.391 27.198 146.223 27.534C146.055 27.87 145.957 28.2947 145.929 28.808V29.998C145.948 30.1473 146.009 30.2687 146.111 30.362C146.223 30.4553 146.331 30.5207 146.433 30.558C146.545 30.5953 146.601 30.614 146.601 30.614C146.601 30.614 146.583 30.6793 146.545 30.81C146.517 30.9407 146.461 31.0947 146.377 31.272C146.293 31.4493 146.172 31.622 146.013 31.79C145.855 31.9487 145.649 32.0607 145.397 32.126C145.267 32.154 145.089 32.1587 144.865 32.14C144.651 32.1307 144.431 32.0887 144.207 32.014C143.983 31.9393 143.797 31.8367 143.647 31.706C143.563 31.6313 143.493 31.552 143.437 31.468C143.381 31.384 143.339 31.258 143.311 31.09C143.293 30.922 143.283 30.684 143.283 30.376V28.878C143.274 28.3367 143.157 27.8887 142.933 27.534C142.709 27.17 142.415 26.8573 142.051 26.596C141.883 26.4747 141.762 26.2787 141.687 26.008C141.622 25.728 141.58 25.434 141.561 25.126C141.543 24.818 141.538 24.5567 141.547 24.342C141.594 24.3513 141.72 24.37 141.925 24.398C142.131 24.426 142.308 24.44 142.457 24.44C142.756 24.4307 142.961 24.314 143.073 24.09C143.185 23.866 143.241 23.586 143.241 23.25L143.227 22.004C143.311 21.9947 143.451 21.9853 143.647 21.976C143.853 21.9573 144.077 21.9573 144.319 21.976C144.562 21.9947 144.795 22.0413 145.019 22.116C145.253 22.1813 145.449 22.2887 145.607 22.438C145.775 22.5873 145.873 22.788 145.901 23.04C145.901 23.068 145.901 23.1053 145.901 23.152C145.911 23.1893 145.915 23.236 145.915 23.292H145.929C145.929 23.4133 145.943 23.558 145.971 23.726C146.009 23.894 146.06 24.034 146.125 24.146C146.191 24.2393 146.293 24.3093 146.433 24.356C146.573 24.3933 146.709 24.4167 146.839 24.426C146.979 24.426 147.082 24.4167 147.147 24.398C147.25 24.37 147.325 24.3467 147.371 24.328C147.418 24.3 147.46 24.2673 147.497 24.23ZM152.119 23.866C152.81 23.866 153.398 23.964 153.883 24.16C154.378 24.356 154.756 24.5987 155.017 24.888C155.279 25.1773 155.405 25.462 155.395 25.742C155.395 25.8913 155.33 26.0593 155.199 26.246C155.069 26.4327 154.896 26.5913 154.681 26.722C154.476 26.8433 154.247 26.89 153.995 26.862C154.061 26.694 154.019 26.5353 153.869 26.386C153.72 26.2367 153.505 26.1153 153.225 26.022C152.945 25.9193 152.642 25.8633 152.315 25.854C151.942 25.8353 151.69 25.8773 151.559 25.98C151.429 26.0733 151.354 26.176 151.335 26.288C151.307 26.4093 151.363 26.5167 151.503 26.61C151.643 26.694 151.825 26.7733 152.049 26.848C152.283 26.9133 152.525 26.974 152.777 27.03C153.039 27.0767 153.277 27.1187 153.491 27.156C153.715 27.1933 153.888 27.2307 154.009 27.268C154.569 27.436 154.98 27.6553 155.241 27.926C155.503 28.1873 155.671 28.4673 155.745 28.766C155.829 29.0647 155.862 29.3587 155.843 29.648C155.825 30.1147 155.703 30.5067 155.479 30.824C155.265 31.132 154.994 31.3793 154.667 31.566C154.35 31.7527 154.014 31.8927 153.659 31.986C153.314 32.07 152.987 32.126 152.679 32.154C152.381 32.182 152.152 32.196 151.993 32.196C151.508 32.1867 151.051 32.1353 150.621 32.042C150.201 31.958 149.837 31.846 149.529 31.706C149.231 31.566 149.016 31.4167 148.885 31.258C148.792 31.146 148.703 30.9873 148.619 30.782C148.535 30.5767 148.484 30.3573 148.465 30.124C148.456 29.8813 148.507 29.6527 148.619 29.438C148.731 29.214 148.937 29.032 149.235 28.892C149.291 29.0787 149.441 29.2467 149.683 29.396C149.935 29.5453 150.234 29.6667 150.579 29.76C150.934 29.8533 151.284 29.9187 151.629 29.956C151.965 29.984 152.283 29.9793 152.581 29.942C152.88 29.9047 153.043 29.7973 153.071 29.62C153.09 29.5267 153.043 29.4333 152.931 29.34C152.819 29.2467 152.614 29.1673 152.315 29.102C151.998 29.0273 151.718 28.9713 151.475 28.934C151.242 28.8873 151.009 28.836 150.775 28.78C150.337 28.668 149.954 28.4907 149.627 28.248C149.301 28.0053 149.053 27.716 148.885 27.38C148.727 27.0347 148.671 26.6707 148.717 26.288C148.792 25.7373 148.993 25.2847 149.319 24.93C149.655 24.5753 150.071 24.3093 150.565 24.132C151.06 23.9547 151.578 23.866 152.119 23.866ZM167.147 30.222C167.157 30.334 167.185 30.474 167.231 30.642C167.287 30.8007 167.339 30.9453 167.385 31.076C167.441 31.2067 167.469 31.272 167.469 31.272C167.423 31.328 167.325 31.4307 167.175 31.58C167.026 31.7293 166.835 31.8647 166.601 31.986C166.377 32.098 166.121 32.1307 165.831 32.084C165.318 31.9907 164.968 31.776 164.781 31.44C164.604 31.104 164.511 30.7213 164.501 30.292C164.501 30.2173 164.506 30.0727 164.515 29.858C164.525 29.6433 164.529 29.4053 164.529 29.144C164.539 28.8733 164.539 28.6213 164.529 28.388C164.529 28.1453 164.511 27.968 164.473 27.856C164.417 27.6413 164.333 27.5107 164.221 27.464C164.109 27.4173 163.993 27.4267 163.871 27.492C163.75 27.548 163.647 27.6413 163.563 27.772C163.479 27.9027 163.437 28.0427 163.437 28.192C163.428 28.4253 163.423 28.626 163.423 28.794C163.423 28.962 163.428 29.1813 163.437 29.452C163.437 29.5173 163.447 29.6387 163.465 29.816C163.484 29.9933 163.507 30.194 163.535 30.418C163.563 30.642 163.591 30.8613 163.619 31.076C163.657 31.2813 163.694 31.4493 163.731 31.58C163.498 31.748 163.223 31.888 162.905 32C162.597 32.112 162.201 32.112 161.715 32C161.463 31.944 161.277 31.8273 161.155 31.65C161.034 31.4727 160.95 31.2673 160.903 31.034C160.866 30.7913 160.847 30.544 160.847 30.292C160.847 30.04 160.847 29.8067 160.847 29.592C160.847 29.4893 160.852 29.326 160.861 29.102C160.88 28.878 160.889 28.6447 160.889 28.402C160.889 28.15 160.866 27.9493 160.819 27.8C160.782 27.6787 160.721 27.604 160.637 27.576C160.563 27.5387 160.497 27.5247 160.441 27.534C160.292 27.5433 160.161 27.5853 160.049 27.66C159.947 27.7347 159.877 27.8887 159.839 28.122C159.821 28.234 159.807 28.4207 159.797 28.682C159.797 28.934 159.797 29.2047 159.797 29.494C159.797 29.774 159.797 30.0213 159.797 30.236C159.807 30.4507 159.816 30.5767 159.825 30.614C159.853 30.7447 159.909 30.8427 159.993 30.908C160.077 30.964 160.119 30.992 160.119 30.992C160.119 30.992 160.068 31.0527 159.965 31.174C159.872 31.286 159.741 31.4167 159.573 31.566C159.405 31.7153 159.209 31.846 158.985 31.958C158.761 32.0607 158.519 32.098 158.257 32.07C158.005 32.0513 157.767 31.9207 157.543 31.678C157.329 31.4353 157.217 31.0993 157.207 30.67L157.165 25.294C157.156 24.958 157.119 24.6827 157.053 24.468C156.997 24.2533 156.969 24.146 156.969 24.146C157.063 24.1273 157.231 24.1133 157.473 24.104C157.716 24.0947 157.987 24.104 158.285 24.132C158.584 24.1507 158.855 24.216 159.097 24.328C159.247 24.3933 159.415 24.4213 159.601 24.412C159.797 24.3933 159.965 24.342 160.105 24.258C160.264 24.174 160.423 24.0993 160.581 24.034C160.749 23.9687 160.917 23.9267 161.085 23.908C161.281 23.8893 161.519 23.908 161.799 23.964C162.079 24.02 162.369 24.1227 162.667 24.272C162.854 24.3653 163.073 24.4307 163.325 24.468C163.577 24.5053 163.75 24.4913 163.843 24.426C164.03 24.2953 164.226 24.1833 164.431 24.09C164.646 23.9967 164.861 23.936 165.075 23.908C165.234 23.8893 165.421 23.8987 165.635 23.936C165.859 23.964 166.074 24.034 166.279 24.146C166.494 24.258 166.676 24.4167 166.825 24.622C166.984 24.8273 167.082 25.0887 167.119 25.406C167.147 25.6767 167.161 26.0313 167.161 26.47C167.171 26.8993 167.171 27.3567 167.161 27.842C167.152 28.318 167.143 28.7707 167.133 29.2C167.133 29.62 167.138 29.9607 167.147 30.222ZM176.318 29.466C176.328 29.6713 176.342 29.9233 176.36 30.222C176.388 30.5207 176.449 30.81 176.542 31.09C176.636 31.37 176.785 31.594 176.99 31.762C176.757 31.9207 176.519 32.0327 176.276 32.098C176.034 32.1727 175.796 32.1913 175.562 32.154C175.497 32.1353 175.427 32.112 175.352 32.084C175.278 32.0653 175.175 32.0373 175.044 32C174.83 31.9347 174.578 31.9207 174.288 31.958C173.999 31.9953 173.696 32.042 173.378 32.098C173.07 32.1633 172.767 32.196 172.468 32.196C171.983 32.196 171.498 32.112 171.012 31.944C170.527 31.7667 170.088 31.496 169.696 31.132C169.304 30.768 169.006 30.306 168.8 29.746C168.595 29.186 168.534 28.514 168.618 27.73C168.674 27.1887 168.828 26.694 169.08 26.246C169.332 25.7887 169.64 25.3967 170.004 25.07C170.378 24.734 170.77 24.4773 171.18 24.3C171.6 24.1133 172.006 24.0247 172.398 24.034C172.697 24.0433 172.926 24.0527 173.084 24.062C173.252 24.0713 173.467 24.0947 173.728 24.132C173.887 24.1507 174.088 24.1273 174.33 24.062C174.573 23.9967 174.816 23.9267 175.058 23.852C175.31 23.768 175.525 23.726 175.702 23.726C175.973 23.7167 176.164 23.726 176.276 23.754C176.388 23.7727 176.482 23.7913 176.556 23.81C176.5 23.978 176.454 24.23 176.416 24.566C176.379 24.902 176.351 25.2847 176.332 25.714C176.323 26.134 176.314 26.5727 176.304 27.03C176.295 27.4873 176.29 27.926 176.29 28.346C176.3 28.766 176.309 29.1393 176.318 29.466ZM171.054 28.178C171.073 28.6447 171.157 29.0087 171.306 29.27C171.465 29.522 171.652 29.6993 171.866 29.802C172.09 29.9047 172.305 29.956 172.51 29.956C172.921 29.9653 173.224 29.8067 173.42 29.48C173.616 29.1533 173.71 28.7007 173.7 28.122C173.7 27.9633 173.682 27.7767 173.644 27.562C173.616 27.3473 173.56 27.1373 173.476 26.932C173.402 26.7267 173.294 26.554 173.154 26.414C173.024 26.274 172.851 26.204 172.636 26.204C172.207 26.204 171.829 26.3627 171.502 26.68C171.185 26.9973 171.036 27.4967 171.054 28.178ZM185.736 30.222C185.745 30.6327 185.806 30.922 185.918 31.09C186.039 31.2487 186.1 31.328 186.1 31.328C186.1 31.328 186.016 31.3887 185.848 31.51C185.689 31.622 185.475 31.7387 185.204 31.86C184.933 31.9813 184.63 32.042 184.294 32.042C183.799 32.042 183.477 31.9067 183.328 31.636C183.179 31.3653 183.099 31.0153 183.09 30.586C183.09 30.5113 183.095 30.348 183.104 30.096C183.113 29.844 183.118 29.5593 183.118 29.242C183.127 28.9153 183.127 28.6167 183.118 28.346C183.109 28.066 183.09 27.87 183.062 27.758C182.959 27.3847 182.759 27.2213 182.46 27.268C182.227 27.296 182.007 27.4313 181.802 27.674C181.597 27.9073 181.429 28.1873 181.298 28.514C181.167 28.8407 181.102 29.1487 181.102 29.438C181.102 29.5873 181.093 29.7367 181.074 29.886C181.065 30.026 181.055 30.1567 181.046 30.278C181.037 30.362 181.046 30.4647 181.074 30.586C181.111 30.7073 181.177 30.8053 181.27 30.88C181.205 30.992 181.074 31.1367 180.878 31.314C180.691 31.4913 180.486 31.6547 180.262 31.804C180.047 31.944 179.861 32.0233 179.702 32.042C179.553 32.0513 179.375 32.0047 179.17 31.902C178.974 31.7993 178.801 31.6453 178.652 31.44C178.512 31.2347 178.437 30.9873 178.428 30.698C178.428 30.6233 178.428 30.4507 178.428 30.18C178.437 29.9093 178.442 29.5827 178.442 29.2C178.451 28.8173 178.456 28.4113 178.456 27.982C178.465 27.5527 178.47 27.1373 178.47 26.736C178.47 26.3347 178.47 25.9893 178.47 25.7C178.47 25.448 178.437 25.2053 178.372 24.972C178.316 24.7293 178.255 24.5333 178.19 24.384C178.134 24.2253 178.106 24.146 178.106 24.146C178.19 24.1273 178.335 24.1133 178.54 24.104C178.755 24.0947 178.993 24.0993 179.254 24.118C179.515 24.1367 179.772 24.1787 180.024 24.244C180.285 24.3093 180.505 24.412 180.682 24.552C180.869 24.692 181.055 24.7807 181.242 24.818C181.438 24.846 181.592 24.8273 181.704 24.762C182.031 24.5473 182.362 24.3607 182.698 24.202C183.034 24.0433 183.361 23.9453 183.678 23.908C183.837 23.8893 184.023 23.8987 184.238 23.936C184.453 23.964 184.663 24.034 184.868 24.146C185.083 24.258 185.265 24.4167 185.414 24.622C185.573 24.8273 185.671 25.0887 185.708 25.406C185.773 25.9473 185.792 26.61 185.764 27.394C185.736 28.1687 185.727 29.1113 185.736 30.222ZM190.879 23.866C191.57 23.866 192.158 23.964 192.643 24.16C193.138 24.356 193.516 24.5987 193.777 24.888C194.038 25.1773 194.164 25.462 194.155 25.742C194.155 25.8913 194.09 26.0593 193.959 26.246C193.828 26.4327 193.656 26.5913 193.441 26.722C193.236 26.8433 193.007 26.89 192.755 26.862C192.82 26.694 192.778 26.5353 192.629 26.386C192.48 26.2367 192.265 26.1153 191.985 26.022C191.705 25.9193 191.402 25.8633 191.075 25.854C190.702 25.8353 190.45 25.8773 190.319 25.98C190.188 26.0733 190.114 26.176 190.095 26.288C190.067 26.4093 190.123 26.5167 190.263 26.61C190.403 26.694 190.585 26.7733 190.809 26.848C191.042 26.9133 191.285 26.974 191.537 27.03C191.798 27.0767 192.036 27.1187 192.251 27.156C192.475 27.1933 192.648 27.2307 192.769 27.268C193.329 27.436 193.74 27.6553 194.001 27.926C194.262 28.1873 194.43 28.4673 194.505 28.766C194.589 29.0647 194.622 29.3587 194.603 29.648C194.584 30.1147 194.463 30.5067 194.239 30.824C194.024 31.132 193.754 31.3793 193.427 31.566C193.11 31.7527 192.774 31.8927 192.419 31.986C192.074 32.07 191.747 32.126 191.439 32.154C191.14 32.182 190.912 32.196 190.753 32.196C190.268 32.1867 189.81 32.1353 189.381 32.042C188.961 31.958 188.597 31.846 188.289 31.706C187.99 31.566 187.776 31.4167 187.645 31.258C187.552 31.146 187.463 30.9873 187.379 30.782C187.295 30.5767 187.244 30.3573 187.225 30.124C187.216 29.8813 187.267 29.6527 187.379 29.438C187.491 29.214 187.696 29.032 187.995 28.892C188.051 29.0787 188.2 29.2467 188.443 29.396C188.695 29.5453 188.994 29.6667 189.339 29.76C189.694 29.8533 190.044 29.9187 190.389 29.956C190.725 29.984 191.042 29.9793 191.341 29.942C191.64 29.9047 191.803 29.7973 191.831 29.62C191.85 29.5267 191.803 29.4333 191.691 29.34C191.579 29.2467 191.374 29.1673 191.075 29.102C190.758 29.0273 190.478 28.9713 190.235 28.934C190.002 28.8873 189.768 28.836 189.535 28.78C189.096 28.668 188.714 28.4907 188.387 28.248C188.06 28.0053 187.813 27.716 187.645 27.38C187.486 27.0347 187.43 26.6707 187.477 26.288C187.552 25.7373 187.752 25.2847 188.079 24.93C188.415 24.5753 188.83 24.3093 189.325 24.132C189.82 23.9547 190.338 23.866 190.879 23.866ZM203.303 30.222C203.312 30.39 203.34 30.5673 203.387 30.754C203.443 30.9313 203.574 31.062 203.779 31.146C203.658 31.3047 203.443 31.482 203.135 31.678C202.827 31.8647 202.496 31.986 202.141 32.042C201.814 32.0887 201.539 32.0513 201.315 31.93C201.1 31.7993 200.937 31.6127 200.825 31.37C200.722 31.1273 200.666 30.866 200.657 30.586C200.657 30.5113 200.662 30.3573 200.671 30.124C200.68 29.8813 200.685 29.606 200.685 29.298C200.685 28.99 200.68 28.696 200.671 28.416C200.671 28.136 200.657 27.9167 200.629 27.758C200.573 27.45 200.461 27.2773 200.293 27.24C200.134 27.1933 199.952 27.2307 199.747 27.352C199.42 27.5387 199.15 27.87 198.935 28.346C198.73 28.8127 198.622 29.41 198.613 30.138C198.604 30.4273 198.641 30.6373 198.725 30.768C198.809 30.8893 198.851 30.95 198.851 30.95C198.851 30.95 198.804 31.0293 198.711 31.188C198.618 31.3467 198.45 31.5193 198.207 31.706C197.964 31.8833 197.61 32.0093 197.143 32.084C196.882 32.1213 196.667 32.0747 196.499 31.944C196.331 31.804 196.21 31.608 196.135 31.356C196.06 31.104 196.018 30.838 196.009 30.558L195.967 22.424C195.958 22.0413 195.916 21.7053 195.841 21.416C195.766 21.1173 195.729 20.968 195.729 20.968C195.962 20.94 196.233 20.9307 196.541 20.94C196.858 20.9493 197.166 20.996 197.465 21.08C197.773 21.1547 198.034 21.2853 198.249 21.472C198.464 21.6587 198.59 21.9107 198.627 22.228C198.636 22.2933 198.646 22.4193 198.655 22.606C198.674 22.7833 198.683 22.9653 198.683 23.152C198.674 23.4133 198.711 23.6327 198.795 23.81C198.879 23.9873 198.991 24.1227 199.131 24.216C199.29 24.3093 199.49 24.342 199.733 24.314C199.976 24.2767 200.19 24.2253 200.377 24.16C200.564 24.0853 200.718 24.0293 200.839 23.992C200.97 23.9547 201.105 23.9267 201.245 23.908C201.404 23.8893 201.59 23.8987 201.805 23.936C202.02 23.964 202.23 24.034 202.435 24.146C202.65 24.258 202.832 24.4167 202.981 24.622C203.14 24.8273 203.238 25.0887 203.275 25.406C203.34 25.9473 203.354 26.61 203.317 27.394C203.289 28.1687 203.284 29.1113 203.303 30.222ZM206.471 23.67C206.153 23.6793 205.869 23.5907 205.617 23.404C205.374 23.2173 205.187 22.9887 205.057 22.718C204.935 22.438 204.889 22.172 204.917 21.92C204.963 21.5373 205.136 21.2667 205.435 21.108C205.733 20.9493 206.046 20.8653 206.373 20.856C206.839 20.8373 207.203 20.9587 207.465 21.22C207.726 21.4813 207.857 21.78 207.857 22.116C207.857 22.34 207.805 22.5687 207.703 22.802C207.609 23.0353 207.46 23.236 207.255 23.404C207.049 23.5627 206.788 23.6513 206.471 23.67ZM207.955 30.586C207.964 30.754 208.015 30.8987 208.109 31.02C208.211 31.132 208.333 31.2393 208.473 31.342C208.407 31.426 208.323 31.5147 208.221 31.608C208.118 31.7013 207.964 31.79 207.759 31.874C207.563 31.9487 207.278 32.0093 206.905 32.056C206.783 32.0653 206.629 32.0513 206.443 32.014C206.256 31.986 206.069 31.8973 205.883 31.748C205.705 31.5893 205.561 31.342 205.449 31.006C205.337 30.6607 205.29 30.1893 205.309 29.592C205.318 29.4893 205.318 29.2887 205.309 28.99C205.309 28.6913 205.304 28.3367 205.295 27.926C205.295 27.5153 205.29 27.0907 205.281 26.652C205.281 26.2133 205.276 25.8073 205.267 25.434C205.267 25.0513 205.262 24.7433 205.253 24.51C205.253 24.2673 205.253 24.146 205.253 24.146C205.337 24.1367 205.477 24.1273 205.673 24.118C205.878 24.0993 206.102 24.0993 206.345 24.118C206.587 24.1367 206.821 24.1833 207.045 24.258C207.278 24.3233 207.474 24.4307 207.633 24.58C207.801 24.7293 207.899 24.93 207.927 25.182C207.973 25.5367 207.992 26.0127 207.983 26.61C207.973 27.198 207.959 27.842 207.941 28.542C207.922 29.2327 207.927 29.914 207.955 30.586ZM213.4 23.908C214.231 23.8427 214.931 23.9827 215.5 24.328C216.07 24.664 216.504 25.1353 216.802 25.742C217.101 26.3393 217.255 27.002 217.264 27.73C217.283 28.402 217.185 28.9993 216.97 29.522C216.756 30.0353 216.462 30.474 216.088 30.838C215.715 31.1927 215.295 31.4633 214.828 31.65C214.371 31.8367 213.9 31.93 213.414 31.93C213.312 31.93 213.176 31.944 213.008 31.972C212.85 31.9907 212.719 32.042 212.616 32.126C212.551 32.1913 212.504 32.2613 212.476 32.336C212.458 32.4107 212.453 32.4993 212.462 32.602C212.481 32.77 212.518 32.8867 212.574 32.952C212.64 33.0267 212.696 33.106 212.742 33.19C212.64 33.302 212.495 33.4233 212.308 33.554C212.122 33.6847 211.893 33.7873 211.622 33.862C211.361 33.9367 211.048 33.946 210.684 33.89C210.46 33.8527 210.264 33.708 210.096 33.456C209.928 33.204 209.84 32.8633 209.83 32.434L209.788 25.924C209.788 25.4013 209.756 24.9767 209.69 24.65C209.625 24.314 209.592 24.146 209.592 24.146C209.714 24.1087 209.905 24.076 210.166 24.048C210.437 24.02 210.717 24.0387 211.006 24.104C211.118 24.132 211.258 24.1647 211.426 24.202C211.604 24.23 211.795 24.23 212 24.202C212.271 24.174 212.542 24.1227 212.812 24.048C213.083 23.964 213.279 23.9173 213.4 23.908ZM213.666 29.732C213.965 29.732 214.245 29.578 214.506 29.27C214.768 28.9527 214.898 28.5093 214.898 27.94C214.898 27.5573 214.833 27.2353 214.702 26.974C214.581 26.7033 214.427 26.5027 214.24 26.372C214.054 26.232 213.872 26.162 213.694 26.162C213.517 26.162 213.335 26.176 213.148 26.204C212.971 26.232 212.812 26.3393 212.672 26.526C212.542 26.7127 212.458 27.044 212.42 27.52C212.374 28.136 212.411 28.6027 212.532 28.92C212.663 29.2373 212.836 29.452 213.05 29.564C213.265 29.676 213.47 29.732 213.666 29.732Z" fill="#4500FB"/>
</g>
</svg>
