<svg width="256" height="22" viewBox="0 0 256 22" fill="none" xmlns="http://www.w3.org/2000/svg">
<g style="mix-blend-mode:color-burn">
<path d="M0.27832 21V0.492188H10.9424V4.59375H4.40918V8.75391H8.18848V12.8848H4.40918V16.8691H10.9424V21H0.27832ZM13.2861 21V0.492188H17.417V16.8984H24.3018V21H13.2861ZM25.9717 21V0.492188H36.6357V4.59375H30.1025V8.75391H33.8818V12.8848H30.1025V16.8691H36.6357V21H25.9717ZM38.9795 21V0.492188H43.1104V21H38.9795ZM44.2822 11.0098L47.417 0.492188H51.4893L48.3838 11.0098L51.6064 21H47.5635L44.2822 11.0098ZM52.4854 4.53516V0.492188H65.1709V4.53516H60.8936V21H56.7627V4.53516H52.4854ZM66.8408 21V0.492188H70.9717V21H66.8408ZM72.5537 12.6211V8.95898H72.9346C74.1846 8.95898 74.9854 8.45117 75.3369 7.43555C75.415 7.18164 75.4541 6.91797 75.4541 6.64453C75.4541 5.60937 74.9658 4.91602 73.9893 4.56445C73.6768 4.44727 73.3252 4.38867 72.9346 4.38867H72.5537V0.492188H73.1982C75.7568 0.53125 77.5537 1.43945 78.5889 3.2168C79.0771 4.05664 79.3213 5.00391 79.3213 6.05859C79.3018 8.07031 78.6377 9.61328 77.3291 10.6875C78.3057 11.3125 78.9307 12.4453 79.2041 14.0859C79.2236 14.2812 79.2432 14.4668 79.2627 14.6426L79.7607 21H75.9521L75.5127 15.7852C75.3564 14.2227 74.9072 13.2559 74.165 12.8848C73.8135 12.7285 73.3838 12.6406 72.876 12.6211H72.5537ZM81.6357 21V0.492188H85.7666V21H81.6357ZM88.2275 21V0.492188H92.3584V21H88.2275ZM93.5303 11.0098L96.665 0.492188H100.737L97.6318 11.0098L100.854 21H96.8115L93.5303 11.0098ZM109.556 21V0.492188H120.22V4.59375H113.687V8.75391H117.466V12.8848H113.687V16.8691H120.22V21H109.556ZM122.563 21V0.492188H133.228V4.59375H126.694V8.75391H130.474V12.8848H126.694V16.8691H133.228V21H122.563ZM135.571 21V0.492188H139.702V16.8984H146.587V21H135.571ZM155.288 20.9707V0.492188H165.952V4.59375H159.419V8.75391H163.198V12.8848H159.419V20.9707H155.288ZM167.944 21V0.492188H178.608V4.59375H172.075V8.75391H175.854V12.8848H172.075V16.8691H178.608V21H167.944ZM180.308 16.3711L184.028 15.0527C184.028 15.541 184.165 15.9707 184.438 16.3418C184.712 16.7129 184.985 16.957 185.259 17.0742L185.669 17.2793V21.0879C184.009 21.0879 182.593 20.3652 181.421 18.9199C180.698 18.002 180.327 17.1523 180.308 16.3711ZM180.542 6.11719C180.542 3.96875 181.46 2.35742 183.296 1.2832C184.136 0.775391 184.927 0.511719 185.669 0.492188V4.35938C185.181 4.49609 184.819 4.84766 184.585 5.41406C184.507 5.58984 184.468 5.77539 184.468 5.9707C184.468 6.77148 185.063 7.45508 186.255 8.02148C186.509 8.13867 186.919 8.31445 187.485 8.54883C188.423 8.91992 189.087 9.22266 189.478 9.45703C191.06 10.3945 192.114 11.3516 192.642 12.3281C193.032 13.0898 193.228 13.9395 193.228 14.877C193.228 16.6543 192.554 18.1777 191.206 19.4473C190.054 20.541 188.745 21.0879 187.28 21.0879V17.2793C188.042 17.1816 188.579 16.7812 188.892 16.0781C189.028 15.7656 189.097 15.4238 189.097 15.0527C189.097 14.0566 188.354 13.2363 186.87 12.5918C186.597 12.4746 186.167 12.3086 185.581 12.0938C184.897 11.8594 184.419 11.6738 184.146 11.5371C182.466 10.7363 181.392 9.70117 180.923 8.43164C180.669 7.74805 180.542 6.97656 180.542 6.11719ZM187.28 4.35938V0.492188C188.921 0.492188 190.298 1.18555 191.411 2.57227C192.056 3.39258 192.388 4.13477 192.407 4.79883L188.599 6.05859C188.599 5.23828 188.198 4.68164 187.397 4.38867C187.319 4.36914 187.28 4.35938 187.28 4.35938ZM194.253 4.53516V0.492188H206.938V4.53516H202.661V21H198.53V4.53516H194.253ZM208.608 21V0.492188H212.739V21H208.608ZM214.204 0.492188H218.423L223.081 16.3711L221.528 21H220.151L214.204 0.492188ZM221.733 5.94141L223.345 0.492188H227.563C227.544 0.550781 226.343 4.55469 223.96 12.5039H223.667L221.733 5.94141ZM228.735 21L232.515 3.94922H232.954L234.712 12.1523L232.778 21H228.735ZM234.976 18.5098L235.854 14.4668H236.909L233.804 0.492188H237.876L242.71 21H238.608L238.022 18.5098H234.976ZM244.497 21V0.492188H248.628V16.8984H255.513V21H244.497Z" fill="#4500FB"/>
</g>
</svg>
