<svg width="57" height="12" viewBox="0 0 57 12" fill="none" xmlns="http://www.w3.org/2000/svg">
<path d="M0.0214844 11V9.61572L1.14941 9.38867V1.95459L0.0214844 1.72754V0.335938H1.14941H3.49316H4.8042V1.72754L3.49316 1.95459V9.20557H6.27637L6.35693 7.6748H8.14404V11H0.0214844ZM8.7959 11V9.61572L9.92383 9.38867V1.95459L8.7959 1.72754V0.335938H13.3809V1.72754L12.2603 1.95459V9.38867L13.3809 9.61572V11H8.7959ZM14.0986 11V9.61572L15.2119 9.38867V1.95459L14.0986 1.72754V0.335938H15.2119H17.5996L22.0674 7.4624L22.1113 7.45508V1.95459L20.7271 1.72754V0.335938H24.1987H25.3193V1.72754L24.1987 1.95459V11H21.9062L17.3433 3.9834H17.2993V9.38867L18.6909 9.61572V11H14.0986ZM25.876 11V9.61572L27.0039 9.38867V1.95459L25.876 1.72754V0.335938H34.2695V3.30957H32.4897L32.4092 2.1377H29.3477V4.58398H32.856V6.39307H29.3477V9.19824H32.563L32.6436 7.98242H34.4087V11H25.876ZM40.832 11.1538C39.9531 11.1538 39.1816 11.0073 38.5176 10.7144C37.8584 10.4214 37.3481 9.99414 36.9868 9.43262C36.6255 8.86621 36.4448 8.17773 36.4448 7.36719V1.95459L35.3242 1.72754V0.335938H39.9092V1.72754L38.7886 1.95459V7.36719C38.7886 7.81641 38.8691 8.18994 39.0303 8.48779C39.1914 8.78564 39.4233 9.00781 39.7261 9.1543C40.0337 9.30078 40.3999 9.37402 40.8247 9.37402C41.2642 9.37402 41.6377 9.30078 41.9453 9.1543C42.2529 9.00781 42.4849 8.78564 42.6411 8.48779C42.8022 8.18994 42.8828 7.81641 42.8828 7.36719V1.95459L41.7695 1.72754V0.335938H46.3545V1.72754L45.2266 1.95459V7.36719C45.2266 8.16797 45.041 8.85156 44.6699 9.41797C44.3037 9.98438 43.791 10.4165 43.1318 10.7144C42.4775 11.0073 41.7109 11.1538 40.832 11.1538ZM46.9111 11V9.61572L48.0391 9.38867V1.95459L46.9111 1.72754V0.335938H48.0391H52.0381C52.873 0.335938 53.5933 0.482422 54.1987 0.775391C54.8091 1.06348 55.2778 1.46875 55.605 1.99121C55.9321 2.50879 56.0957 3.11426 56.0957 3.80762C56.0957 4.49609 55.9321 5.09912 55.605 5.6167C55.2778 6.13428 54.8091 6.53711 54.1987 6.8252C53.5933 7.11328 52.873 7.25732 52.0381 7.25732H50.3828V9.38867L51.5034 9.61572V11H46.9111ZM50.3828 5.45557H52.0381C52.6045 5.45557 53.0317 5.30176 53.3198 4.99414C53.6079 4.68652 53.752 4.2959 53.752 3.82227C53.752 3.3291 53.6079 2.92383 53.3198 2.60645C53.0317 2.28906 52.6045 2.13037 52.0381 2.13037H50.3828V5.45557Z" fill="#404040"/>
</svg>
