<svg width="121" height="18" viewBox="0 0 121 18" fill="none" xmlns="http://www.w3.org/2000/svg">
<path d="M7.2 0.979999C7.98667 0.979999 8.74 1.12 9.46 1.4C10.1933 1.66667 10.8067 2.02667 11.3 2.48C11.8067 2.93333 12.1067 3.42 12.2 3.94C12.2667 4.28667 12.22 4.67333 12.06 5.1C11.9 5.51333 11.6467 5.88 11.3 6.2C10.9533 6.50667 10.5333 6.67333 10.04 6.7C9.86667 6.7 9.64667 6.68 9.38 6.64C9.11333 6.6 8.85333 6.52 8.6 6.4C8.36 6.28 8.16667 6.10667 8.02 5.88C8.22 5.77333 8.35333 5.66 8.42 5.54C8.48667 5.42 8.50667 5.3 8.48 5.18C8.42667 4.91333 8.26667 4.69333 8 4.52C7.74667 4.34667 7.43333 4.24 7.06 4.2C6.84667 4.17333 6.6 4.18 6.32 4.22C6.04 4.24667 5.78 4.34 5.54 4.5C5.31333 4.64667 5.15333 4.89333 5.06 5.24C5.00667 5.44 5.01333 5.66 5.08 5.9C5.16 6.12667 5.34667 6.34667 5.64 6.56C5.93333 6.76 6.38 6.93333 6.98 7.08C7.9 7.29333 8.75333 7.52667 9.54 7.78C10.34 8.03333 11.04 8.34667 11.64 8.72C12.24 9.09333 12.7 9.56 13.02 10.12C13.3533 10.6667 13.5067 11.3533 13.48 12.18C13.4667 12.7267 13.32 13.3 13.04 13.9C12.76 14.5 12.3533 15.06 11.82 15.58C11.2867 16.0867 10.6333 16.5 9.86 16.82C9.08667 17.14 8.20667 17.3 7.22 17.3C6.59333 17.3 5.94667 17.2467 5.28 17.14C4.61333 17.0333 3.98 16.8667 3.38 16.64C2.79333 16.4133 2.27333 16.1133 1.82 15.74C1.42 15.3933 1.13333 14.96 0.96 14.44C0.8 13.92 0.766667 13.4 0.86 12.88C0.953333 12.3467 1.18667 11.8933 1.56 11.52C1.94667 11.1467 2.48 10.94 3.16 10.9C3.02667 11.3 3.1 11.6933 3.38 12.08C3.67333 12.4533 4.10667 12.7733 4.68 13.04C5.25333 13.2933 5.88 13.4467 6.56 13.5C7.26667 13.5533 7.88 13.5267 8.4 13.42C8.93333 13.3133 9.22667 13.0933 9.28 12.76C9.34667 12.36 9.26667 12.04 9.04 11.8C8.81333 11.56 8.5 11.38 8.1 11.26C7.7 11.1267 7.26667 11.02 6.8 10.94C6.33333 10.8467 5.9 10.7533 5.5 10.66C4.96667 10.5133 4.42667 10.3267 3.88 10.1C3.34667 9.86 2.85333 9.56 2.4 9.2C1.96 8.84 1.6 8.4 1.32 7.88C1.04 7.36 0.893333 6.75333 0.88 6.06C0.866667 5.24667 1.03333 4.52667 1.38 3.9C1.72667 3.26 2.2 2.72667 2.8 2.3C3.4 1.86 4.08 1.53333 4.84 1.32C5.61333 1.09333 6.4 0.979999 7.2 0.979999ZM26.7773 3.02C26.804 3.32667 26.8373 3.82667 26.8773 4.52C26.9307 5.2 26.9707 5.98667 26.9973 6.88C27.024 7.77333 27.0307 8.69333 27.0173 9.64C27.0173 10.5733 26.984 11.46 26.9173 12.3C26.864 13.14 26.764 13.84 26.6173 14.4C26.3773 15.32 25.7107 16.0267 24.6173 16.52C23.524 17.0133 22.1507 17.26 20.4973 17.26C19.3907 17.26 18.4507 17.0533 17.6773 16.64C16.904 16.2267 16.304 15.66 15.8773 14.94C15.464 14.2067 15.2307 13.3667 15.1773 12.42C15.1507 11.9533 15.1307 11.36 15.1173 10.64C15.104 9.90667 15.0907 9.12 15.0773 8.28C15.0773 7.42667 15.0773 6.58667 15.0773 5.76C15.0773 4.93333 15.0773 4.18 15.0773 3.5C15.0907 2.80667 15.0973 2.25333 15.0973 1.84C15.0973 1.42667 15.0973 1.22 15.0973 1.22C15.244 1.19333 15.4973 1.18667 15.8573 1.2C16.2307 1.21333 16.6173 1.27333 17.0173 1.38C17.4707 1.48667 17.884 1.66667 18.2573 1.92C18.644 2.17333 18.864 2.54 18.9173 3.02C18.9573 3.42 18.9573 4.02 18.9173 4.82C18.8907 5.60667 18.864 6.51333 18.8373 7.54C18.824 8.55333 18.8507 9.60667 18.9173 10.7C18.9307 10.9267 18.9373 11.1867 18.9373 11.48C18.9373 11.7733 18.9773 12.06 19.0573 12.34C19.1507 12.62 19.3307 12.8533 19.5973 13.04C19.8773 13.2267 20.304 13.32 20.8773 13.32C21.4507 13.32 21.884 13.24 22.1773 13.08C22.484 12.92 22.704 12.7 22.8373 12.42C22.9707 12.14 23.0507 11.8133 23.0773 11.44C23.1173 11.0667 23.1507 10.6667 23.1773 10.24C23.204 9.96 23.2107 9.54667 23.1973 9C23.1973 8.45333 23.1907 7.84 23.1773 7.16C23.164 6.48 23.144 5.79333 23.1173 5.1C23.0907 4.40667 23.064 3.76667 23.0373 3.18C23.0107 2.59333 22.9907 2.12 22.9773 1.76C22.964 1.4 22.9573 1.22 22.9573 1.22C23.104 1.19333 23.3573 1.18667 23.7173 1.2C24.0907 1.21333 24.484 1.27333 24.8973 1.38C25.3507 1.48667 25.764 1.67333 26.1373 1.94C26.5107 2.19333 26.724 2.55333 26.7773 3.02ZM40.7925 9.18C41.0458 9.39333 41.2525 9.61333 41.4125 9.84C41.5725 10.0533 41.6858 10.3467 41.7525 10.72C41.8192 11.08 41.8392 11.5867 41.8125 12.24C41.7992 12.56 41.7392 12.9333 41.6325 13.36C41.5392 13.7867 41.3725 14.22 41.1325 14.66C40.8925 15.1 40.5592 15.5067 40.1325 15.88C39.7058 16.2533 39.1658 16.56 38.5125 16.8C37.8592 17.04 37.0592 17.16 36.1125 17.16H35.7125C35.2458 17.1333 34.6858 17.12 34.0325 17.12C33.3792 17.1333 32.7725 17.14 32.2125 17.14C31.8792 17.1667 31.5258 17.18 31.1525 17.18C30.7792 17.18 30.4392 17.16 30.1325 17.12C29.8258 17.08 29.5992 17.02 29.4525 16.94C29.5458 16.7533 29.6258 16.4733 29.6925 16.1C29.7725 15.7133 29.8325 15.2933 29.8725 14.84C29.9125 14.3867 29.9258 13.9533 29.9125 13.54C29.9125 13.4333 29.9058 13.1667 29.8925 12.74C29.8925 12.3 29.8858 11.76 29.8725 11.12C29.8725 10.4667 29.8658 9.76 29.8525 9C29.8525 8.24 29.8525 7.48 29.8525 6.72C29.8525 5.93333 29.8458 5.26 29.8325 4.7C29.8192 4.14 29.6925 3.79333 29.4525 3.66C29.2258 3.51333 29.0258 3.22667 28.8525 2.8C28.6925 2.36 28.6125 1.79333 28.6125 1.1C28.6658 1.11333 28.8325 1.13333 29.1125 1.16C29.3925 1.17333 29.6592 1.19333 29.9125 1.22C30.2192 1.23333 30.6525 1.24667 31.2125 1.26C31.7858 1.26 32.3792 1.26 32.9925 1.26C33.4592 1.26 33.9258 1.26 34.3925 1.26C34.8592 1.26 35.2792 1.26667 35.6525 1.28C36.0392 1.28 36.3192 1.28 36.4925 1.28C37.3192 1.28 38.0458 1.43333 38.6725 1.74C39.2992 2.03333 39.7925 2.42667 40.1525 2.92C40.5125 3.41333 40.6925 3.95333 40.6925 4.54C40.6925 5.12667 40.5992 5.64 40.4125 6.08C40.2392 6.52 40.0658 6.89333 39.8925 7.2C39.7192 7.49333 39.6392 7.72667 39.6525 7.9C39.6925 8.18 39.8192 8.4 40.0325 8.56C40.2592 8.72 40.5125 8.92667 40.7925 9.18ZM36.7525 5.68C36.7792 5.50667 36.6992 5.34667 36.5125 5.2C36.3392 5.04 36.0992 4.91333 35.7925 4.82C35.4992 4.71333 35.1858 4.66 34.8525 4.66C34.5192 4.66 34.2658 4.74667 34.0925 4.92C33.9192 5.09333 33.8058 5.3 33.7525 5.54C33.6992 5.76667 33.6858 5.96 33.7125 6.12C33.7525 6.37333 33.9392 6.55333 34.2725 6.66C34.6192 6.75333 34.9458 6.80667 35.2525 6.82C35.5592 6.83333 35.8725 6.75333 36.1925 6.58C36.5125 6.39333 36.6992 6.09333 36.7525 5.68ZM35.9525 13.28C36.4325 13.2667 36.7925 13.1933 37.0325 13.06C37.2858 12.9267 37.4592 12.7533 37.5525 12.54C37.6458 12.3267 37.7058 12.1133 37.7325 11.9C37.7725 11.6067 37.6858 11.3533 37.4725 11.14C37.2592 10.9133 36.9658 10.74 36.5925 10.62C36.2192 10.5 35.8058 10.4467 35.3525 10.46C34.8992 10.46 34.5458 10.56 34.2925 10.76C34.0392 10.96 33.8658 11.1933 33.7725 11.46C33.6792 11.7133 33.6392 11.94 33.6525 12.14C33.6925 12.42 33.9058 12.6867 34.2925 12.94C34.6792 13.18 35.2325 13.2933 35.9525 13.28ZM49.8367 0.979999C50.6234 0.979999 51.3767 1.12 52.0967 1.4C52.8301 1.66667 53.4434 2.02667 53.9367 2.48C54.4434 2.93333 54.7434 3.42 54.8367 3.94C54.9034 4.28667 54.8567 4.67333 54.6967 5.1C54.5367 5.51333 54.2834 5.88 53.9367 6.2C53.5901 6.50667 53.1701 6.67333 52.6767 6.7C52.5034 6.7 52.2834 6.68 52.0167 6.64C51.7501 6.6 51.4901 6.52 51.2367 6.4C50.9967 6.28 50.8034 6.10667 50.6567 5.88C50.8567 5.77333 50.9901 5.66 51.0567 5.54C51.1234 5.42 51.1434 5.3 51.1167 5.18C51.0634 4.91333 50.9034 4.69333 50.6367 4.52C50.3834 4.34667 50.0701 4.24 49.6967 4.2C49.4834 4.17333 49.2367 4.18 48.9567 4.22C48.6767 4.24667 48.4167 4.34 48.1767 4.5C47.9501 4.64667 47.7901 4.89333 47.6967 5.24C47.6434 5.44 47.6501 5.66 47.7167 5.9C47.7967 6.12667 47.9834 6.34667 48.2767 6.56C48.5701 6.76 49.0167 6.93333 49.6167 7.08C50.5367 7.29333 51.3901 7.52667 52.1767 7.78C52.9767 8.03333 53.6767 8.34667 54.2767 8.72C54.8767 9.09333 55.3367 9.56 55.6567 10.12C55.9901 10.6667 56.1434 11.3533 56.1167 12.18C56.1034 12.7267 55.9567 13.3 55.6767 13.9C55.3967 14.5 54.9901 15.06 54.4567 15.58C53.9234 16.0867 53.2701 16.5 52.4967 16.82C51.7234 17.14 50.8434 17.3 49.8567 17.3C49.2301 17.3 48.5834 17.2467 47.9167 17.14C47.2501 17.0333 46.6167 16.8667 46.0167 16.64C45.4301 16.4133 44.9101 16.1133 44.4567 15.74C44.0567 15.3933 43.7701 14.96 43.5967 14.44C43.4367 13.92 43.4034 13.4 43.4967 12.88C43.5901 12.3467 43.8234 11.8933 44.1967 11.52C44.5834 11.1467 45.1167 10.94 45.7967 10.9C45.6634 11.3 45.7367 11.6933 46.0167 12.08C46.3101 12.4533 46.7434 12.7733 47.3167 13.04C47.8901 13.2933 48.5167 13.4467 49.1967 13.5C49.9034 13.5533 50.5167 13.5267 51.0367 13.42C51.5701 13.3133 51.8634 13.0933 51.9167 12.76C51.9834 12.36 51.9034 12.04 51.6767 11.8C51.4501 11.56 51.1367 11.38 50.7367 11.26C50.3367 11.1267 49.9034 11.02 49.4367 10.94C48.9701 10.8467 48.5367 10.7533 48.1367 10.66C47.6034 10.5133 47.0634 10.3267 46.5167 10.1C45.9834 9.86 45.4901 9.56 45.0367 9.2C44.5967 8.84 44.2367 8.4 43.9567 7.88C43.6767 7.36 43.5301 6.75333 43.5167 6.06C43.5034 5.24667 43.6701 4.52667 44.0167 3.9C44.3634 3.26 44.8367 2.72667 45.4367 2.3C46.0367 1.86 46.7167 1.53333 47.4767 1.32C48.2501 1.09333 49.0367 0.979999 49.8367 0.979999ZM69.7741 5C69.6141 5.49333 69.3674 5.85333 69.0341 6.08C68.7007 6.30667 68.3541 6.4 67.9941 6.36C67.6341 6.30667 67.3274 6.12667 67.0741 5.82C67.3007 5.64667 67.3674 5.46 67.2741 5.26C67.1941 5.04667 66.9874 4.87333 66.6541 4.74C66.3207 4.59333 65.8941 4.54 65.3741 4.58C64.8407 4.60667 64.3007 4.78 63.7541 5.1C63.2207 5.42 62.7741 5.88 62.4141 6.48C62.0541 7.08 61.8541 7.82667 61.8141 8.72C61.7741 9.64 61.8674 10.3867 62.0941 10.96C62.3207 11.5333 62.6007 11.9733 62.9341 12.28C63.2807 12.5733 63.6274 12.7867 63.9741 12.92C64.3207 13.04 64.6007 13.12 64.8141 13.16C65.0941 13.2133 65.4141 13.2533 65.7741 13.28C66.1474 13.2933 66.5207 13.2667 66.8941 13.2C67.2674 13.1333 67.5874 13.02 67.8541 12.86C68.0941 12.7133 68.3941 12.52 68.7541 12.28C69.1141 12.0267 69.4607 11.7467 69.7941 11.44C70.1274 11.1333 70.3741 10.82 70.5341 10.5C70.9874 10.8067 71.2674 11.24 71.3741 11.8C71.4941 12.36 71.4474 12.96 71.2341 13.6C71.0207 14.24 70.6474 14.8467 70.1141 15.42C69.5941 15.98 68.9141 16.44 68.0741 16.8C67.2341 17.1467 66.2407 17.3067 65.0941 17.28C64.5607 17.2667 63.9474 17.1667 63.2541 16.98C62.5741 16.7933 61.8874 16.5 61.1941 16.1C60.5007 15.6867 59.8674 15.1467 59.2941 14.48C58.7341 13.8 58.3074 12.96 58.0141 11.96C57.7207 10.96 57.6407 9.78 57.7741 8.42C57.8941 7.12667 58.2141 6.01333 58.7341 5.08C59.2674 4.14667 59.9141 3.38667 60.6741 2.8C61.4474 2.2 62.2607 1.75333 63.1141 1.46C63.9807 1.15333 64.8074 0.993333 65.5941 0.979999C66.3807 0.953333 67.0607 1.07333 67.6341 1.34C68.2207 1.60667 68.6941 1.95333 69.0541 2.38C69.4141 2.79333 69.6541 3.24 69.7741 3.72C69.9074 4.18667 69.9074 4.61333 69.7741 5ZM84.0466 10.66C83.9932 10.6733 83.9132 10.7467 83.8066 10.88C83.7132 11.0133 83.6466 11.1533 83.6066 11.3C83.5399 11.5133 83.5599 11.6867 83.6666 11.82C83.9466 12.1533 84.3066 12.5467 84.7466 13C85.1866 13.44 85.6266 13.86 86.0666 14.26C86.5199 14.66 86.9066 14.9667 87.2266 15.18C86.9866 15.82 86.6066 16.3333 86.0866 16.72C85.5799 17.0933 85.0132 17.2733 84.3866 17.26C83.7599 17.2467 83.1466 16.9667 82.5466 16.42C82.4666 16.34 82.3132 16.1667 82.0866 15.9C81.8599 15.62 81.5999 15.2933 81.3066 14.92C81.0132 14.5467 80.7199 14.1733 80.4266 13.8C80.1332 13.4267 79.8799 13.1 79.6666 12.82C79.4532 12.54 79.3199 12.3667 79.2666 12.3C79.0132 11.9667 78.7732 11.8933 78.5466 12.08C78.3199 12.2667 78.1799 12.6533 78.1266 13.24C78.0999 13.5867 78.0999 13.9867 78.1266 14.44C78.1666 14.88 78.2199 15.2733 78.2866 15.62C78.3666 15.9667 78.4466 16.1733 78.5266 16.24C78.2466 16.4533 77.8999 16.6533 77.4866 16.84C77.0732 17.0267 76.5999 17.14 76.0666 17.18C75.8666 17.1933 75.6332 17.14 75.3666 17.02C75.0999 16.9 74.8666 16.7067 74.6666 16.44C74.4799 16.16 74.3799 15.8133 74.3666 15.4C74.3666 15.2933 74.3599 15.0133 74.3466 14.56C74.3466 14.1067 74.3399 13.5533 74.3266 12.9C74.3266 12.2333 74.3266 11.5467 74.3266 10.84C74.3266 10.1333 74.3199 9.46667 74.3066 8.84C74.3066 8.21333 74.3066 7.70667 74.3066 7.32C74.3066 6.93333 74.3066 6.74 74.3066 6.74C74.3066 5.95333 74.2866 5.3 74.2466 4.78C74.2066 4.24667 74.0466 3.84 73.7666 3.56C73.5132 3.30667 73.3199 2.94 73.1866 2.46C73.0666 1.98 73.0132 1.52667 73.0266 1.1C73.0799 1.11333 73.2399 1.13333 73.5066 1.16C73.7732 1.17333 74.0332 1.19333 74.2866 1.22C74.4599 1.22 74.7066 1.22 75.0266 1.22C75.3599 1.20667 75.7132 1.19333 76.0866 1.18C76.4599 1.16667 76.8066 1.16 77.1266 1.16C77.4466 1.14667 77.6866 1.13333 77.8466 1.12C77.9666 1.12 78.1866 1.12 78.5066 1.12C78.8399 1.10667 79.2266 1.1 79.6666 1.1C80.1066 1.1 80.5532 1.10667 81.0066 1.12C81.4599 1.12 81.8799 1.13333 82.2666 1.16C82.6532 1.18667 82.9532 1.22 83.1666 1.26C84.0466 1.42 84.7266 1.71333 85.2066 2.14C85.6866 2.56667 86.0266 3.08 86.2266 3.68C86.4399 4.28 86.5666 4.93333 86.6066 5.64C86.6332 6.24 86.5666 6.86667 86.4066 7.52C86.2466 8.17333 85.9732 8.78 85.5866 9.34C85.1999 9.9 84.6866 10.34 84.0466 10.66ZM78.1666 6.36C78.1666 6.78667 78.2666 7.10667 78.4666 7.32C78.6666 7.52 78.8532 7.64 79.0266 7.68C79.2666 7.73333 79.5732 7.74 79.9466 7.7C80.3199 7.64667 80.6932 7.55333 81.0666 7.42C81.4399 7.27333 81.7532 7.08667 82.0066 6.86C82.2732 6.63333 82.4066 6.37333 82.4066 6.08C82.4066 5.69333 82.2466 5.4 81.9266 5.2C81.6066 4.98667 81.1999 4.85333 80.7066 4.8C80.2266 4.74667 79.7466 4.76 79.2666 4.84C78.8932 4.89333 78.6132 5.06 78.4266 5.34C78.2399 5.62 78.1532 5.96 78.1666 6.36ZM90.5873 17.18C90.014 17.0733 89.6073 16.6867 89.3673 16.02C89.1407 15.3533 89.0273 14.5267 89.0273 13.54C89.0273 13.42 89.0207 13.12 89.0073 12.64C89.0073 12.16 89.0007 11.5667 88.9873 10.86C88.9873 10.14 88.9807 9.36667 88.9673 8.54C88.9673 7.71333 88.9607 6.88667 88.9473 6.06C88.934 5.23333 88.9207 4.47333 88.9073 3.78C88.894 3.07333 88.8807 2.49333 88.8673 2.04C88.854 1.58667 88.8407 1.31333 88.8273 1.22C89.0273 1.18 89.334 1.17333 89.7473 1.2C90.174 1.21333 90.614 1.28 91.0673 1.4C91.534 1.50667 91.9407 1.69333 92.2873 1.96C92.634 2.21333 92.834 2.56667 92.8873 3.02C92.914 3.23333 92.934 3.6 92.9473 4.12C92.9607 4.62667 92.9673 5.23333 92.9673 5.94C92.9807 6.63333 92.9873 7.37333 92.9873 8.16C92.9873 8.94667 92.9873 9.72667 92.9873 10.5C92.9873 11.26 92.9873 11.9667 92.9873 12.62C92.9873 13.26 92.9873 13.8 92.9873 14.24C93.0007 14.6667 93.014 14.9267 93.0273 15.02C93.054 15.3 93.1073 15.5067 93.1873 15.64C93.2673 15.76 93.354 15.9133 93.4473 16.1C93.114 16.46 92.7007 16.7533 92.2073 16.98C91.714 17.2067 91.174 17.2733 90.5873 17.18ZM107.218 9.18C107.472 9.39333 107.678 9.61333 107.838 9.84C107.998 10.0533 108.112 10.3467 108.178 10.72C108.245 11.08 108.265 11.5867 108.238 12.24C108.225 12.56 108.165 12.9333 108.058 13.36C107.965 13.7867 107.798 14.22 107.558 14.66C107.318 15.1 106.985 15.5067 106.558 15.88C106.132 16.2533 105.592 16.56 104.938 16.8C104.285 17.04 103.485 17.16 102.538 17.16H102.138C101.672 17.1333 101.112 17.12 100.458 17.12C99.8049 17.1333 99.1983 17.14 98.6383 17.14C98.3049 17.1667 97.9516 17.18 97.5783 17.18C97.2049 17.18 96.8649 17.16 96.5583 17.12C96.2516 17.08 96.0249 17.02 95.8783 16.94C95.9716 16.7533 96.0516 16.4733 96.1183 16.1C96.1983 15.7133 96.2583 15.2933 96.2983 14.84C96.3383 14.3867 96.3516 13.9533 96.3383 13.54C96.3383 13.4333 96.3316 13.1667 96.3183 12.74C96.3183 12.3 96.3116 11.76 96.2983 11.12C96.2983 10.4667 96.2916 9.76 96.2783 9C96.2783 8.24 96.2783 7.48 96.2783 6.72C96.2783 5.93333 96.2716 5.26 96.2583 4.7C96.2449 4.14 96.1183 3.79333 95.8783 3.66C95.6516 3.51333 95.4516 3.22667 95.2783 2.8C95.1183 2.36 95.0383 1.79333 95.0383 1.1C95.0916 1.11333 95.2583 1.13333 95.5383 1.16C95.8183 1.17333 96.0849 1.19333 96.3383 1.22C96.6449 1.23333 97.0783 1.24667 97.6383 1.26C98.2116 1.26 98.8049 1.26 99.4183 1.26C99.8849 1.26 100.352 1.26 100.818 1.26C101.285 1.26 101.705 1.26667 102.078 1.28C102.465 1.28 102.745 1.28 102.918 1.28C103.745 1.28 104.472 1.43333 105.098 1.74C105.725 2.03333 106.218 2.42667 106.578 2.92C106.938 3.41333 107.118 3.95333 107.118 4.54C107.118 5.12667 107.025 5.64 106.838 6.08C106.665 6.52 106.492 6.89333 106.318 7.2C106.145 7.49333 106.065 7.72667 106.078 7.9C106.118 8.18 106.245 8.4 106.458 8.56C106.685 8.72 106.938 8.92667 107.218 9.18ZM103.178 5.68C103.205 5.50667 103.125 5.34667 102.938 5.2C102.765 5.04 102.525 4.91333 102.218 4.82C101.925 4.71333 101.612 4.66 101.278 4.66C100.945 4.66 100.692 4.74667 100.518 4.92C100.345 5.09333 100.232 5.3 100.178 5.54C100.125 5.76667 100.112 5.96 100.138 6.12C100.178 6.37333 100.365 6.55333 100.698 6.66C101.045 6.75333 101.372 6.80667 101.678 6.82C101.985 6.83333 102.298 6.75333 102.618 6.58C102.938 6.39333 103.125 6.09333 103.178 5.68ZM102.378 13.28C102.858 13.2667 103.218 13.1933 103.458 13.06C103.712 12.9267 103.885 12.7533 103.978 12.54C104.072 12.3267 104.132 12.1133 104.158 11.9C104.198 11.6067 104.112 11.3533 103.898 11.14C103.685 10.9133 103.392 10.74 103.018 10.62C102.645 10.5 102.232 10.4467 101.778 10.46C101.325 10.46 100.972 10.56 100.718 10.76C100.465 10.96 100.292 11.1933 100.198 11.46C100.105 11.7133 100.065 11.94 100.078 12.14C100.118 12.42 100.332 12.6867 100.718 12.94C101.105 13.18 101.658 13.2933 102.378 13.28ZM118.183 13.36C118.369 13.3333 118.603 13.3 118.883 13.26C119.176 13.22 119.449 13.1733 119.703 13.12C119.969 13.0533 120.149 12.98 120.243 12.9C120.416 13.0467 120.529 13.3467 120.583 13.8C120.649 14.24 120.629 14.7 120.523 15.18C120.443 15.5933 120.303 15.98 120.103 16.34C119.903 16.7 119.616 16.92 119.243 17C118.923 17.0667 118.556 17.1067 118.143 17.12C117.729 17.1333 117.309 17.1333 116.883 17.12C116.456 17.1067 116.063 17.0933 115.703 17.08C115.356 17.0667 115.089 17.06 114.903 17.06C114.716 17.06 114.423 17.06 114.023 17.06C113.636 17.0733 113.296 17.0867 113.003 17.1C112.656 17.14 112.276 17.1667 111.863 17.18C111.449 17.1933 111.069 17.18 110.723 17.14C110.376 17.1 110.123 17.0333 109.963 16.94C110.056 16.7533 110.136 16.4733 110.203 16.1C110.269 15.7133 110.323 15.2933 110.363 14.84C110.403 14.3867 110.416 13.9533 110.403 13.54L110.363 9.88V8.18C110.363 7.7 110.356 7.3 110.343 6.98C110.343 6.66 110.343 6.48667 110.343 6.46C110.343 6.02 110.323 5.54667 110.283 5.04C110.243 4.53333 110.196 4.05333 110.143 3.6C110.089 3.13333 110.043 2.75333 110.003 2.46C109.949 2.23333 109.909 2.01333 109.883 1.8C109.856 1.57333 109.849 1.37333 109.863 1.2C109.956 1.24 110.209 1.28 110.623 1.32C111.049 1.34667 111.543 1.37333 112.103 1.4C112.143 1.4 112.336 1.40667 112.683 1.42C113.029 1.42 113.456 1.42667 113.963 1.44C114.483 1.45333 115.016 1.46667 115.563 1.48C116.123 1.48 116.629 1.48 117.083 1.48C117.536 1.48 117.869 1.47333 118.083 1.46C118.629 1.43333 119.089 1.39333 119.463 1.34C119.849 1.27333 120.109 1.18667 120.243 1.08C120.403 1.21333 120.549 1.46667 120.683 1.84C120.829 2.2 120.909 2.58 120.923 2.98C120.923 3.36667 120.829 3.73333 120.643 4.08C120.469 4.41333 120.149 4.64 119.683 4.76C119.509 4.8 119.236 4.83333 118.863 4.86C118.503 4.88667 118.149 4.90667 117.803 4.92C117.469 4.92 117.229 4.91333 117.083 4.9C116.669 4.86 116.243 4.90667 115.803 5.04C115.363 5.16 114.989 5.32667 114.683 5.54C114.376 5.74 114.216 5.96 114.202 6.2C114.189 6.42667 114.283 6.61333 114.483 6.76C114.683 6.90667 114.943 7.02667 115.263 7.12C115.596 7.2 115.949 7.25333 116.323 7.28C116.696 7.30667 117.049 7.31333 117.383 7.3C117.649 7.27333 117.956 7.22667 118.303 7.16C118.649 7.09333 118.863 7.02667 118.943 6.96C119.116 7.10667 119.236 7.38 119.303 7.78C119.383 8.18 119.383 8.59333 119.303 9.02C119.236 9.36667 119.103 9.68667 118.903 9.98C118.703 10.2733 118.423 10.4733 118.063 10.58C117.783 10.66 117.543 10.7133 117.343 10.74C117.143 10.7533 117.043 10.76 117.043 10.76C116.256 10.76 115.589 10.9 115.043 11.18C114.509 11.4467 114.216 11.7667 114.163 12.14C114.109 12.46 114.176 12.7533 114.363 13.02C114.563 13.2867 114.849 13.4333 115.223 13.46C115.476 13.4733 115.796 13.48 116.183 13.48C116.583 13.4667 116.969 13.4533 117.343 13.44C117.729 13.4133 118.009 13.3867 118.183 13.36Z" fill="black"/>
</svg>
