<svg width="100" height="18" viewBox="0 0 100 18" fill="none" xmlns="http://www.w3.org/2000/svg">
<path d="M10.5164 1.08C10.6764 1.21333 10.8231 1.46667 10.9564 1.84C11.0897 2.2 11.1564 2.58 11.1564 2.98C11.1431 3.35333 11.0431 3.70667 10.8564 4.04C10.6831 4.37333 10.3631 4.6 9.89641 4.72C9.76307 4.76 9.55641 4.79333 9.27641 4.82C8.99641 4.83333 8.70307 4.84667 8.39641 4.86C8.10307 4.86 7.84974 4.86667 7.63641 4.88C7.43641 4.88 7.33641 4.88 7.33641 4.88C6.54974 4.88 5.88307 4.98667 5.33641 5.2C4.78974 5.41333 4.49641 5.74667 4.45641 6.2C4.41641 6.64 4.46307 6.94 4.59641 7.1C4.74307 7.26 4.92974 7.39333 5.15641 7.5C5.31641 7.56667 5.58974 7.6 5.97641 7.6C6.37641 7.58667 6.80307 7.54667 7.25641 7.48C7.70974 7.41333 8.11641 7.33333 8.47641 7.24C8.84974 7.14667 9.09641 7.05333 9.21641 6.96C9.38974 7.10667 9.50974 7.38667 9.57641 7.8C9.64307 8.2 9.63641 8.61333 9.55641 9.04C9.48974 9.38667 9.35641 9.70667 9.15641 10C8.95641 10.28 8.68307 10.4733 8.33641 10.58C8.05641 10.66 7.83641 10.7067 7.67641 10.72C7.52974 10.7333 7.40974 10.7467 7.31641 10.76C6.30307 10.7867 5.55641 11.0667 5.07641 11.6C4.60974 12.12 4.38974 12.7933 4.41641 13.62C4.42974 13.9533 4.50307 14.2733 4.63641 14.58C4.78307 14.8733 4.93641 15.08 5.09641 15.2C5.08307 15.3333 5.04974 15.48 4.99641 15.64C4.94307 15.7867 4.84974 15.96 4.71641 16.16C4.54307 16.4133 4.30974 16.6467 4.01641 16.86C3.72307 17.0733 3.34307 17.1867 2.87641 17.2C2.39641 17.2 1.98974 17.0933 1.65641 16.88C1.32307 16.6533 1.06974 16.2733 0.896406 15.74C0.736406 15.2067 0.656406 14.4733 0.656406 13.54C0.656406 13.5133 0.656406 13.3 0.656406 12.9C0.656406 12.5 0.64974 12 0.636406 11.4C0.636406 10.8 0.62974 10.1733 0.616406 9.52C0.616406 8.86667 0.60974 8.26667 0.596406 7.72C0.596406 7.16 0.596406 6.73333 0.596406 6.44C0.596406 6 0.576406 5.52667 0.536406 5.02C0.496406 4.51333 0.44974 4.03333 0.396406 3.58C0.343073 3.11333 0.296406 2.74 0.256406 2.46C0.203073 2.23333 0.163073 2.01333 0.136406 1.8C0.123073 1.57333 0.116406 1.37333 0.116406 1.2C0.20974 1.24 0.463073 1.28 0.876406 1.32C1.30307 1.34667 1.79641 1.37333 2.35641 1.4C2.40974 1.4 2.56307 1.40667 2.81641 1.42C3.08307 1.43333 3.38974 1.44667 3.73641 1.46C4.08307 1.46 4.41641 1.46667 4.73641 1.48C5.06974 1.49333 5.32307 1.5 5.49641 1.5C5.70974 1.5 5.98307 1.5 6.31641 1.5C6.66307 1.5 7.01641 1.5 7.37641 1.5C7.73641 1.48667 8.05641 1.47333 8.33641 1.46C8.74974 1.43333 9.18307 1.39333 9.63641 1.34C10.0897 1.27333 10.3831 1.18667 10.5164 1.08ZM21.0731 13.36C21.2598 13.3333 21.4931 13.3 21.7731 13.26C22.0665 13.22 22.3398 13.1733 22.5931 13.12C22.8598 13.0533 23.0398 12.98 23.1331 12.9C23.3065 13.0467 23.4198 13.3467 23.4731 13.8C23.5398 14.24 23.5198 14.7 23.4131 15.18C23.3331 15.5933 23.1931 15.98 22.9931 16.34C22.7931 16.7 22.5065 16.92 22.1331 17C21.8131 17.0667 21.4465 17.1067 21.0331 17.12C20.6198 17.1333 20.1998 17.1333 19.7731 17.12C19.3465 17.1067 18.9531 17.0933 18.5931 17.08C18.2465 17.0667 17.9798 17.06 17.7931 17.06C17.6065 17.06 17.3131 17.06 16.9131 17.06C16.5265 17.0733 16.1865 17.0867 15.8931 17.1C15.5465 17.14 15.1665 17.1667 14.7531 17.18C14.3398 17.1933 13.9598 17.18 13.6131 17.14C13.2665 17.1 13.0131 17.0333 12.8531 16.94C12.9465 16.7533 13.0265 16.4733 13.0931 16.1C13.1598 15.7133 13.2131 15.2933 13.2531 14.84C13.2931 14.3867 13.3065 13.9533 13.2931 13.54L13.2531 9.88V8.18C13.2531 7.7 13.2465 7.3 13.2331 6.98C13.2331 6.66 13.2331 6.48667 13.2331 6.46C13.2331 6.02 13.2131 5.54667 13.1731 5.04C13.1331 4.53333 13.0865 4.05333 13.0331 3.6C12.9798 3.13333 12.9331 2.75333 12.8931 2.46C12.8398 2.23333 12.7998 2.01333 12.7731 1.8C12.7465 1.57333 12.7398 1.37333 12.7531 1.2C12.8465 1.24 13.0998 1.28 13.5131 1.32C13.9398 1.34667 14.4331 1.37333 14.9931 1.4C15.0331 1.4 15.2265 1.40667 15.5731 1.42C15.9198 1.42 16.3465 1.42667 16.8531 1.44C17.3731 1.45333 17.9065 1.46667 18.4531 1.48C19.0131 1.48 19.5198 1.48 19.9731 1.48C20.4265 1.48 20.7598 1.47333 20.9731 1.46C21.5198 1.43333 21.9798 1.39333 22.3531 1.34C22.7398 1.27333 22.9998 1.18667 23.1331 1.08C23.2931 1.21333 23.4398 1.46667 23.5731 1.84C23.7198 2.2 23.7998 2.58 23.8131 2.98C23.8131 3.36667 23.7198 3.73333 23.5331 4.08C23.3598 4.41333 23.0398 4.64 22.5731 4.76C22.3998 4.8 22.1265 4.83333 21.7531 4.86C21.3931 4.88667 21.0398 4.90667 20.6931 4.92C20.3598 4.92 20.1198 4.91333 19.9731 4.9C19.5598 4.86 19.1331 4.90667 18.6931 5.04C18.2531 5.16 17.8798 5.32667 17.5731 5.54C17.2665 5.74 17.1065 5.96 17.0931 6.2C17.0798 6.42667 17.1731 6.61333 17.3731 6.76C17.5731 6.90667 17.8331 7.02667 18.1531 7.12C18.4865 7.2 18.8398 7.25333 19.2131 7.28C19.5865 7.30667 19.9398 7.31333 20.2731 7.3C20.5398 7.27333 20.8465 7.22667 21.1931 7.16C21.5398 7.09333 21.7531 7.02667 21.8331 6.96C22.0065 7.10667 22.1265 7.38 22.1931 7.78C22.2731 8.18 22.2731 8.59333 22.1931 9.02C22.1265 9.36667 21.9931 9.68667 21.7931 9.98C21.5931 10.2733 21.3131 10.4733 20.9531 10.58C20.6731 10.66 20.4331 10.7133 20.2331 10.74C20.0331 10.7533 19.9331 10.76 19.9331 10.76C19.1465 10.76 18.4798 10.9 17.9331 11.18C17.3998 11.4467 17.1065 11.7667 17.0531 12.14C16.9998 12.46 17.0665 12.7533 17.2531 13.02C17.4531 13.2867 17.7398 13.4333 18.1131 13.46C18.3665 13.4733 18.6865 13.48 19.0731 13.48C19.4731 13.4667 19.8598 13.4533 20.2331 13.44C20.6198 13.4133 20.8998 13.3867 21.0731 13.36ZM31.8094 0.979999C32.596 0.979999 33.3494 1.12 34.0694 1.4C34.8027 1.66667 35.416 2.02667 35.9094 2.48C36.416 2.93333 36.716 3.42 36.8094 3.94C36.876 4.28667 36.8294 4.67333 36.6694 5.1C36.5094 5.51333 36.256 5.88 35.9094 6.2C35.5627 6.50667 35.1427 6.67333 34.6494 6.7C34.476 6.7 34.256 6.68 33.9894 6.64C33.7227 6.6 33.4627 6.52 33.2094 6.4C32.9694 6.28 32.776 6.10667 32.6294 5.88C32.8294 5.77333 32.9627 5.66 33.0294 5.54C33.096 5.42 33.116 5.3 33.0894 5.18C33.036 4.91333 32.876 4.69333 32.6094 4.52C32.356 4.34667 32.0427 4.24 31.6694 4.2C31.456 4.17333 31.2094 4.18 30.9294 4.22C30.6494 4.24667 30.3894 4.34 30.1494 4.5C29.9227 4.64667 29.7627 4.89333 29.6694 5.24C29.616 5.44 29.6227 5.66 29.6894 5.9C29.7694 6.12667 29.956 6.34667 30.2494 6.56C30.5427 6.76 30.9894 6.93333 31.5894 7.08C32.5094 7.29333 33.3627 7.52667 34.1494 7.78C34.9494 8.03333 35.6494 8.34667 36.2494 8.72C36.8494 9.09333 37.3094 9.56 37.6294 10.12C37.9627 10.6667 38.116 11.3533 38.0894 12.18C38.076 12.7267 37.9294 13.3 37.6494 13.9C37.3694 14.5 36.9627 15.06 36.4294 15.58C35.896 16.0867 35.2427 16.5 34.4694 16.82C33.696 17.14 32.816 17.3 31.8294 17.3C31.2027 17.3 30.556 17.2467 29.8894 17.14C29.2227 17.0333 28.5894 16.8667 27.9894 16.64C27.4027 16.4133 26.8827 16.1133 26.4294 15.74C26.0294 15.3933 25.7427 14.96 25.5694 14.44C25.4094 13.92 25.376 13.4 25.4694 12.88C25.5627 12.3467 25.796 11.8933 26.1694 11.52C26.556 11.1467 27.0894 10.94 27.7694 10.9C27.636 11.3 27.7094 11.6933 27.9894 12.08C28.2827 12.4533 28.716 12.7733 29.2894 13.04C29.8627 13.2933 30.4894 13.4467 31.1694 13.5C31.876 13.5533 32.4894 13.5267 33.0094 13.42C33.5427 13.3133 33.836 13.0933 33.8894 12.76C33.956 12.36 33.876 12.04 33.6494 11.8C33.4227 11.56 33.1094 11.38 32.7094 11.26C32.3094 11.1267 31.876 11.02 31.4094 10.94C30.9427 10.8467 30.5094 10.7533 30.1094 10.66C29.576 10.5133 29.036 10.3267 28.4894 10.1C27.956 9.86 27.4627 9.56 27.0094 9.2C26.5694 8.84 26.2094 8.4 25.9294 7.88C25.6494 7.36 25.5027 6.75333 25.4894 6.06C25.476 5.24667 25.6427 4.52667 25.9894 3.9C26.336 3.26 26.8094 2.72667 27.4094 2.3C28.0094 1.86 28.6894 1.53333 29.4494 1.32C30.2227 1.09333 31.0094 0.979999 31.8094 0.979999ZM51.5106 0.899999C51.6706 1.03333 51.784 1.29333 51.8506 1.68C51.9306 2.06667 51.964 2.48667 51.9506 2.94C51.9373 3.38 51.8706 3.78 51.7506 4.14C51.6306 4.48667 51.4573 4.69333 51.2306 4.76C51.1373 4.78667 50.944 4.82667 50.6506 4.88C50.3706 4.92 50.1106 4.97333 49.8706 5.04C49.644 5.10667 49.344 5.22 48.9706 5.38C48.5973 5.54 48.2773 5.77333 48.0106 6.08C47.7973 6.33333 47.624 6.6 47.4906 6.88C47.3573 7.14667 47.284 7.49333 47.2706 7.92C47.2573 8.09333 47.2506 8.42 47.2506 8.9C47.2506 9.36667 47.2506 9.91333 47.2506 10.54C47.2506 11.1533 47.2506 11.76 47.2506 12.36C47.264 12.96 47.2706 13.4733 47.2706 13.9C47.2706 14.3267 47.2706 14.58 47.2706 14.66C47.2573 15.06 47.2973 15.4 47.3906 15.68C47.484 15.96 47.584 16.1267 47.6906 16.18C47.3573 16.4333 47.024 16.6467 46.6906 16.82C46.3706 16.9933 45.9106 17.12 45.3106 17.2C45.084 17.2267 44.8306 17.16 44.5506 17C44.2706 16.8533 44.024 16.62 43.8106 16.3C43.6106 15.9667 43.504 15.56 43.4906 15.08C43.4906 14.6 43.484 13.9867 43.4706 13.24C43.4706 12.48 43.4706 11.66 43.4706 10.78C43.484 9.88667 43.484 8.99333 43.4706 8.1C43.4573 7.71333 43.3973 7.34667 43.2906 7C43.1973 6.65333 43.0373 6.35333 42.8106 6.1C42.584 5.83333 42.284 5.61333 41.9106 5.44C41.5373 5.26667 41.0706 5.15333 40.5106 5.1C40.364 5.08667 40.164 5.04667 39.9106 4.98C39.6573 4.91333 39.484 4.84667 39.3906 4.78C39.244 4.67333 39.124 4.47333 39.0306 4.18C38.9373 3.87333 38.864 3.54 38.8106 3.18C38.7573 2.80667 38.7173 2.44 38.6906 2.08C38.6773 1.72 38.6773 1.42667 38.6906 1.2C38.744 1.21333 38.8906 1.23333 39.1306 1.26C39.384 1.28667 39.684 1.31333 40.0306 1.34C40.3773 1.35333 40.7173 1.36667 41.0506 1.38C41.2906 1.39333 41.6106 1.40667 42.0106 1.42C42.424 1.43333 42.864 1.44667 43.3306 1.46C43.7973 1.47333 44.2373 1.48667 44.6506 1.5C45.064 1.5 45.404 1.5 45.6706 1.5C46.0306 1.48667 46.4506 1.47333 46.9306 1.46C47.4106 1.44667 47.8706 1.43333 48.3106 1.42C48.764 1.39333 49.124 1.36667 49.3906 1.34C49.6573 1.31333 49.9373 1.28 50.2306 1.24C50.5373 1.18667 50.804 1.13333 51.0306 1.08C51.2706 1.01333 51.4306 0.953332 51.5106 0.899999ZM55.3139 17.18C54.7406 17.0733 54.3339 16.6867 54.0939 16.02C53.8672 15.3533 53.7539 14.5267 53.7539 13.54C53.7539 13.42 53.7472 13.12 53.7339 12.64C53.7339 12.16 53.7272 11.5667 53.7139 10.86C53.7139 10.14 53.7072 9.36667 53.6939 8.54C53.6939 7.71333 53.6872 6.88667 53.6739 6.06C53.6606 5.23333 53.6472 4.47333 53.6339 3.78C53.6206 3.07333 53.6072 2.49333 53.5939 2.04C53.5806 1.58667 53.5672 1.31333 53.5539 1.22C53.7539 1.18 54.0606 1.17333 54.4739 1.2C54.9006 1.21333 55.3406 1.28 55.7939 1.4C56.2606 1.50667 56.6672 1.69333 57.0139 1.96C57.3606 2.21333 57.5606 2.56667 57.6139 3.02C57.6406 3.23333 57.6606 3.6 57.6739 4.12C57.6872 4.62667 57.6939 5.23333 57.6939 5.94C57.7072 6.63333 57.7139 7.37333 57.7139 8.16C57.7139 8.94667 57.7139 9.72667 57.7139 10.5C57.7139 11.26 57.7139 11.9667 57.7139 12.62C57.7139 13.26 57.7139 13.8 57.7139 14.24C57.7272 14.6667 57.7406 14.9267 57.7539 15.02C57.7806 15.3 57.8339 15.5067 57.9139 15.64C57.9939 15.76 58.0806 15.9133 58.1739 16.1C57.8406 16.46 57.4272 16.7533 56.9339 16.98C56.4406 17.2067 55.9006 17.2733 55.3139 17.18ZM69.4648 1.02C70.3848 1.14 71.0915 1.40667 71.5848 1.82C72.0915 2.23333 72.4115 2.72 72.5448 3.28C72.6915 3.84 72.6648 4.41333 72.4648 5C72.3982 5.22667 72.2582 5.62 72.0448 6.18C71.8448 6.72667 71.6048 7.36667 71.3248 8.1C71.0582 8.82 70.7782 9.56 70.4848 10.32C70.1915 11.08 69.9182 11.7933 69.6648 12.46C69.4248 13.1133 69.2248 13.6467 69.0648 14.06C68.9048 14.46 68.8248 14.6667 68.8248 14.68C68.4648 15.52 68.1448 16.1067 67.8648 16.44C67.5848 16.7733 67.2515 16.94 66.8648 16.94C66.5982 16.94 66.3115 16.8667 66.0048 16.72C65.7115 16.5733 65.4582 16.4 65.2448 16.2C65.0315 15.9867 64.9048 15.7867 64.8648 15.6C64.9582 15.4933 65.0048 15.36 65.0048 15.2C65.0048 15.04 64.9915 14.8933 64.9648 14.76C64.9382 14.6133 64.9182 14.5267 64.9048 14.5C64.8782 14.4333 64.7848 14.2 64.6248 13.8C64.4782 13.3867 64.2782 12.8667 64.0248 12.24C63.7848 11.6 63.5115 10.8933 63.2048 10.12C62.8982 9.34667 62.5848 8.56 62.2648 7.76C61.9448 6.94667 61.6382 6.16667 61.3448 5.42C61.0515 4.66 60.7848 3.98 60.5448 3.38C60.3048 2.78 60.1115 2.30667 59.9648 1.96C59.8315 1.6 59.7648 1.42 59.7648 1.42C59.9648 1.39333 60.2782 1.36667 60.7048 1.34C61.1448 1.3 61.6182 1.3 62.1248 1.34C62.6448 1.38 63.1248 1.48667 63.5648 1.66C64.0182 1.83333 64.3515 2.11333 64.5648 2.5C64.6182 2.60667 64.6982 2.80667 64.8048 3.1C64.9248 3.38 65.0515 3.71333 65.1848 4.1C65.3315 4.47333 65.4715 4.85333 65.6048 5.24C65.7382 5.62667 65.8515 5.96667 65.9448 6.26C66.0515 6.54 66.1248 6.73333 66.1648 6.84C66.2582 7.09333 66.3782 7.30667 66.5248 7.48C66.6715 7.64 66.8182 7.73333 66.9648 7.76C67.1115 7.77333 67.2648 7.72 67.4248 7.6C67.5982 7.48 67.7315 7.31333 67.8248 7.1C67.8648 7.00667 67.9448 6.76 68.0648 6.36C68.1982 5.94667 68.3448 5.46667 68.5048 4.92C68.6782 4.36 68.8382 3.80667 68.9848 3.26C69.1448 2.7 69.2715 2.21333 69.3648 1.8C69.4582 1.38667 69.4915 1.12667 69.4648 1.02ZM85.1913 13.24C85.3513 13.6267 85.5779 14 85.8713 14.36C86.1646 14.7067 86.4179 14.9667 86.6313 15.14C86.3113 15.8067 85.9179 16.2933 85.4513 16.6C85.0646 16.8533 84.6513 17 84.2113 17.04C83.9713 17.0667 83.6979 17.0467 83.3913 16.98C83.0846 16.9133 82.7646 16.7267 82.4313 16.42C82.1113 16.1 81.7913 15.5933 81.4713 14.9C81.3779 14.6733 81.1713 14.5133 80.8513 14.42C80.5313 14.3267 80.1913 14.2733 79.8313 14.26C79.4713 14.2333 79.1779 14.22 78.9513 14.22C78.7246 14.22 78.4446 14.2267 78.1113 14.24C77.7913 14.2533 77.4979 14.3067 77.2313 14.4C76.9646 14.4933 76.8046 14.66 76.7513 14.9C76.6979 15.1133 76.6913 15.3333 76.7313 15.56C76.7713 15.7867 76.8579 15.9333 76.9913 16C76.7646 16.2133 76.5379 16.4 76.3113 16.56C76.0979 16.72 75.8779 16.8467 75.6513 16.94C75.3713 17.06 75.0779 17.12 74.7713 17.12C74.4779 17.12 74.1446 17.0533 73.7713 16.92C73.5979 16.8533 73.4179 16.7333 73.2313 16.56C73.0446 16.3867 72.9179 16.1467 72.8513 15.84C72.7846 15.5333 72.8379 15.1467 73.0113 14.68C73.0246 14.64 73.0913 14.4267 73.2113 14.04C73.3313 13.6533 73.4846 13.1467 73.6713 12.52C73.8713 11.88 74.0846 11.1733 74.3113 10.4C74.5513 9.62667 74.7913 8.83333 75.0313 8.02C75.2846 7.19333 75.5246 6.4 75.7513 5.64C75.9913 4.88 76.2046 4.19333 76.3913 3.58C76.5779 2.96667 76.7246 2.48 76.8313 2.12C76.9379 1.76 76.9913 1.58 76.9913 1.58C77.1113 1.51333 77.3313 1.43333 77.6513 1.34C77.9846 1.23333 78.3379 1.17333 78.7113 1.16C79.1246 1.13333 79.5246 1.18667 79.9113 1.32C80.3113 1.45333 80.6179 1.72 80.8313 2.12C80.9246 2.28 81.0646 2.58667 81.2513 3.04C81.4379 3.49333 81.6579 4.04 81.9113 4.68C82.1646 5.32 82.4313 6.00667 82.7113 6.74C82.9913 7.46 83.2646 8.18 83.5313 8.9C83.8113 9.60667 84.0646 10.2667 84.2913 10.88C84.5179 11.4933 84.7113 12.0133 84.8713 12.44C85.0313 12.8533 85.1379 13.12 85.1913 13.24ZM78.8913 10.66C79.2379 10.6333 79.4379 10.5333 79.4913 10.36C79.5579 10.1867 79.5979 9.98667 79.6113 9.76C79.6113 9.61333 79.5846 9.43333 79.5313 9.22C79.4913 9.00667 79.4246 8.82 79.3313 8.66C79.2513 8.48667 79.1446 8.4 79.0113 8.4C78.8246 8.4 78.6179 8.53333 78.3913 8.8C78.1779 9.05333 78.0579 9.31333 78.0313 9.58C77.9913 9.83333 78.0113 10.08 78.0913 10.32C78.1846 10.56 78.4513 10.6733 78.8913 10.66ZM99.5019 13.04C99.6752 13.1867 99.7885 13.48 99.8419 13.92C99.9085 14.3467 99.8885 14.7933 99.7819 15.26C99.7019 15.6467 99.5552 16.02 99.3419 16.38C99.1285 16.7267 98.8485 16.9333 98.5019 17C98.3685 17.0267 98.0619 17.04 97.5819 17.04C97.1019 17.0533 96.5352 17.0533 95.8819 17.04C95.2419 17.04 94.5885 17.0333 93.9219 17.02C93.2685 17.02 92.6819 17.02 92.1619 17.02C91.6552 17.0333 91.2952 17.0533 91.0819 17.08C90.5352 17.1733 89.9752 17.2067 89.4019 17.18C88.8419 17.1533 88.4485 17.0733 88.2219 16.94C88.3152 16.7533 88.3952 16.4733 88.4619 16.1C88.5285 15.7133 88.5819 15.2933 88.6219 14.84C88.6619 14.3867 88.6752 13.9533 88.6619 13.54L88.5819 1.22C88.7285 1.19333 88.9819 1.18667 89.3419 1.2C89.7152 1.21333 90.1085 1.27333 90.5219 1.38C90.9752 1.48667 91.3819 1.68667 91.7419 1.98C92.1019 2.27333 92.3219 2.64667 92.4019 3.1C92.4285 3.24667 92.4485 3.54 92.4619 3.98C92.4752 4.40667 92.4819 4.91333 92.4819 5.5C92.4952 6.08667 92.4952 6.68667 92.4819 7.3C92.4819 7.91333 92.4819 8.48667 92.4819 9.02C92.4819 9.55333 92.4752 9.98667 92.4619 10.32C92.4619 10.6533 92.4619 10.82 92.4619 10.82C92.4485 11.3267 92.5019 11.7867 92.6219 12.2C92.7419 12.6 92.9152 12.9133 93.1419 13.14C93.3152 13.3133 93.5285 13.4333 93.7819 13.5C94.0352 13.5667 94.3485 13.6133 94.7219 13.64C94.8819 13.6533 95.1285 13.6533 95.4619 13.64C95.8085 13.6267 96.1885 13.6067 96.6019 13.58C97.0152 13.54 97.4219 13.4933 97.8219 13.44C98.2352 13.3867 98.5952 13.3267 98.9019 13.26C99.2085 13.1933 99.4085 13.12 99.5019 13.04Z" fill="black"/>
</svg>
