<svg width="48" height="12" viewBox="0 0 48 12" fill="none" xmlns="http://www.w3.org/2000/svg">
<path d="M0.621094 11V9.61572L1.74902 9.38867V1.95459L0.621094 1.72754V0.335938H5.21338V1.72754L4.09277 1.95459V4.84766H8.21631V1.95459L7.0957 1.72754V0.335938H8.21631H10.5527H11.6807V1.72754L10.5527 1.95459V9.38867L11.6807 9.61572V11H7.0957V9.61572L8.21631 9.38867V6.65674H4.09277V9.38867L5.21338 9.61572V11H0.621094ZM17.4302 11.1538C16.7026 11.1538 16.0361 11.0195 15.4307 10.751C14.8301 10.4824 14.3101 10.104 13.8706 9.61572C13.4312 9.12744 13.0918 8.55615 12.8525 7.90186C12.6182 7.24268 12.501 6.5249 12.501 5.74854V5.58008C12.501 4.80859 12.6182 4.0957 12.8525 3.44141C13.0918 2.78711 13.4287 2.21582 13.8633 1.72754C14.3027 1.23926 14.8228 0.86084 15.4233 0.592285C16.0288 0.318848 16.6953 0.182129 17.4229 0.182129C18.1455 0.182129 18.8096 0.318848 19.415 0.592285C20.0205 0.86084 20.5479 1.23926 20.9971 1.72754C21.4463 2.21582 21.793 2.78711 22.0371 3.44141C22.2812 4.0957 22.4033 4.80859 22.4033 5.58008V5.74854C22.4033 6.5249 22.2812 7.24268 22.0371 7.90186C21.793 8.55615 21.4463 9.12744 20.9971 9.61572C20.5527 10.104 20.0278 10.4824 19.4224 10.751C18.8169 11.0195 18.1528 11.1538 17.4302 11.1538ZM17.4302 9.35938C18.0015 9.35938 18.4824 9.20801 18.873 8.90527C19.2686 8.60254 19.5664 8.18262 19.7666 7.64551C19.9668 7.10352 20.0669 6.47119 20.0669 5.74854V5.56543C20.0669 4.85742 19.9644 4.23486 19.7593 3.69775C19.5591 3.16064 19.2612 2.74072 18.8657 2.43799C18.4751 2.13525 17.9941 1.98389 17.4229 1.98389C16.8369 1.98389 16.3535 2.13525 15.9727 2.43799C15.5918 2.73584 15.3086 3.15332 15.123 3.69043C14.9375 4.22266 14.8447 4.84766 14.8447 5.56543V5.74854C14.8447 6.47119 14.9375 7.10352 15.123 7.64551C15.3135 8.1875 15.5991 8.60986 15.98 8.9126C16.3657 9.21045 16.8491 9.35938 17.4302 9.35938ZM23.1504 11V9.61572L24.271 9.38867V1.95459L23.1504 1.72754V0.335938H24.271H27.8013L30.5479 7.57227H30.5918L33.2651 0.335938H37.8867V1.72754L36.7588 1.95459V9.38867L37.8867 9.61572V11H33.3018V9.61572L34.4736 9.38867V7.65283L34.5176 2.74561L34.4736 2.73828L31.3682 10.9268H29.5591L26.395 2.81885L26.3438 2.82617L26.4976 7.37451V9.38867L27.7427 9.61572V11H23.1504ZM38.502 11V9.61572L39.6299 9.38867V1.95459L38.502 1.72754V0.335938H46.8955V3.30957H45.1157L45.0352 2.1377H41.9736V4.58398H45.4819V6.39307H41.9736V9.19824H45.189L45.2695 7.98242H47.0347V11H38.502Z" fill="#404040"/>
</svg>
