<svg width="103" height="9" viewBox="0 0 103 9" fill="none" xmlns="http://www.w3.org/2000/svg">
<path d="M3.24 0.790999C3.594 0.790999 3.933 0.854 4.257 0.98C4.587 1.1 4.863 1.262 5.085 1.466C5.313 1.67 5.448 1.889 5.49 2.123C5.52 2.279 5.499 2.453 5.427 2.645C5.355 2.831 5.241 2.996 5.085 3.14C4.929 3.278 4.74 3.353 4.518 3.365C4.44 3.365 4.341 3.356 4.221 3.338C4.101 3.32 3.984 3.284 3.87 3.23C3.762 3.176 3.675 3.098 3.609 2.996C3.699 2.948 3.759 2.897 3.789 2.843C3.819 2.789 3.828 2.735 3.816 2.681C3.792 2.561 3.72 2.462 3.6 2.384C3.486 2.306 3.345 2.258 3.177 2.24C3.081 2.228 2.97 2.231 2.844 2.249C2.718 2.261 2.601 2.303 2.493 2.375C2.391 2.441 2.319 2.552 2.277 2.708C2.253 2.798 2.256 2.897 2.286 3.005C2.322 3.107 2.406 3.206 2.538 3.302C2.67 3.392 2.871 3.47 3.141 3.536C3.555 3.632 3.939 3.737 4.293 3.851C4.653 3.965 4.968 4.106 5.238 4.274C5.508 4.442 5.715 4.652 5.859 4.904C6.009 5.15 6.078 5.459 6.066 5.831C6.06 6.077 5.994 6.335 5.868 6.605C5.742 6.875 5.559 7.127 5.319 7.361C5.079 7.589 4.785 7.775 4.437 7.919C4.089 8.063 3.693 8.135 3.249 8.135C2.967 8.135 2.676 8.111 2.376 8.063C2.076 8.015 1.791 7.94 1.521 7.838C1.257 7.736 1.023 7.601 0.819 7.433C0.639 7.277 0.51 7.082 0.432 6.848C0.36 6.614 0.345 6.38 0.387 6.146C0.429 5.906 0.534 5.702 0.702 5.534C0.876 5.366 1.116 5.273 1.422 5.255C1.362 5.435 1.395 5.612 1.521 5.786C1.653 5.954 1.848 6.098 2.106 6.218C2.364 6.332 2.646 6.401 2.952 6.425C3.27 6.449 3.546 6.437 3.78 6.389C4.02 6.341 4.152 6.242 4.176 6.092C4.206 5.912 4.17 5.768 4.068 5.66C3.966 5.552 3.825 5.471 3.645 5.417C3.465 5.357 3.27 5.309 3.06 5.273C2.85 5.231 2.655 5.189 2.475 5.147C2.235 5.081 1.992 4.997 1.746 4.895C1.506 4.787 1.284 4.652 1.08 4.49C0.882 4.328 0.72 4.13 0.594 3.896C0.468 3.662 0.402 3.389 0.396 3.077C0.39 2.711 0.465 2.387 0.621 2.105C0.777 1.817 0.99 1.577 1.26 1.385C1.53 1.187 1.836 1.04 2.178 0.944C2.526 0.842 2.88 0.790999 3.24 0.790999ZM7.5768 8.081C7.3188 8.033 7.1358 7.859 7.0278 7.559C6.9258 7.259 6.8748 6.887 6.8748 6.443C6.8748 6.389 6.8718 6.254 6.8658 6.038C6.8658 5.822 6.8628 5.555 6.8568 5.237C6.8568 4.913 6.8538 4.565 6.8478 4.193C6.8478 3.821 6.8448 3.449 6.8388 3.077C6.8328 2.705 6.8268 2.363 6.8208 2.051C6.8148 1.733 6.8088 1.472 6.8028 1.268C6.7968 1.064 6.7908 0.941 6.7848 0.899C6.8748 0.881 7.0128 0.878 7.1988 0.89C7.3908 0.896 7.5888 0.926 7.7928 0.98C8.0028 1.028 8.1858 1.112 8.3418 1.232C8.4978 1.346 8.5878 1.505 8.6118 1.709C8.6238 1.805 8.6328 1.97 8.6388 2.204C8.6448 2.432 8.6478 2.705 8.6478 3.023C8.6538 3.335 8.6568 3.668 8.6568 4.022C8.6568 4.376 8.6568 4.727 8.6568 5.075C8.6568 5.417 8.6568 5.735 8.6568 6.029C8.6568 6.317 8.6568 6.56 8.6568 6.758C8.6628 6.95 8.6688 7.067 8.6748 7.109C8.6868 7.235 8.7108 7.328 8.7468 7.388C8.7828 7.442 8.8218 7.511 8.8638 7.595C8.7138 7.757 8.5278 7.889 8.3058 7.991C8.0838 8.093 7.8408 8.123 7.5768 8.081ZM15.8347 3.905C15.9007 3.971 15.9487 4.07 15.9787 4.202C16.0147 4.328 16.0207 4.469 15.9967 4.625C15.9787 4.757 15.9337 4.892 15.8617 5.03C15.7897 5.168 15.6817 5.288 15.5377 5.39C15.4237 5.468 15.3397 5.597 15.2857 5.777C15.2317 5.951 15.1957 6.128 15.1777 6.308C15.1537 6.512 15.0997 6.722 15.0157 6.938C14.9377 7.154 14.8147 7.346 14.6467 7.514C14.5147 7.67 14.3227 7.814 14.0707 7.946C13.8247 8.072 13.4887 8.132 13.0627 8.126C12.8227 8.12 12.5407 8.078 12.2167 8C11.8987 7.922 11.5747 7.796 11.2447 7.622C10.9207 7.442 10.6237 7.202 10.3537 6.902C10.0837 6.602 9.87673 6.23 9.73273 5.786C9.58873 5.342 9.54673 4.814 9.60673 4.202C9.66073 3.62 9.80473 3.116 10.0387 2.69C10.2787 2.264 10.5757 1.913 10.9297 1.637C11.2837 1.361 11.6647 1.154 12.0727 1.016C12.4807 0.872 12.8857 0.797 13.2877 0.790999C13.6417 0.779 13.9507 0.833 14.2147 0.953C14.4787 1.073 14.6887 1.229 14.8447 1.421C15.0067 1.607 15.1147 1.808 15.1687 2.024C15.2287 2.234 15.2287 2.426 15.1687 2.6C15.1207 2.75 15.0517 2.873 14.9617 2.969C14.8777 3.065 14.7847 3.131 14.6827 3.167C14.5567 3.215 14.4277 3.224 14.2957 3.194C14.1637 3.158 14.0497 3.083 13.9537 2.969C14.0557 2.891 14.0857 2.807 14.0437 2.717C14.0077 2.621 13.9147 2.543 13.7647 2.483C13.6147 2.417 13.4227 2.393 13.1887 2.411C13.0087 2.423 12.8167 2.474 12.6127 2.564C12.4147 2.654 12.2257 2.78 12.0457 2.942C11.8717 3.104 11.7277 3.302 11.6137 3.536C11.4997 3.77 11.4367 4.037 11.4247 4.337C11.4067 4.751 11.4427 5.087 11.5327 5.345C11.6287 5.603 11.7547 5.798 11.9107 5.93C12.0667 6.062 12.2347 6.152 12.4147 6.2C12.5947 6.248 12.7687 6.272 12.9367 6.272C13.0807 6.272 13.1977 6.227 13.2877 6.137C13.3837 6.047 13.4227 5.939 13.4047 5.813C13.3867 5.687 13.2787 5.567 13.0807 5.453C12.8947 5.351 12.7747 5.252 12.7207 5.156C12.6667 5.06 12.6217 4.964 12.5857 4.868C12.5257 4.712 12.4747 4.544 12.4327 4.364C12.3907 4.184 12.3727 4.031 12.3787 3.905C12.4267 3.923 12.5497 3.953 12.7477 3.995C12.9457 4.031 13.1737 4.064 13.4317 4.094C13.6957 4.124 13.9447 4.142 14.1787 4.148C14.4247 4.148 14.6617 4.142 14.8897 4.13C15.1177 4.112 15.3157 4.085 15.4837 4.049C15.6577 4.013 15.7747 3.965 15.8347 3.905ZM22.6472 1.709C22.6592 1.811 22.6652 1.985 22.6652 2.231C22.6712 2.471 22.6742 2.759 22.6742 3.095C22.6742 3.431 22.6742 3.785 22.6742 4.157C22.6742 4.529 22.6712 4.898 22.6652 5.264C22.6652 5.63 22.6622 5.963 22.6562 6.263C22.6562 6.563 22.6562 6.809 22.6562 7.001C22.6562 7.187 22.6592 7.292 22.6652 7.316C22.6772 7.364 22.6682 7.442 22.6382 7.55C22.6082 7.652 22.5602 7.751 22.4942 7.847C22.4282 7.937 22.3442 7.991 22.2422 8.009C22.1462 8.033 22.0112 8.033 21.8372 8.009C21.6692 7.991 21.4982 7.946 21.3242 7.874C21.1562 7.796 21.0212 7.685 20.9192 7.541C20.8592 7.457 20.7662 7.337 20.6402 7.181C20.5202 7.019 20.3852 6.845 20.2352 6.659C20.0912 6.467 19.9472 6.284 19.8032 6.11C19.6652 5.93 19.5482 5.777 19.4522 5.651C19.3562 5.519 19.2962 5.438 19.2722 5.408C19.2182 5.324 19.1282 5.24 19.0022 5.156C18.8822 5.066 18.7862 5.033 18.7142 5.057C18.6422 5.081 18.5882 5.156 18.5522 5.282C18.5162 5.402 18.4922 5.531 18.4802 5.669C18.4682 5.759 18.4622 5.897 18.4622 6.083C18.4622 6.263 18.4622 6.449 18.4622 6.641C18.4682 6.833 18.4682 6.989 18.4622 7.109C18.4562 7.319 18.5222 7.52 18.6602 7.712C18.6122 7.742 18.5162 7.79 18.3722 7.856C18.2282 7.916 18.0752 7.97 17.9132 8.018C17.7512 8.066 17.6132 8.087 17.4992 8.081C17.3072 8.069 17.1362 7.97 16.9862 7.784C16.8422 7.598 16.7672 7.367 16.7612 7.091C16.7612 7.037 16.7582 6.887 16.7522 6.641C16.7522 6.389 16.7492 6.077 16.7432 5.705C16.7432 5.333 16.7432 4.931 16.7432 4.499C16.7432 4.067 16.7402 3.641 16.7342 3.221C16.7342 2.795 16.7312 2.408 16.7252 2.06C16.7252 1.706 16.7252 1.424 16.7252 1.214C16.7252 1.004 16.7252 0.899 16.7252 0.899C17.0912 0.887 17.4002 0.914 17.6522 0.98C17.9042 1.046 18.1142 1.166 18.2822 1.34C18.3542 1.406 18.4592 1.523 18.5972 1.691C18.7352 1.859 18.8852 2.051 19.0472 2.267C19.2152 2.477 19.3772 2.687 19.5332 2.897C19.6952 3.107 19.8362 3.293 19.9562 3.455C20.0762 3.611 20.1542 3.713 20.1902 3.761C20.2862 3.881 20.3822 3.977 20.4782 4.049C20.5802 4.115 20.6642 4.136 20.7302 4.112C20.8742 4.064 20.9462 3.863 20.9462 3.509L20.9282 0.899C20.9942 0.887 21.1082 0.884 21.2702 0.89C21.4382 0.896 21.6152 0.923 21.8012 0.971C22.0052 1.019 22.1912 1.1 22.3592 1.214C22.5272 1.328 22.6232 1.493 22.6472 1.709ZM32.2646 1.709C32.2766 1.847 32.2916 2.072 32.3096 2.384C32.3336 2.69 32.3516 3.044 32.3636 3.446C32.3756 3.848 32.3786 4.262 32.3726 4.688C32.3726 5.108 32.3576 5.507 32.3276 5.885C32.3036 6.263 32.2586 6.578 32.1926 6.83C32.0846 7.244 31.7846 7.562 31.2926 7.784C30.8006 8.006 30.1826 8.117 29.4386 8.117C28.9406 8.117 28.5176 8.024 28.1696 7.838C27.8216 7.652 27.5516 7.397 27.3596 7.073C27.1736 6.743 27.0686 6.365 27.0446 5.939C27.0326 5.729 27.0236 5.462 27.0176 5.138C27.0116 4.808 27.0056 4.454 26.9996 4.076C26.9996 3.692 26.9996 3.314 26.9996 2.942C26.9996 2.57 26.9996 2.231 26.9996 1.925C27.0056 1.613 27.0086 1.364 27.0086 1.178C27.0086 0.992 27.0086 0.899 27.0086 0.899C27.0746 0.887 27.1886 0.884 27.3506 0.89C27.5186 0.896 27.6926 0.923 27.8726 0.971C28.0766 1.019 28.2626 1.1 28.4306 1.214C28.6046 1.328 28.7036 1.493 28.7276 1.709C28.7456 1.889 28.7456 2.159 28.7276 2.519C28.7156 2.873 28.7036 3.281 28.6916 3.743C28.6856 4.199 28.6976 4.673 28.7276 5.165C28.7336 5.267 28.7366 5.384 28.7366 5.516C28.7366 5.648 28.7546 5.777 28.7906 5.903C28.8326 6.029 28.9136 6.134 29.0336 6.218C29.1596 6.302 29.3516 6.344 29.6096 6.344C29.8676 6.344 30.0626 6.308 30.1946 6.236C30.3326 6.164 30.4316 6.065 30.4916 5.939C30.5516 5.813 30.5876 5.666 30.5996 5.498C30.6176 5.33 30.6326 5.15 30.6446 4.958C30.6566 4.832 30.6596 4.646 30.6536 4.4C30.6536 4.154 30.6506 3.878 30.6446 3.572C30.6386 3.266 30.6296 2.957 30.6176 2.645C30.6056 2.333 30.5936 2.045 30.5816 1.781C30.5696 1.517 30.5606 1.304 30.5546 1.142C30.5486 0.98 30.5456 0.899 30.5456 0.899C30.6116 0.887 30.7256 0.884 30.8876 0.89C31.0556 0.896 31.2326 0.923 31.4186 0.971C31.6226 1.019 31.8086 1.103 31.9766 1.223C32.1446 1.337 32.2406 1.499 32.2646 1.709ZM37.3475 0.845C37.7915 0.911 38.1425 1.031 38.4005 1.205C38.6645 1.373 38.8595 1.568 38.9855 1.79C39.1115 2.012 39.1925 2.231 39.2285 2.447C39.2645 2.657 39.2825 2.837 39.2825 2.987C39.2825 3.179 39.2495 3.401 39.1835 3.653C39.1175 3.899 39.0065 4.142 38.8505 4.382C38.7005 4.616 38.4995 4.82 38.2475 4.994C37.9955 5.162 37.6805 5.264 37.3025 5.3C37.2365 5.306 37.1525 5.312 37.0505 5.318C36.9485 5.324 36.8555 5.33 36.7715 5.336C36.6935 5.336 36.6455 5.336 36.6275 5.336C36.3995 5.348 36.1895 5.414 35.9975 5.534C35.8115 5.654 35.6615 5.81 35.5475 6.002C35.4395 6.188 35.3825 6.398 35.3765 6.632V6.965C35.3765 7.121 35.3975 7.265 35.4395 7.397C35.4815 7.523 35.5145 7.61 35.5385 7.658C35.3945 7.79 35.2685 7.883 35.1605 7.937C35.0525 7.991 34.9175 8.03 34.7555 8.054C34.6235 8.072 34.4765 8.06 34.3145 8.018C34.1585 7.976 34.0175 7.898 33.8915 7.784C33.7655 7.664 33.6845 7.499 33.6485 7.289C33.6425 7.253 33.6395 7.139 33.6395 6.947C33.6395 6.749 33.6395 6.506 33.6395 6.218C33.6455 5.924 33.6485 5.603 33.6485 5.255C33.6545 4.907 33.6575 4.559 33.6575 4.211C33.6575 3.863 33.6575 3.539 33.6575 3.239C33.6515 2.915 33.6365 2.642 33.6125 2.42C33.5945 2.198 33.5495 2.057 33.4775 1.997C33.3515 1.889 33.2525 1.721 33.1805 1.493C33.1145 1.265 33.0845 1.049 33.0905 0.845C33.1145 0.851 33.1805 0.86 33.2885 0.872C33.3965 0.878 33.5105 0.887 33.6305 0.899C33.6905 0.899 33.7895 0.899 33.9275 0.899C34.0655 0.893 34.2155 0.884 34.3775 0.872C34.5455 0.86 34.7075 0.851 34.8635 0.845C35.0195 0.833 35.1455 0.824 35.2415 0.818C35.3735 0.806 35.5475 0.794 35.7635 0.782C35.9855 0.77 36.2345 0.767 36.5105 0.773C36.7865 0.779 37.0655 0.803 37.3475 0.845ZM36.2765 3.653C36.3605 3.659 36.4655 3.653 36.5915 3.635C36.7235 3.611 36.8555 3.575 36.9875 3.527C37.1255 3.479 37.2395 3.413 37.3295 3.329C37.4195 3.239 37.4645 3.131 37.4645 3.005C37.4645 2.831 37.3985 2.696 37.2665 2.6C37.1405 2.504 36.9845 2.438 36.7985 2.402C36.6185 2.366 36.4445 2.351 36.2765 2.357C36.0305 2.363 35.8205 2.432 35.6465 2.564C35.4725 2.69 35.3855 2.84 35.3855 3.014C35.3915 3.128 35.4365 3.233 35.5205 3.329C35.6105 3.419 35.7215 3.494 35.8535 3.554C35.9915 3.614 36.1325 3.647 36.2765 3.653ZM48.2822 0.835999C48.3542 0.896 48.4202 1.01 48.4802 1.178C48.5402 1.34 48.5702 1.511 48.5702 1.691C48.5642 1.859 48.5192 2.018 48.4352 2.168C48.3572 2.318 48.2132 2.42 48.0032 2.474C47.9432 2.492 47.8502 2.507 47.7242 2.519C47.5982 2.525 47.4662 2.531 47.3282 2.537C47.1962 2.537 47.0822 2.54 46.9862 2.546C46.8962 2.546 46.8512 2.546 46.8512 2.546C46.4972 2.546 46.1972 2.594 45.9512 2.69C45.7052 2.786 45.5732 2.936 45.5552 3.14C45.5372 3.338 45.5582 3.473 45.6182 3.545C45.6842 3.617 45.7682 3.677 45.8702 3.725C45.9422 3.755 46.0652 3.77 46.2392 3.77C46.4192 3.764 46.6112 3.746 46.8152 3.716C47.0192 3.686 47.2022 3.65 47.3642 3.608C47.5322 3.566 47.6432 3.524 47.6972 3.482C47.7752 3.548 47.8292 3.674 47.8592 3.86C47.8892 4.04 47.8862 4.226 47.8502 4.418C47.8202 4.574 47.7602 4.718 47.6702 4.85C47.5802 4.976 47.4572 5.063 47.3012 5.111C47.1752 5.147 47.0762 5.168 47.0042 5.174C46.9382 5.18 46.8842 5.186 46.8422 5.192C46.3862 5.204 46.0502 5.33 45.8342 5.57C45.6242 5.804 45.5252 6.107 45.5372 6.479C45.5432 6.629 45.5762 6.773 45.6362 6.911C45.7022 7.043 45.7712 7.136 45.8432 7.19C45.8372 7.25 45.8222 7.316 45.7982 7.388C45.7742 7.454 45.7322 7.532 45.6722 7.622C45.5942 7.736 45.4892 7.841 45.3572 7.937C45.2252 8.033 45.0542 8.084 44.8442 8.09C44.6282 8.09 44.4452 8.042 44.2952 7.946C44.1452 7.844 44.0312 7.673 43.9532 7.433C43.8812 7.193 43.8452 6.863 43.8452 6.443C43.8452 6.431 43.8452 6.335 43.8452 6.155C43.8452 5.975 43.8422 5.75 43.8362 5.48C43.8362 5.21 43.8332 4.928 43.8272 4.634C43.8272 4.34 43.8242 4.07 43.8182 3.824C43.8182 3.572 43.8182 3.38 43.8182 3.248C43.8182 3.05 43.8092 2.837 43.7912 2.609C43.7732 2.381 43.7522 2.165 43.7282 1.961C43.7042 1.751 43.6832 1.583 43.6652 1.457C43.6412 1.355 43.6232 1.256 43.6112 1.16C43.6052 1.058 43.6022 0.968 43.6022 0.89C43.6442 0.908 43.7582 0.926 43.9442 0.944C44.1362 0.955999 44.3582 0.968 44.6102 0.98C44.6342 0.98 44.7032 0.983 44.8172 0.989C44.9372 0.995 45.0752 1.001 45.2312 1.007C45.3872 1.007 45.5372 1.01 45.6812 1.016C45.8312 1.022 45.9452 1.025 46.0232 1.025C46.1192 1.025 46.2422 1.025 46.3922 1.025C46.5482 1.025 46.7072 1.025 46.8692 1.025C47.0312 1.019 47.1752 1.013 47.3012 1.007C47.4872 0.995 47.6822 0.977 47.8862 0.953C48.0902 0.923 48.2222 0.884 48.2822 0.835999ZM55.7885 4.139C55.8485 4.697 55.8215 5.192 55.7075 5.624C55.5995 6.056 55.4285 6.431 55.1945 6.749C54.9665 7.061 54.6965 7.319 54.3845 7.523C54.0725 7.721 53.7395 7.871 53.3855 7.973C53.0375 8.069 52.6925 8.117 52.3505 8.117C52.0085 8.117 51.6605 8.072 51.3065 7.982C50.9525 7.892 50.6165 7.751 50.2985 7.559C49.9865 7.367 49.7105 7.118 49.4705 6.812C49.2365 6.506 49.0625 6.143 48.9485 5.723C48.8345 5.297 48.8075 4.805 48.8675 4.247C48.9155 3.767 49.0355 3.32 49.2275 2.906C49.4195 2.486 49.6685 2.123 49.9745 1.817C50.2805 1.505 50.6315 1.265 51.0275 1.097C51.4235 0.923 51.8465 0.842 52.2965 0.854C52.3265 0.854 52.3715 0.833 52.4315 0.790999C52.4915 0.743 52.5725 0.698 52.6745 0.656C52.7765 0.614 52.8995 0.599 53.0435 0.611C53.3135 0.635 53.5985 0.746 53.8985 0.944C54.1985 1.142 54.4835 1.406 54.7535 1.736C55.0235 2.06 55.2515 2.429 55.4375 2.843C55.6235 3.257 55.7405 3.689 55.7885 4.139ZM52.3775 6.452C52.5875 6.446 52.7855 6.416 52.9715 6.362C53.1635 6.308 53.3345 6.209 53.4845 6.065C53.6345 5.921 53.7545 5.717 53.8445 5.453C53.9405 5.189 53.9915 4.85 53.9975 4.436C54.0035 4.148 53.9405 3.869 53.8085 3.599C53.6765 3.329 53.4935 3.101 53.2595 2.915C53.0255 2.723 52.7585 2.612 52.4585 2.582C52.1345 2.546 51.8585 2.579 51.6305 2.681C51.4025 2.777 51.2135 2.921 51.0635 3.113C50.9195 3.299 50.8085 3.509 50.7305 3.743C50.6525 3.977 50.6045 4.214 50.5865 4.454C50.5505 4.868 50.5895 5.207 50.7035 5.471C50.8175 5.735 50.9705 5.939 51.1625 6.083C51.3545 6.227 51.5585 6.326 51.7745 6.38C51.9965 6.434 52.1975 6.458 52.3775 6.452ZM61.4987 5.147C61.4747 5.153 61.4387 5.186 61.3907 5.246C61.3487 5.306 61.3187 5.369 61.3007 5.435C61.2707 5.531 61.2797 5.609 61.3277 5.669C61.4537 5.819 61.6157 5.996 61.8137 6.2C62.0117 6.398 62.2097 6.587 62.4077 6.767C62.6117 6.947 62.7857 7.085 62.9297 7.181C62.8217 7.469 62.6507 7.7 62.4167 7.874C62.1887 8.042 61.9337 8.123 61.6517 8.117C61.3697 8.111 61.0937 7.985 60.8237 7.739C60.7877 7.703 60.7187 7.625 60.6167 7.505C60.5147 7.379 60.3977 7.232 60.2657 7.064C60.1337 6.896 60.0017 6.728 59.8697 6.56C59.7377 6.392 59.6237 6.245 59.5277 6.119C59.4317 5.993 59.3717 5.915 59.3477 5.885C59.2337 5.735 59.1257 5.702 59.0237 5.786C58.9217 5.87 58.8587 6.044 58.8347 6.308C58.8227 6.464 58.8227 6.644 58.8347 6.848C58.8527 7.046 58.8767 7.223 58.9067 7.379C58.9427 7.535 58.9787 7.628 59.0147 7.658C58.8887 7.754 58.7327 7.844 58.5467 7.928C58.3607 8.012 58.1477 8.063 57.9077 8.081C57.8177 8.087 57.7127 8.063 57.5927 8.009C57.4727 7.955 57.3677 7.868 57.2777 7.748C57.1937 7.622 57.1487 7.466 57.1427 7.28C57.1427 7.232 57.1397 7.106 57.1337 6.902C57.1337 6.698 57.1307 6.449 57.1247 6.155C57.1247 5.855 57.1247 5.546 57.1247 5.228C57.1247 4.91 57.1217 4.61 57.1157 4.328C57.1157 4.046 57.1157 3.818 57.1157 3.644C57.1157 3.47 57.1157 3.383 57.1157 3.383C57.1157 3.029 57.1067 2.735 57.0887 2.501C57.0707 2.261 56.9987 2.078 56.8727 1.952C56.7587 1.838 56.6717 1.673 56.6117 1.457C56.5577 1.241 56.5337 1.037 56.5397 0.845C56.5637 0.851 56.6357 0.86 56.7557 0.872C56.8757 0.878 56.9927 0.887 57.1067 0.899C57.1847 0.899 57.2957 0.899 57.4397 0.899C57.5897 0.893 57.7487 0.887 57.9167 0.881C58.0847 0.875 58.2407 0.872 58.3847 0.872C58.5287 0.866 58.6367 0.86 58.7087 0.854C58.7627 0.854 58.8617 0.854 59.0057 0.854C59.1557 0.848 59.3297 0.845 59.5277 0.845C59.7257 0.845 59.9267 0.848 60.1307 0.854C60.3347 0.854 60.5237 0.86 60.6977 0.872C60.8717 0.884 61.0067 0.899 61.1027 0.916999C61.4987 0.989 61.8047 1.121 62.0207 1.313C62.2367 1.505 62.3897 1.736 62.4797 2.006C62.5757 2.276 62.6327 2.57 62.6507 2.888C62.6627 3.158 62.6327 3.44 62.5607 3.734C62.4887 4.028 62.3657 4.301 62.1917 4.553C62.0177 4.805 61.7867 5.003 61.4987 5.147ZM58.8527 3.212C58.8527 3.404 58.8977 3.548 58.9877 3.644C59.0777 3.734 59.1617 3.788 59.2397 3.806C59.3477 3.83 59.4857 3.833 59.6537 3.815C59.8217 3.791 59.9897 3.749 60.1577 3.689C60.3257 3.623 60.4667 3.539 60.5807 3.437C60.7007 3.335 60.7607 3.218 60.7607 3.086C60.7607 2.912 60.6887 2.78 60.5447 2.69C60.4007 2.594 60.2177 2.534 59.9957 2.51C59.7797 2.486 59.5637 2.492 59.3477 2.528C59.1797 2.552 59.0537 2.627 58.9697 2.753C58.8857 2.879 58.8467 3.032 58.8527 3.212ZM70.9976 6.362C71.0816 6.35 71.1866 6.335 71.3126 6.317C71.4446 6.299 71.5676 6.278 71.6816 6.254C71.8016 6.224 71.8826 6.191 71.9246 6.155C72.0026 6.221 72.0536 6.356 72.0776 6.56C72.1076 6.758 72.0986 6.965 72.0506 7.181C72.0146 7.367 71.9516 7.541 71.8616 7.703C71.7716 7.865 71.6426 7.964 71.4746 8C71.3306 8.03 71.1656 8.048 70.9796 8.054C70.7936 8.06 70.6046 8.06 70.4126 8.054C70.2206 8.048 70.0436 8.042 69.8816 8.036C69.7256 8.03 69.6056 8.027 69.5216 8.027C69.4376 8.027 69.3056 8.027 69.1256 8.027C68.9516 8.033 68.7986 8.039 68.6666 8.045C68.5106 8.063 68.3396 8.075 68.1536 8.081C67.9676 8.087 67.7966 8.081 67.6406 8.063C67.4846 8.045 67.3706 8.015 67.2986 7.973C67.3406 7.889 67.3766 7.763 67.4066 7.595C67.4366 7.421 67.4606 7.232 67.4786 7.028C67.4966 6.824 67.5026 6.629 67.4966 6.443L67.4786 4.796V4.031C67.4786 3.815 67.4756 3.635 67.4696 3.491C67.4696 3.347 67.4696 3.269 67.4696 3.257C67.4696 3.059 67.4606 2.846 67.4426 2.618C67.4246 2.39 67.4036 2.174 67.3796 1.97C67.3556 1.76 67.3346 1.589 67.3166 1.457C67.2926 1.355 67.2746 1.256 67.2626 1.16C67.2506 1.058 67.2476 0.968 67.2536 0.89C67.2956 0.908 67.4096 0.926 67.5956 0.944C67.7876 0.955999 68.0096 0.968 68.2616 0.98C68.2796 0.98 68.3666 0.983 68.5226 0.989C68.6786 0.989 68.8706 0.992 69.0986 0.997999C69.3326 1.004 69.5726 1.01 69.8186 1.016C70.0706 1.016 70.2986 1.016 70.5026 1.016C70.7066 1.016 70.8566 1.013 70.9526 1.007C71.1986 0.995 71.4056 0.977 71.5736 0.953C71.7476 0.923 71.8646 0.884 71.9246 0.835999C71.9966 0.896 72.0626 1.01 72.1226 1.178C72.1886 1.34 72.2246 1.511 72.2306 1.691C72.2306 1.865 72.1886 2.03 72.1046 2.186C72.0266 2.336 71.8826 2.438 71.6726 2.492C71.5946 2.51 71.4716 2.525 71.3036 2.537C71.1416 2.549 70.9826 2.558 70.8266 2.564C70.6766 2.564 70.5686 2.561 70.5026 2.555C70.3166 2.537 70.1246 2.558 69.9266 2.618C69.7286 2.672 69.5606 2.747 69.4226 2.843C69.2846 2.933 69.2126 3.032 69.2066 3.14C69.2006 3.242 69.2426 3.326 69.3326 3.392C69.4226 3.458 69.5396 3.512 69.6836 3.554C69.8336 3.59 69.9926 3.614 70.1606 3.626C70.3286 3.638 70.4876 3.641 70.6376 3.635C70.7576 3.623 70.8956 3.602 71.0516 3.572C71.2076 3.542 71.3036 3.512 71.3396 3.482C71.4176 3.548 71.4716 3.671 71.5016 3.851C71.5376 4.031 71.5376 4.217 71.5016 4.409C71.4716 4.565 71.4116 4.709 71.3216 4.841C71.2316 4.973 71.1056 5.063 70.9436 5.111C70.8176 5.147 70.7096 5.171 70.6196 5.183C70.5296 5.189 70.4846 5.192 70.4846 5.192C70.1306 5.192 69.8306 5.255 69.5846 5.381C69.3446 5.501 69.2126 5.645 69.1886 5.813C69.1646 5.957 69.1946 6.089 69.2786 6.209C69.3686 6.329 69.4976 6.395 69.6656 6.407C69.7796 6.413 69.9236 6.416 70.0976 6.416C70.2776 6.41 70.4516 6.404 70.6196 6.398C70.7936 6.386 70.9196 6.374 70.9976 6.362ZM80.5989 7.055C80.6049 7.175 80.6199 7.292 80.6439 7.406C80.6739 7.52 80.7099 7.604 80.7519 7.658C80.6979 7.712 80.6139 7.775 80.4999 7.847C80.3919 7.919 80.2659 7.976 80.1219 8.018C79.9839 8.066 79.8369 8.087 79.6809 8.081C79.4469 8.069 79.2579 7.97 79.1139 7.784C78.9759 7.598 78.9039 7.367 78.8979 7.091C78.8979 7.037 78.8979 6.938 78.8979 6.794C78.8979 6.644 78.8979 6.485 78.8979 6.317C78.8979 6.149 78.8979 6.011 78.8979 5.903C78.8979 5.801 78.8709 5.702 78.8169 5.606C78.7689 5.51 78.7119 5.453 78.6459 5.435C78.5559 5.405 78.4809 5.459 78.4209 5.597C78.4089 5.627 78.3699 5.702 78.3039 5.822C78.2379 5.936 78.1629 6.071 78.0789 6.227C78.0009 6.383 77.9259 6.539 77.8539 6.695C77.7879 6.851 77.7429 6.986 77.7189 7.1C77.6949 7.208 77.7099 7.274 77.7639 7.298C77.7399 7.358 77.6949 7.445 77.6289 7.559C77.5689 7.673 77.4669 7.772 77.3229 7.856C77.1849 7.934 76.9869 7.964 76.7289 7.946C76.5909 7.934 76.4139 7.85 76.1979 7.694C75.9819 7.538 75.7749 7.253 75.5769 6.839C75.3909 6.443 75.2379 6.176 75.1179 6.038C75.0039 5.894 74.9199 5.828 74.8659 5.84C74.8179 5.846 74.7789 5.879 74.7489 5.939C74.7249 5.999 74.7009 6.083 74.6769 6.191C74.6649 6.245 74.6589 6.335 74.6589 6.461C74.6589 6.587 74.6649 6.728 74.6769 6.884C74.6889 7.04 74.7099 7.187 74.7399 7.325C74.7759 7.463 74.8209 7.568 74.8749 7.64C74.8269 7.67 74.7399 7.721 74.6139 7.793C74.4939 7.865 74.3559 7.931 74.1999 7.991C74.0499 8.045 73.9029 8.072 73.7589 8.072C73.5429 8.066 73.3629 8.009 73.2189 7.901C73.0749 7.787 72.9879 7.565 72.9579 7.235C72.9519 7.181 72.9489 7.028 72.9489 6.776C72.9489 6.524 72.9489 6.206 72.9489 5.822C72.9489 5.438 72.9489 5.027 72.9489 4.589C72.9489 4.145 72.9489 3.707 72.9489 3.275C72.9489 2.843 72.9489 2.447 72.9489 2.087C72.9549 1.727 72.9579 1.439 72.9579 1.223C72.9579 1.007 72.9579 0.899 72.9579 0.899C73.0239 0.887 73.1349 0.884 73.2909 0.89C73.4469 0.896 73.6179 0.92 73.8039 0.961999C73.9899 1.004 74.1609 1.073 74.3169 1.169C74.4729 1.259 74.5809 1.388 74.6409 1.556C74.6409 1.556 74.6679 1.613 74.7219 1.727C74.7819 1.835 74.8599 1.979 74.9559 2.159C75.0519 2.333 75.1539 2.522 75.2619 2.726C75.3759 2.93 75.4839 3.131 75.5859 3.329C75.6939 3.527 75.7869 3.701 75.8649 3.851C75.9489 4.001 76.0059 4.106 76.0359 4.166C76.1379 4.34 76.2339 4.46 76.3239 4.526C76.4199 4.592 76.5219 4.628 76.6299 4.634C76.8519 4.634 77.0649 4.463 77.2689 4.121C77.2989 4.067 77.3589 3.953 77.4489 3.779C77.5389 3.599 77.6439 3.386 77.7639 3.14C77.8839 2.894 78.0069 2.642 78.1329 2.384C78.2649 2.126 78.3849 1.886 78.4929 1.664C78.6009 1.436 78.6879 1.253 78.7539 1.115C78.8259 0.971 78.8619 0.899 78.8619 0.899C78.9039 0.893 78.9639 0.89 79.0419 0.89C79.1259 0.884 79.2159 0.887 79.3119 0.899C79.4799 0.911 79.6569 0.943999 79.8429 0.997999C80.0349 1.052 80.1999 1.136 80.3379 1.25C80.4819 1.364 80.5629 1.517 80.5809 1.709C80.5929 1.811 80.6019 1.979 80.6079 2.213C80.6139 2.441 80.6169 2.714 80.6169 3.032C80.6169 3.344 80.6169 3.677 80.6169 4.031C80.6169 4.385 80.6139 4.733 80.6079 5.075C80.6079 5.417 80.6049 5.732 80.5989 6.02C80.5989 6.308 80.5989 6.545 80.5989 6.731C80.5989 6.911 80.5989 7.019 80.5989 7.055ZM87.0363 6.308C87.1083 6.482 87.2103 6.65 87.3423 6.812C87.4743 6.968 87.5883 7.085 87.6843 7.163C87.5403 7.463 87.3633 7.682 87.1533 7.82C86.9793 7.934 86.7933 8 86.5953 8.018C86.4873 8.03 86.3643 8.021 86.2263 7.991C86.0883 7.961 85.9443 7.877 85.7943 7.739C85.6503 7.595 85.5063 7.367 85.3623 7.055C85.3203 6.953 85.2273 6.881 85.0833 6.839C84.9393 6.797 84.7863 6.773 84.6243 6.767C84.4623 6.755 84.3303 6.749 84.2283 6.749C84.1263 6.749 84.0003 6.752 83.8503 6.758C83.7063 6.764 83.5743 6.788 83.4543 6.83C83.3343 6.872 83.2623 6.947 83.2383 7.055C83.2143 7.151 83.2113 7.25 83.2293 7.352C83.2473 7.454 83.2863 7.52 83.3463 7.55C83.2443 7.646 83.1423 7.73 83.0403 7.802C82.9443 7.874 82.8453 7.931 82.7433 7.973C82.6173 8.027 82.4853 8.054 82.3473 8.054C82.2153 8.054 82.0653 8.024 81.8973 7.964C81.8193 7.934 81.7383 7.88 81.6543 7.802C81.5703 7.724 81.5133 7.616 81.4833 7.478C81.4533 7.34 81.4773 7.166 81.5553 6.956C81.5613 6.938 81.5913 6.842 81.6453 6.668C81.6993 6.494 81.7683 6.266 81.8523 5.984C81.9423 5.696 82.0383 5.378 82.1403 5.03C82.2483 4.682 82.3563 4.325 82.4643 3.959C82.5783 3.587 82.6863 3.23 82.7883 2.888C82.8963 2.546 82.9923 2.237 83.0763 1.961C83.1603 1.685 83.2263 1.466 83.2743 1.304C83.3223 1.142 83.3463 1.061 83.3463 1.061C83.4003 1.031 83.4993 0.995 83.6433 0.953C83.7933 0.905 83.9523 0.878 84.1203 0.872C84.3063 0.86 84.4863 0.884 84.6603 0.944C84.8403 1.004 84.9783 1.124 85.0743 1.304C85.1163 1.376 85.1793 1.514 85.2633 1.718C85.3473 1.922 85.4463 2.168 85.5603 2.456C85.6743 2.744 85.7943 3.053 85.9203 3.383C86.0463 3.707 86.1693 4.031 86.2893 4.355C86.4153 4.673 86.5293 4.97 86.6313 5.246C86.7333 5.522 86.8203 5.756 86.8923 5.948C86.9643 6.134 87.0123 6.254 87.0363 6.308ZM84.2013 5.147C84.3573 5.135 84.4473 5.09 84.4713 5.012C84.5013 4.934 84.5193 4.844 84.5253 4.742C84.5253 4.676 84.5133 4.595 84.4893 4.499C84.4713 4.403 84.4413 4.319 84.3993 4.247C84.3633 4.169 84.3153 4.13 84.2553 4.13C84.1713 4.13 84.0783 4.19 83.9763 4.31C83.8803 4.424 83.8263 4.541 83.8143 4.661C83.7963 4.775 83.8053 4.886 83.8413 4.994C83.8833 5.102 84.0033 5.153 84.2013 5.147ZM89.192 8.081C88.934 8.033 88.751 7.859 88.643 7.559C88.541 7.259 88.49 6.887 88.49 6.443C88.49 6.389 88.487 6.254 88.481 6.038C88.481 5.822 88.478 5.555 88.472 5.237C88.472 4.913 88.469 4.565 88.463 4.193C88.463 3.821 88.46 3.449 88.454 3.077C88.448 2.705 88.442 2.363 88.436 2.051C88.43 1.733 88.424 1.472 88.418 1.268C88.412 1.064 88.406 0.941 88.4 0.899C88.49 0.881 88.628 0.878 88.814 0.89C89.006 0.896 89.204 0.926 89.408 0.98C89.618 1.028 89.801 1.112 89.957 1.232C90.113 1.346 90.203 1.505 90.227 1.709C90.239 1.805 90.248 1.97 90.254 2.204C90.26 2.432 90.263 2.705 90.263 3.023C90.269 3.335 90.272 3.668 90.272 4.022C90.272 4.376 90.272 4.727 90.272 5.075C90.272 5.417 90.272 5.735 90.272 6.029C90.272 6.317 90.272 6.56 90.272 6.758C90.278 6.95 90.284 7.067 90.29 7.109C90.302 7.235 90.326 7.328 90.362 7.388C90.398 7.442 90.437 7.511 90.479 7.595C90.329 7.757 90.143 7.889 89.921 7.991C89.699 8.093 89.456 8.123 89.192 8.081ZM96.271 6.218C96.349 6.284 96.4 6.416 96.424 6.614C96.454 6.806 96.445 7.007 96.397 7.217C96.361 7.391 96.295 7.559 96.199 7.721C96.103 7.877 95.977 7.97 95.821 8C95.761 8.012 95.623 8.018 95.407 8.018C95.191 8.024 94.936 8.024 94.642 8.018C94.354 8.018 94.06 8.015 93.76 8.009C93.466 8.009 93.202 8.009 92.968 8.009C92.74 8.015 92.578 8.024 92.482 8.036C92.236 8.078 91.984 8.093 91.726 8.081C91.474 8.069 91.297 8.033 91.195 7.973C91.237 7.889 91.273 7.763 91.303 7.595C91.333 7.421 91.357 7.232 91.375 7.028C91.393 6.824 91.399 6.629 91.393 6.443L91.357 0.899C91.423 0.887 91.537 0.884 91.699 0.89C91.867 0.896 92.044 0.923 92.23 0.971C92.434 1.019 92.617 1.109 92.779 1.241C92.941 1.373 93.04 1.541 93.076 1.745C93.088 1.811 93.097 1.943 93.103 2.141C93.109 2.333 93.112 2.561 93.112 2.825C93.118 3.089 93.118 3.359 93.112 3.635C93.112 3.911 93.112 4.169 93.112 4.409C93.112 4.649 93.109 4.844 93.103 4.994C93.103 5.144 93.103 5.219 93.103 5.219C93.097 5.447 93.121 5.654 93.175 5.84C93.229 6.02 93.307 6.161 93.409 6.263C93.487 6.341 93.583 6.395 93.697 6.425C93.811 6.455 93.952 6.476 94.12 6.488C94.192 6.494 94.303 6.494 94.453 6.488C94.609 6.482 94.78 6.473 94.966 6.461C95.152 6.443 95.335 6.422 95.515 6.398C95.701 6.374 95.863 6.347 96.001 6.317C96.139 6.287 96.229 6.254 96.271 6.218ZM100.043 0.790999C100.397 0.790999 100.736 0.854 101.06 0.98C101.39 1.1 101.666 1.262 101.888 1.466C102.116 1.67 102.251 1.889 102.293 2.123C102.323 2.279 102.302 2.453 102.23 2.645C102.158 2.831 102.044 2.996 101.888 3.14C101.732 3.278 101.543 3.353 101.321 3.365C101.243 3.365 101.144 3.356 101.024 3.338C100.904 3.32 100.787 3.284 100.673 3.23C100.565 3.176 100.478 3.098 100.412 2.996C100.502 2.948 100.562 2.897 100.592 2.843C100.622 2.789 100.631 2.735 100.619 2.681C100.595 2.561 100.523 2.462 100.403 2.384C100.289 2.306 100.148 2.258 99.9797 2.24C99.8837 2.228 99.7727 2.231 99.6467 2.249C99.5207 2.261 99.4037 2.303 99.2957 2.375C99.1937 2.441 99.1217 2.552 99.0797 2.708C99.0557 2.798 99.0587 2.897 99.0887 3.005C99.1247 3.107 99.2087 3.206 99.3407 3.302C99.4727 3.392 99.6737 3.47 99.9437 3.536C100.358 3.632 100.742 3.737 101.096 3.851C101.456 3.965 101.771 4.106 102.041 4.274C102.311 4.442 102.518 4.652 102.662 4.904C102.812 5.15 102.881 5.459 102.869 5.831C102.863 6.077 102.797 6.335 102.671 6.605C102.545 6.875 102.362 7.127 102.122 7.361C101.882 7.589 101.588 7.775 101.24 7.919C100.892 8.063 100.496 8.135 100.052 8.135C99.7697 8.135 99.4787 8.111 99.1787 8.063C98.8787 8.015 98.5937 7.94 98.3237 7.838C98.0597 7.736 97.8257 7.601 97.6217 7.433C97.4417 7.277 97.3127 7.082 97.2347 6.848C97.1627 6.614 97.1477 6.38 97.1897 6.146C97.2317 5.906 97.3367 5.702 97.5047 5.534C97.6787 5.366 97.9187 5.273 98.2247 5.255C98.1647 5.435 98.1977 5.612 98.3237 5.786C98.4557 5.954 98.6507 6.098 98.9087 6.218C99.1667 6.332 99.4487 6.401 99.7547 6.425C100.073 6.449 100.349 6.437 100.583 6.389C100.823 6.341 100.955 6.242 100.979 6.092C101.009 5.912 100.973 5.768 100.871 5.66C100.769 5.552 100.628 5.471 100.448 5.417C100.268 5.357 100.073 5.309 99.8627 5.273C99.6527 5.231 99.4577 5.189 99.2777 5.147C99.0377 5.081 98.7947 4.997 98.5487 4.895C98.3087 4.787 98.0867 4.652 97.8827 4.49C97.6847 4.328 97.5227 4.13 97.3967 3.896C97.2707 3.662 97.2047 3.389 97.1987 3.077C97.1927 2.711 97.2677 2.387 97.4237 2.105C97.5797 1.817 97.7927 1.577 98.0627 1.385C98.3327 1.187 98.6387 1.04 98.9807 0.944C99.3287 0.842 99.6827 0.790999 100.043 0.790999Z" fill="black"/>
</svg>
